<svg width="381" height="113" viewBox="0 0 381 113" fill="none" xmlns="http://www.w3.org/2000/svg">
<mask id="path-1-outside-1_1340_187" maskUnits="userSpaceOnUse" x="-8" y="-8" width="397" height="129" fill="black">
<rect fill="white" x="-8" y="-8" width="397" height="129"/>
<path d="M71.9909 20.1818C71.9909 24.947 70.3091 29.0674 66.9454 32.5432C63.5818 35.9629 58.6765 38.4296 52.2295 39.9432C55.7053 40.8962 58.3401 42.4659 60.1341 44.6523C61.928 46.7826 62.825 49.2492 62.825 52.0523C62.825 56.4811 61.4235 60.3212 58.6204 63.5727C55.8735 66.8242 51.8371 69.347 46.5114 71.1409C41.1856 72.8788 34.7667 73.7477 27.2545 73.7477C24.4515 73.7477 22.2091 73.6636 20.5273 73.4955C20.4712 75.0652 19.7985 76.2424 18.5091 77.0273C17.2197 77.8121 15.5659 78.2045 13.5477 78.2045C11.5295 78.2045 10.128 77.7561 9.34318 76.8591C8.61439 75.9621 8.30606 74.6447 8.41818 72.9068C8.92273 65.0583 9.90379 56.8455 11.3614 48.2682C12.8189 39.6349 14.6689 31.3099 16.9114 23.2932C17.3038 21.8917 18.0886 20.9106 19.2659 20.35C20.4432 19.7894 21.9848 19.5091 23.8909 19.5091C27.3106 19.5091 29.0204 20.4621 29.0204 22.3682C29.0204 23.153 28.8523 24.05 28.5159 25.0591C27.0583 29.4318 25.6008 35.3743 24.1432 42.8864C22.6856 50.3424 21.6485 57.4621 21.0318 64.2455C23.7227 64.4697 25.9091 64.5818 27.5909 64.5818C35.4394 64.5818 41.1856 63.4606 44.8295 61.2182C48.5295 58.9197 50.3795 56.0045 50.3795 52.4727C50.3795 50.0061 49.3144 47.9318 47.1841 46.25C45.1098 44.5682 41.6061 43.6432 36.6727 43.475C35.5515 43.4189 34.7667 43.1386 34.3182 42.6341C33.8697 42.1296 33.6454 41.3167 33.6454 40.1955C33.6454 38.5697 33.9818 37.2523 34.6545 36.2432C35.3273 35.2341 36.5606 34.7015 38.3545 34.6455C42.3348 34.5333 45.9227 33.9447 49.1182 32.8796C52.3697 31.8144 54.9204 30.3288 56.7704 28.4227C58.6204 26.4606 59.5454 24.1902 59.5454 21.6114C59.5454 18.3599 57.9477 15.8091 54.7523 13.9591C51.5568 12.053 46.6515 11.1 40.0364 11.1C34.0379 11.1 28.2356 11.8849 22.6295 13.4546C17.0235 14.9682 12.2583 16.9023 8.33409 19.2568C6.54015 20.322 5.02651 20.8546 3.79318 20.8546C2.78409 20.8546 1.99924 20.5182 1.43864 19.8455C0.934091 19.1167 0.681818 18.2197 0.681818 17.1546C0.681818 15.753 0.962121 14.5477 1.52273 13.5386C2.13939 12.5296 3.56894 11.3803 5.81136 10.0909C10.5205 7.40001 16.0424 5.29774 22.3773 3.7841C28.7121 2.27047 35.1871 1.51365 41.8023 1.51365C51.9492 1.51365 59.5174 3.2235 64.5068 6.64319C69.4962 10.0629 71.9909 14.5758 71.9909 20.1818ZM107.14 55.2477C107.869 55.2477 108.43 55.5841 108.822 56.2568C109.271 56.9295 109.495 57.8545 109.495 59.0318C109.495 61.2742 108.962 63.0121 107.897 64.2455C105.823 66.7682 102.88 69.0947 99.0675 71.225C95.3114 73.3553 91.2751 74.4205 86.9584 74.4205C81.0721 74.4205 76.5031 72.8227 73.2516 69.6273C70.0001 66.4318 68.3743 62.0591 68.3743 56.5091C68.3743 52.6409 69.1872 49.053 70.813 45.7455C72.4387 42.3818 74.6811 39.7189 77.5402 37.7568C80.4554 35.7947 83.7349 34.8136 87.3789 34.8136C90.6304 34.8136 93.2372 35.7947 95.1993 37.7568C97.1614 39.6629 98.1425 42.2697 98.1425 45.5773C98.1425 49.4455 96.741 52.7811 93.938 55.5841C91.191 58.3311 86.5099 60.5174 79.8948 62.1432C81.2963 64.722 83.9592 66.0114 87.8834 66.0114C90.4061 66.0114 93.2652 65.1424 96.4607 63.4045C99.7122 61.6106 102.515 59.2841 104.87 56.425C105.543 55.6402 106.299 55.2477 107.14 55.2477ZM85.9493 43.0546C83.8751 43.0546 82.1092 44.2599 80.6516 46.6705C79.2501 49.0811 78.5493 51.9962 78.5493 55.4159V55.5841C81.8569 54.7992 84.4637 53.622 86.3698 52.0523C88.2758 50.4826 89.2289 48.6606 89.2289 46.5864C89.2289 45.5212 88.9205 44.6803 88.3039 44.0636C87.7433 43.3909 86.9584 43.0546 85.9493 43.0546ZM166.473 55.2477C167.202 55.2477 167.762 55.5841 168.155 56.2568C168.603 56.9295 168.827 57.8545 168.827 59.0318C168.827 61.2742 168.295 63.0121 167.23 64.2455C164.819 67.2167 162.184 69.6553 159.325 71.5614C156.466 73.4674 153.187 74.4205 149.487 74.4205C142.647 74.4205 137.882 71.5614 135.191 65.8432C133.734 68.1977 131.799 70.2159 129.389 71.8977C126.978 73.5795 124.399 74.4205 121.652 74.4205C116.327 74.4205 112.402 72.2621 109.88 67.9455C107.413 63.5727 106.18 57.6864 106.18 50.2864C106.18 47.5394 106.32 44.4841 106.6 41.1205H103.152C101.471 41.1205 100.321 40.8121 99.7048 40.1955C99.1441 39.5788 98.8638 38.5977 98.8638 37.2523C98.8638 34.1129 100.125 32.5432 102.648 32.5432H107.777C108.843 26.6008 110.328 21.2189 112.234 16.3977C114.14 11.5765 116.439 7.73638 119.13 4.87729C121.821 2.0182 124.736 0.588652 127.875 0.588652C130.23 0.588652 132.08 1.62577 133.425 3.70001C134.771 5.77426 135.443 8.38107 135.443 11.5205C135.443 19.425 132.388 26.4326 126.277 32.5432H133.93C134.995 26.6008 136.481 21.2189 138.387 16.3977C140.293 11.5765 142.591 7.73638 145.282 4.87729C147.973 2.0182 150.888 0.588652 154.027 0.588652C156.382 0.588652 158.232 1.62577 159.577 3.70001C160.923 5.77426 161.596 8.38107 161.596 11.5205C161.596 19.425 158.54 26.4326 152.43 32.5432H160.082C160.979 32.5432 161.624 32.7394 162.016 33.1318C162.409 33.5242 162.605 34.253 162.605 35.3182C162.605 39.1864 159.437 41.1205 153.102 41.1205H142.927C142.759 43.8114 142.675 46.5583 142.675 49.3614C142.675 55.1917 143.348 59.2841 144.693 61.6386C146.095 63.9932 148.281 65.1705 151.252 65.1705C153.663 65.1705 155.793 64.4417 157.643 62.9841C159.493 61.5265 161.68 59.3402 164.202 56.425C164.875 55.6402 165.632 55.2477 166.473 55.2477ZM125.605 8.66138C124.764 8.66138 123.811 9.72653 122.746 11.8568C121.737 13.9311 120.756 16.8462 119.802 20.6023C118.906 24.3023 118.149 28.4227 117.532 32.9636C120.84 30.1046 123.306 26.9091 124.932 23.3773C126.614 19.7894 127.455 16.5379 127.455 13.6227C127.455 10.3152 126.838 8.66138 125.605 8.66138ZM151.757 8.66138C150.916 8.66138 149.963 9.72653 148.898 11.8568C147.889 13.9311 146.908 16.8462 145.955 20.6023C145.058 24.3023 144.301 28.4227 143.684 32.9636C146.992 30.1046 149.459 26.9091 151.084 23.3773C152.766 19.7894 153.607 16.5379 153.607 13.6227C153.607 10.3152 152.99 8.66138 151.757 8.66138ZM123.418 65.1705C125.1 65.1705 126.782 64.3856 128.464 62.8159C130.146 61.2462 131.575 59.3121 132.752 57.0136C132.472 55.2758 132.332 53.0333 132.332 50.2864C132.332 47.5394 132.472 44.4841 132.752 41.1205H116.775C116.607 43.8114 116.523 46.5583 116.523 49.3614C116.523 55.0235 117.112 59.0879 118.289 61.5545C119.522 63.9652 121.232 65.1705 123.418 65.1705ZM205.075 55.4159C205.804 55.4159 206.365 55.7803 206.757 56.5091C207.206 57.1818 207.43 58.0508 207.43 59.1159C207.43 60.4053 207.234 61.4144 206.841 62.1432C206.449 62.872 205.832 63.5167 204.991 64.0773L188.846 74.925C186.715 86.5295 183.912 95.6394 180.437 102.255C177.017 108.926 172.644 112.261 167.318 112.261C164.459 112.261 162.133 111.364 160.339 109.57C158.545 107.833 157.648 105.534 157.648 102.675C157.648 100.04 158.237 97.3492 159.414 94.6023C160.647 91.8553 162.89 88.6879 166.141 85.1C169.449 81.5682 174.102 77.5038 180.1 72.9068L180.353 70.9727C180.745 68.8985 181.193 65.9273 181.698 62.0591C180.577 66.0955 179.007 69.1788 176.989 71.3091C174.971 73.3833 172.84 74.4205 170.598 74.4205C168.075 74.4205 166.001 73.2712 164.375 70.9727C162.806 68.6182 162.021 65.703 162.021 62.2273C162.021 58.0227 162.301 54.1826 162.862 50.7068C163.422 47.175 164.347 43.447 165.637 39.5227C166.197 37.8409 166.982 36.6356 167.991 35.9068C169 35.178 170.598 34.8136 172.784 34.8136C174.018 34.8136 174.859 35.0099 175.307 35.4023C175.812 35.7947 176.064 36.3833 176.064 37.1682C176.064 37.6167 175.756 39.1303 175.139 41.7091C174.578 43.7833 174.13 45.6614 173.793 47.3432C173.345 49.6417 172.953 51.8561 172.616 53.9864C172.28 56.0606 172.112 57.7705 172.112 59.1159C172.112 61.2462 172.7 62.3114 173.878 62.3114C174.718 62.3114 175.756 61.4705 176.989 59.7886C178.278 58.1068 179.624 55.5561 181.025 52.1364C182.483 48.7167 183.884 44.5121 185.23 39.5227C185.678 37.8409 186.351 36.6356 187.248 35.9068C188.201 35.178 189.603 34.8136 191.453 34.8136C192.742 34.8136 193.639 34.9818 194.143 35.3182C194.648 35.6546 194.9 36.2152 194.9 37C194.9 38.4015 194.171 43.2227 192.714 51.4636L190.528 65.0023C194.844 61.7508 199.049 58.7795 203.141 56.0886C203.87 55.6402 204.515 55.4159 205.075 55.4159ZM168.243 104.105C169.645 104.105 171.215 102.479 172.953 99.2273C174.69 95.9758 176.428 90.5659 178.166 82.9977C173.849 86.6417 170.71 89.9492 168.748 92.9205C166.842 95.9477 165.889 98.5826 165.889 100.825C165.889 101.778 166.057 102.563 166.393 103.18C166.786 103.796 167.403 104.105 168.243 104.105Z"/>
<path d="M217.732 74.4205C215.658 74.4205 214.172 73.972 213.275 73.075C212.378 72.122 211.93 70.3561 211.93 67.7773C211.93 66.0394 212.098 63.825 212.435 61.1341C212.827 58.3871 213.444 54.6311 214.285 49.8659C215.742 41.0644 216.891 33.4402 217.732 26.9932C218.237 22.9568 218.489 19.5932 218.489 16.9023C218.489 14.3796 217.564 13.1182 215.714 13.1182C214.256 13.1182 212.491 13.875 210.416 15.3886C208.398 16.8462 206.156 19.2008 203.689 22.4523C202.904 23.5174 202.035 24.05 201.082 24.05C200.297 24.05 199.597 23.6856 198.98 22.9568C198.419 22.172 198.139 21.303 198.139 20.35C198.139 19.453 198.307 18.5561 198.644 17.6591C199.036 16.7061 199.653 15.6409 200.494 14.4637C203.185 10.7076 206.184 7.82047 209.491 5.80228C212.799 3.72804 216.106 2.69092 219.414 2.69092C222.497 2.69092 224.852 3.67198 226.478 5.63411C228.16 7.59622 229 10.4553 229 14.2114C229 15.725 228.86 17.519 228.58 19.5932C228.3 21.6114 228.047 23.2652 227.823 24.5546C227.599 25.844 227.431 26.7409 227.319 27.2455C230.514 18.1076 234.102 11.7447 238.082 8.15683C242.063 4.51289 246.435 2.69092 251.2 2.69092C254.844 2.69092 257.703 3.98032 259.778 6.5591C261.908 9.13789 262.973 12.7818 262.973 17.4909C262.973 19.3409 262.721 21.6394 262.216 24.3864C265.019 16.65 268.299 11.1 272.055 7.73638C275.811 4.37274 280.128 2.69092 285.005 2.69092C288.929 2.69092 291.928 3.95229 294.003 6.47501C296.133 8.99774 297.198 12.5296 297.198 17.0705C297.198 19.5371 296.834 22.5364 296.105 26.0682L290.975 50.1182C290.415 52.9212 290.134 55.3318 290.134 57.35C290.134 59.7045 290.667 61.4705 291.732 62.6477C292.853 63.825 294.395 64.4136 296.357 64.4136C298.207 64.4136 300.001 63.797 301.739 62.5636C303.533 61.3303 305.635 59.2841 308.046 56.425C308.719 55.6402 309.475 55.2477 310.316 55.2477C311.045 55.2477 311.606 55.5841 311.998 56.2568C312.447 56.9295 312.671 57.8545 312.671 59.0318C312.671 61.2182 312.138 62.9561 311.073 64.2455C308.158 67.7773 305.271 70.3561 302.412 71.9818C299.553 73.6076 296.553 74.4205 293.414 74.4205C288.649 74.4205 284.921 73.0189 282.23 70.2159C279.539 67.3568 278.194 63.5447 278.194 58.7795C278.194 55.472 278.866 50.6788 280.212 44.4L283.575 29.0114C283.688 28.5068 283.884 27.6099 284.164 26.3205C284.444 25.0311 284.669 23.8258 284.837 22.7046C285.005 21.5273 285.089 20.378 285.089 19.2568C285.089 17.2947 284.697 15.8371 283.912 14.8841C283.183 13.875 282.118 13.3705 280.716 13.3705C278.081 13.3705 275.306 15.0803 272.391 18.5C269.532 21.8636 266.785 27.4697 264.15 35.3182C261.572 43.1667 259.469 53.3697 257.844 65.9273C257.451 69.2909 256.75 71.5614 255.741 72.7386C254.788 73.8598 253.219 74.4205 251.032 74.4205C249.126 74.4205 247.725 73.972 246.828 73.075C245.987 72.178 245.566 70.4962 245.566 68.0295C245.566 65.7311 245.875 62.7318 246.491 59.0318C247.108 55.2758 247.893 50.875 248.846 45.8296C251.425 32.2629 252.714 23.5174 252.714 19.5932C252.714 17.4629 252.294 15.8932 251.453 14.8841C250.668 13.875 249.463 13.3705 247.837 13.3705C245.09 13.3705 242.259 14.9402 239.344 18.0796C236.428 21.1629 233.569 26.6849 230.766 34.6455C228.019 42.55 225.721 53.2576 223.871 66.7682C223.478 69.6273 222.89 71.6174 222.105 72.7386C221.376 73.8598 219.919 74.4205 217.732 74.4205ZM316.238 74.4205C312.762 74.4205 309.987 73.1591 307.913 70.6364C305.839 68.1136 304.802 64.8061 304.802 60.7136C304.802 56.2288 305.839 51.9962 307.913 48.0159C309.987 43.9796 312.734 40.7561 316.154 38.3455C319.63 35.8788 323.302 34.6455 327.17 34.6455C328.403 34.6455 329.216 34.8977 329.609 35.4023C330.057 35.8508 330.421 36.6917 330.702 37.925C331.879 37.7008 333.112 37.5886 334.402 37.5886C337.149 37.5886 338.522 38.5697 338.522 40.5318C338.522 41.7091 338.102 44.5121 337.261 48.9409C335.971 55.3879 335.327 59.8727 335.327 62.3955C335.327 63.2364 335.523 63.9091 335.915 64.4136C336.364 64.9182 336.924 65.1705 337.597 65.1705C338.662 65.1705 339.952 64.4977 341.465 63.1523C342.979 61.7508 345.025 59.5083 347.604 56.425C348.277 55.6402 349.034 55.2477 349.874 55.2477C350.603 55.2477 351.164 55.5841 351.556 56.2568C352.005 56.9295 352.229 57.8545 352.229 59.0318C352.229 61.2742 351.696 63.0121 350.631 64.2455C348.333 67.1045 345.894 69.5152 343.315 71.4773C340.737 73.4394 338.242 74.4205 335.831 74.4205C333.981 74.4205 332.271 73.8038 330.702 72.5705C329.188 71.2811 328.039 69.5432 327.254 67.3568C324.339 72.0659 320.667 74.4205 316.238 74.4205ZM319.265 65.9273C320.499 65.9273 321.676 65.1985 322.797 63.7409C323.918 62.2833 324.731 60.3492 325.236 57.9386L328.347 42.4659C325.993 42.522 323.806 43.4189 321.788 45.1568C319.826 46.8386 318.256 49.0811 317.079 51.8841C315.902 54.6871 315.313 57.6583 315.313 60.7977C315.313 62.5356 315.649 63.825 316.322 64.6659C317.051 65.5068 318.032 65.9273 319.265 65.9273ZM351.365 74.4205C349.235 74.4205 347.721 73.2992 346.824 71.0568C345.983 68.8144 345.563 65.2265 345.563 60.2932C345.563 53.0053 346.6 46.0818 348.674 39.5227C349.179 37.897 349.992 36.7197 351.113 35.9909C352.29 35.2061 353.916 34.8136 355.99 34.8136C357.111 34.8136 357.896 34.9538 358.345 35.2341C358.793 35.5144 359.017 36.047 359.017 36.8318C359.017 37.7288 358.597 39.747 357.756 42.8864C357.195 45.1288 356.747 47.0909 356.411 48.7727C356.074 50.4546 355.794 52.5288 355.57 54.9955C357.42 50.1742 359.494 46.25 361.792 43.2227C364.091 40.1955 366.333 38.0371 368.52 36.7477C370.762 35.4583 372.808 34.8136 374.658 34.8136C376.452 34.8136 377.798 35.2902 378.695 36.2432C379.648 37.1402 380.124 38.4856 380.124 40.2796C380.124 41.7371 379.816 44.4841 379.199 48.5205C378.639 51.9402 378.19 55.1917 377.854 58.275C377.517 61.3023 377.349 64.6939 377.349 68.45C377.349 70.5803 376.901 72.122 376.004 73.075C375.163 73.972 373.761 74.4205 371.799 74.4205C369.949 74.4205 368.604 73.9439 367.763 72.9909C366.922 72.0379 366.501 70.6083 366.501 68.7023C366.501 66.4598 366.894 62.7599 367.679 57.6023C368.351 53.1174 368.688 50.2583 368.688 49.025C368.688 48.128 368.38 47.6795 367.763 47.6795C367.034 47.6795 365.997 48.6326 364.651 50.5386C363.362 52.3886 362.017 54.8553 360.615 57.9386C359.27 61.022 358.176 64.2735 357.336 67.6932C356.719 70.328 355.99 72.122 355.149 73.075C354.364 73.972 353.103 74.4205 351.365 74.4205Z"/>
</mask>
<path d="M71.9909 20.1818C71.9909 24.947 70.3091 29.0674 66.9454 32.5432C63.5818 35.9629 58.6765 38.4296 52.2295 39.9432C55.7053 40.8962 58.3401 42.4659 60.1341 44.6523C61.928 46.7826 62.825 49.2492 62.825 52.0523C62.825 56.4811 61.4235 60.3212 58.6204 63.5727C55.8735 66.8242 51.8371 69.347 46.5114 71.1409C41.1856 72.8788 34.7667 73.7477 27.2545 73.7477C24.4515 73.7477 22.2091 73.6636 20.5273 73.4955C20.4712 75.0652 19.7985 76.2424 18.5091 77.0273C17.2197 77.8121 15.5659 78.2045 13.5477 78.2045C11.5295 78.2045 10.128 77.7561 9.34318 76.8591C8.61439 75.9621 8.30606 74.6447 8.41818 72.9068C8.92273 65.0583 9.90379 56.8455 11.3614 48.2682C12.8189 39.6349 14.6689 31.3099 16.9114 23.2932C17.3038 21.8917 18.0886 20.9106 19.2659 20.35C20.4432 19.7894 21.9848 19.5091 23.8909 19.5091C27.3106 19.5091 29.0204 20.4621 29.0204 22.3682C29.0204 23.153 28.8523 24.05 28.5159 25.0591C27.0583 29.4318 25.6008 35.3743 24.1432 42.8864C22.6856 50.3424 21.6485 57.4621 21.0318 64.2455C23.7227 64.4697 25.9091 64.5818 27.5909 64.5818C35.4394 64.5818 41.1856 63.4606 44.8295 61.2182C48.5295 58.9197 50.3795 56.0045 50.3795 52.4727C50.3795 50.0061 49.3144 47.9318 47.1841 46.25C45.1098 44.5682 41.6061 43.6432 36.6727 43.475C35.5515 43.4189 34.7667 43.1386 34.3182 42.6341C33.8697 42.1296 33.6454 41.3167 33.6454 40.1955C33.6454 38.5697 33.9818 37.2523 34.6545 36.2432C35.3273 35.2341 36.5606 34.7015 38.3545 34.6455C42.3348 34.5333 45.9227 33.9447 49.1182 32.8796C52.3697 31.8144 54.9204 30.3288 56.7704 28.4227C58.6204 26.4606 59.5454 24.1902 59.5454 21.6114C59.5454 18.3599 57.9477 15.8091 54.7523 13.9591C51.5568 12.053 46.6515 11.1 40.0364 11.1C34.0379 11.1 28.2356 11.8849 22.6295 13.4546C17.0235 14.9682 12.2583 16.9023 8.33409 19.2568C6.54015 20.322 5.02651 20.8546 3.79318 20.8546C2.78409 20.8546 1.99924 20.5182 1.43864 19.8455C0.934091 19.1167 0.681818 18.2197 0.681818 17.1546C0.681818 15.753 0.962121 14.5477 1.52273 13.5386C2.13939 12.5296 3.56894 11.3803 5.81136 10.0909C10.5205 7.40001 16.0424 5.29774 22.3773 3.7841C28.7121 2.27047 35.1871 1.51365 41.8023 1.51365C51.9492 1.51365 59.5174 3.2235 64.5068 6.64319C69.4962 10.0629 71.9909 14.5758 71.9909 20.1818ZM107.14 55.2477C107.869 55.2477 108.43 55.5841 108.822 56.2568C109.271 56.9295 109.495 57.8545 109.495 59.0318C109.495 61.2742 108.962 63.0121 107.897 64.2455C105.823 66.7682 102.88 69.0947 99.0675 71.225C95.3114 73.3553 91.2751 74.4205 86.9584 74.4205C81.0721 74.4205 76.5031 72.8227 73.2516 69.6273C70.0001 66.4318 68.3743 62.0591 68.3743 56.5091C68.3743 52.6409 69.1872 49.053 70.813 45.7455C72.4387 42.3818 74.6811 39.7189 77.5402 37.7568C80.4554 35.7947 83.7349 34.8136 87.3789 34.8136C90.6304 34.8136 93.2372 35.7947 95.1993 37.7568C97.1614 39.6629 98.1425 42.2697 98.1425 45.5773C98.1425 49.4455 96.741 52.7811 93.938 55.5841C91.191 58.3311 86.5099 60.5174 79.8948 62.1432C81.2963 64.722 83.9592 66.0114 87.8834 66.0114C90.4061 66.0114 93.2652 65.1424 96.4607 63.4045C99.7122 61.6106 102.515 59.2841 104.87 56.425C105.543 55.6402 106.299 55.2477 107.14 55.2477ZM85.9493 43.0546C83.8751 43.0546 82.1092 44.2599 80.6516 46.6705C79.2501 49.0811 78.5493 51.9962 78.5493 55.4159V55.5841C81.8569 54.7992 84.4637 53.622 86.3698 52.0523C88.2758 50.4826 89.2289 48.6606 89.2289 46.5864C89.2289 45.5212 88.9205 44.6803 88.3039 44.0636C87.7433 43.3909 86.9584 43.0546 85.9493 43.0546ZM166.473 55.2477C167.202 55.2477 167.762 55.5841 168.155 56.2568C168.603 56.9295 168.827 57.8545 168.827 59.0318C168.827 61.2742 168.295 63.0121 167.23 64.2455C164.819 67.2167 162.184 69.6553 159.325 71.5614C156.466 73.4674 153.187 74.4205 149.487 74.4205C142.647 74.4205 137.882 71.5614 135.191 65.8432C133.734 68.1977 131.799 70.2159 129.389 71.8977C126.978 73.5795 124.399 74.4205 121.652 74.4205C116.327 74.4205 112.402 72.2621 109.88 67.9455C107.413 63.5727 106.18 57.6864 106.18 50.2864C106.18 47.5394 106.32 44.4841 106.6 41.1205H103.152C101.471 41.1205 100.321 40.8121 99.7048 40.1955C99.1441 39.5788 98.8638 38.5977 98.8638 37.2523C98.8638 34.1129 100.125 32.5432 102.648 32.5432H107.777C108.843 26.6008 110.328 21.2189 112.234 16.3977C114.14 11.5765 116.439 7.73638 119.13 4.87729C121.821 2.0182 124.736 0.588652 127.875 0.588652C130.23 0.588652 132.08 1.62577 133.425 3.70001C134.771 5.77426 135.443 8.38107 135.443 11.5205C135.443 19.425 132.388 26.4326 126.277 32.5432H133.93C134.995 26.6008 136.481 21.2189 138.387 16.3977C140.293 11.5765 142.591 7.73638 145.282 4.87729C147.973 2.0182 150.888 0.588652 154.027 0.588652C156.382 0.588652 158.232 1.62577 159.577 3.70001C160.923 5.77426 161.596 8.38107 161.596 11.5205C161.596 19.425 158.54 26.4326 152.43 32.5432H160.082C160.979 32.5432 161.624 32.7394 162.016 33.1318C162.409 33.5242 162.605 34.253 162.605 35.3182C162.605 39.1864 159.437 41.1205 153.102 41.1205H142.927C142.759 43.8114 142.675 46.5583 142.675 49.3614C142.675 55.1917 143.348 59.2841 144.693 61.6386C146.095 63.9932 148.281 65.1705 151.252 65.1705C153.663 65.1705 155.793 64.4417 157.643 62.9841C159.493 61.5265 161.68 59.3402 164.202 56.425C164.875 55.6402 165.632 55.2477 166.473 55.2477ZM125.605 8.66138C124.764 8.66138 123.811 9.72653 122.746 11.8568C121.737 13.9311 120.756 16.8462 119.802 20.6023C118.906 24.3023 118.149 28.4227 117.532 32.9636C120.84 30.1046 123.306 26.9091 124.932 23.3773C126.614 19.7894 127.455 16.5379 127.455 13.6227C127.455 10.3152 126.838 8.66138 125.605 8.66138ZM151.757 8.66138C150.916 8.66138 149.963 9.72653 148.898 11.8568C147.889 13.9311 146.908 16.8462 145.955 20.6023C145.058 24.3023 144.301 28.4227 143.684 32.9636C146.992 30.1046 149.459 26.9091 151.084 23.3773C152.766 19.7894 153.607 16.5379 153.607 13.6227C153.607 10.3152 152.99 8.66138 151.757 8.66138ZM123.418 65.1705C125.1 65.1705 126.782 64.3856 128.464 62.8159C130.146 61.2462 131.575 59.3121 132.752 57.0136C132.472 55.2758 132.332 53.0333 132.332 50.2864C132.332 47.5394 132.472 44.4841 132.752 41.1205H116.775C116.607 43.8114 116.523 46.5583 116.523 49.3614C116.523 55.0235 117.112 59.0879 118.289 61.5545C119.522 63.9652 121.232 65.1705 123.418 65.1705ZM205.075 55.4159C205.804 55.4159 206.365 55.7803 206.757 56.5091C207.206 57.1818 207.43 58.0508 207.43 59.1159C207.43 60.4053 207.234 61.4144 206.841 62.1432C206.449 62.872 205.832 63.5167 204.991 64.0773L188.846 74.925C186.715 86.5295 183.912 95.6394 180.437 102.255C177.017 108.926 172.644 112.261 167.318 112.261C164.459 112.261 162.133 111.364 160.339 109.57C158.545 107.833 157.648 105.534 157.648 102.675C157.648 100.04 158.237 97.3492 159.414 94.6023C160.647 91.8553 162.89 88.6879 166.141 85.1C169.449 81.5682 174.102 77.5038 180.1 72.9068L180.353 70.9727C180.745 68.8985 181.193 65.9273 181.698 62.0591C180.577 66.0955 179.007 69.1788 176.989 71.3091C174.971 73.3833 172.84 74.4205 170.598 74.4205C168.075 74.4205 166.001 73.2712 164.375 70.9727C162.806 68.6182 162.021 65.703 162.021 62.2273C162.021 58.0227 162.301 54.1826 162.862 50.7068C163.422 47.175 164.347 43.447 165.637 39.5227C166.197 37.8409 166.982 36.6356 167.991 35.9068C169 35.178 170.598 34.8136 172.784 34.8136C174.018 34.8136 174.859 35.0099 175.307 35.4023C175.812 35.7947 176.064 36.3833 176.064 37.1682C176.064 37.6167 175.756 39.1303 175.139 41.7091C174.578 43.7833 174.13 45.6614 173.793 47.3432C173.345 49.6417 172.953 51.8561 172.616 53.9864C172.28 56.0606 172.112 57.7705 172.112 59.1159C172.112 61.2462 172.7 62.3114 173.878 62.3114C174.718 62.3114 175.756 61.4705 176.989 59.7886C178.278 58.1068 179.624 55.5561 181.025 52.1364C182.483 48.7167 183.884 44.5121 185.23 39.5227C185.678 37.8409 186.351 36.6356 187.248 35.9068C188.201 35.178 189.603 34.8136 191.453 34.8136C192.742 34.8136 193.639 34.9818 194.143 35.3182C194.648 35.6546 194.9 36.2152 194.9 37C194.9 38.4015 194.171 43.2227 192.714 51.4636L190.528 65.0023C194.844 61.7508 199.049 58.7795 203.141 56.0886C203.87 55.6402 204.515 55.4159 205.075 55.4159ZM168.243 104.105C169.645 104.105 171.215 102.479 172.953 99.2273C174.69 95.9758 176.428 90.5659 178.166 82.9977C173.849 86.6417 170.71 89.9492 168.748 92.9205C166.842 95.9477 165.889 98.5826 165.889 100.825C165.889 101.778 166.057 102.563 166.393 103.18C166.786 103.796 167.403 104.105 168.243 104.105Z" fill="white"/>
<path d="M217.732 74.4205C215.658 74.4205 214.172 73.972 213.275 73.075C212.378 72.122 211.93 70.3561 211.93 67.7773C211.93 66.0394 212.098 63.825 212.435 61.1341C212.827 58.3871 213.444 54.6311 214.285 49.8659C215.742 41.0644 216.891 33.4402 217.732 26.9932C218.237 22.9568 218.489 19.5932 218.489 16.9023C218.489 14.3796 217.564 13.1182 215.714 13.1182C214.256 13.1182 212.491 13.875 210.416 15.3886C208.398 16.8462 206.156 19.2008 203.689 22.4523C202.904 23.5174 202.035 24.05 201.082 24.05C200.297 24.05 199.597 23.6856 198.98 22.9568C198.419 22.172 198.139 21.303 198.139 20.35C198.139 19.453 198.307 18.5561 198.644 17.6591C199.036 16.7061 199.653 15.6409 200.494 14.4637C203.185 10.7076 206.184 7.82047 209.491 5.80228C212.799 3.72804 216.106 2.69092 219.414 2.69092C222.497 2.69092 224.852 3.67198 226.478 5.63411C228.16 7.59622 229 10.4553 229 14.2114C229 15.725 228.86 17.519 228.58 19.5932C228.3 21.6114 228.047 23.2652 227.823 24.5546C227.599 25.844 227.431 26.7409 227.319 27.2455C230.514 18.1076 234.102 11.7447 238.082 8.15683C242.063 4.51289 246.435 2.69092 251.2 2.69092C254.844 2.69092 257.703 3.98032 259.778 6.5591C261.908 9.13789 262.973 12.7818 262.973 17.4909C262.973 19.3409 262.721 21.6394 262.216 24.3864C265.019 16.65 268.299 11.1 272.055 7.73638C275.811 4.37274 280.128 2.69092 285.005 2.69092C288.929 2.69092 291.928 3.95229 294.003 6.47501C296.133 8.99774 297.198 12.5296 297.198 17.0705C297.198 19.5371 296.834 22.5364 296.105 26.0682L290.975 50.1182C290.415 52.9212 290.134 55.3318 290.134 57.35C290.134 59.7045 290.667 61.4705 291.732 62.6477C292.853 63.825 294.395 64.4136 296.357 64.4136C298.207 64.4136 300.001 63.797 301.739 62.5636C303.533 61.3303 305.635 59.2841 308.046 56.425C308.719 55.6402 309.475 55.2477 310.316 55.2477C311.045 55.2477 311.606 55.5841 311.998 56.2568C312.447 56.9295 312.671 57.8545 312.671 59.0318C312.671 61.2182 312.138 62.9561 311.073 64.2455C308.158 67.7773 305.271 70.3561 302.412 71.9818C299.553 73.6076 296.553 74.4205 293.414 74.4205C288.649 74.4205 284.921 73.0189 282.23 70.2159C279.539 67.3568 278.194 63.5447 278.194 58.7795C278.194 55.472 278.866 50.6788 280.212 44.4L283.575 29.0114C283.688 28.5068 283.884 27.6099 284.164 26.3205C284.444 25.0311 284.669 23.8258 284.837 22.7046C285.005 21.5273 285.089 20.378 285.089 19.2568C285.089 17.2947 284.697 15.8371 283.912 14.8841C283.183 13.875 282.118 13.3705 280.716 13.3705C278.081 13.3705 275.306 15.0803 272.391 18.5C269.532 21.8636 266.785 27.4697 264.15 35.3182C261.572 43.1667 259.469 53.3697 257.844 65.9273C257.451 69.2909 256.75 71.5614 255.741 72.7386C254.788 73.8598 253.219 74.4205 251.032 74.4205C249.126 74.4205 247.725 73.972 246.828 73.075C245.987 72.178 245.566 70.4962 245.566 68.0295C245.566 65.7311 245.875 62.7318 246.491 59.0318C247.108 55.2758 247.893 50.875 248.846 45.8296C251.425 32.2629 252.714 23.5174 252.714 19.5932C252.714 17.4629 252.294 15.8932 251.453 14.8841C250.668 13.875 249.463 13.3705 247.837 13.3705C245.09 13.3705 242.259 14.9402 239.344 18.0796C236.428 21.1629 233.569 26.6849 230.766 34.6455C228.019 42.55 225.721 53.2576 223.871 66.7682C223.478 69.6273 222.89 71.6174 222.105 72.7386C221.376 73.8598 219.919 74.4205 217.732 74.4205ZM316.238 74.4205C312.762 74.4205 309.987 73.1591 307.913 70.6364C305.839 68.1136 304.802 64.8061 304.802 60.7136C304.802 56.2288 305.839 51.9962 307.913 48.0159C309.987 43.9796 312.734 40.7561 316.154 38.3455C319.63 35.8788 323.302 34.6455 327.17 34.6455C328.403 34.6455 329.216 34.8977 329.609 35.4023C330.057 35.8508 330.421 36.6917 330.702 37.925C331.879 37.7008 333.112 37.5886 334.402 37.5886C337.149 37.5886 338.522 38.5697 338.522 40.5318C338.522 41.7091 338.102 44.5121 337.261 48.9409C335.971 55.3879 335.327 59.8727 335.327 62.3955C335.327 63.2364 335.523 63.9091 335.915 64.4136C336.364 64.9182 336.924 65.1705 337.597 65.1705C338.662 65.1705 339.952 64.4977 341.465 63.1523C342.979 61.7508 345.025 59.5083 347.604 56.425C348.277 55.6402 349.034 55.2477 349.874 55.2477C350.603 55.2477 351.164 55.5841 351.556 56.2568C352.005 56.9295 352.229 57.8545 352.229 59.0318C352.229 61.2742 351.696 63.0121 350.631 64.2455C348.333 67.1045 345.894 69.5152 343.315 71.4773C340.737 73.4394 338.242 74.4205 335.831 74.4205C333.981 74.4205 332.271 73.8038 330.702 72.5705C329.188 71.2811 328.039 69.5432 327.254 67.3568C324.339 72.0659 320.667 74.4205 316.238 74.4205ZM319.265 65.9273C320.499 65.9273 321.676 65.1985 322.797 63.7409C323.918 62.2833 324.731 60.3492 325.236 57.9386L328.347 42.4659C325.993 42.522 323.806 43.4189 321.788 45.1568C319.826 46.8386 318.256 49.0811 317.079 51.8841C315.902 54.6871 315.313 57.6583 315.313 60.7977C315.313 62.5356 315.649 63.825 316.322 64.6659C317.051 65.5068 318.032 65.9273 319.265 65.9273ZM351.365 74.4205C349.235 74.4205 347.721 73.2992 346.824 71.0568C345.983 68.8144 345.563 65.2265 345.563 60.2932C345.563 53.0053 346.6 46.0818 348.674 39.5227C349.179 37.897 349.992 36.7197 351.113 35.9909C352.29 35.2061 353.916 34.8136 355.99 34.8136C357.111 34.8136 357.896 34.9538 358.345 35.2341C358.793 35.5144 359.017 36.047 359.017 36.8318C359.017 37.7288 358.597 39.747 357.756 42.8864C357.195 45.1288 356.747 47.0909 356.411 48.7727C356.074 50.4546 355.794 52.5288 355.57 54.9955C357.42 50.1742 359.494 46.25 361.792 43.2227C364.091 40.1955 366.333 38.0371 368.52 36.7477C370.762 35.4583 372.808 34.8136 374.658 34.8136C376.452 34.8136 377.798 35.2902 378.695 36.2432C379.648 37.1402 380.124 38.4856 380.124 40.2796C380.124 41.7371 379.816 44.4841 379.199 48.5205C378.639 51.9402 378.19 55.1917 377.854 58.275C377.517 61.3023 377.349 64.6939 377.349 68.45C377.349 70.5803 376.901 72.122 376.004 73.075C375.163 73.972 373.761 74.4205 371.799 74.4205C369.949 74.4205 368.604 73.9439 367.763 72.9909C366.922 72.0379 366.501 70.6083 366.501 68.7023C366.501 66.4598 366.894 62.7599 367.679 57.6023C368.351 53.1174 368.688 50.2583 368.688 49.025C368.688 48.128 368.38 47.6795 367.763 47.6795C367.034 47.6795 365.997 48.6326 364.651 50.5386C363.362 52.3886 362.017 54.8553 360.615 57.9386C359.27 61.022 358.176 64.2735 357.336 67.6932C356.719 70.328 355.99 72.122 355.149 73.075C354.364 73.972 353.103 74.4205 351.365 74.4205Z" fill="#FFBC11"/>
<path d="M66.9454 32.5432L73.0163 38.5145L73.0406 38.4899L73.0647 38.465L66.9454 32.5432ZM52.2295 39.9432L50.2832 31.6532L49.9778 48.1555L52.2295 39.9432ZM60.1341 44.6523L53.551 50.0538L53.5855 50.0958L53.6205 50.1374L60.1341 44.6523ZM58.6204 63.5727L52.1708 58.0127L52.143 58.0448L52.1156 58.0773L58.6204 63.5727ZM46.5114 71.1409L49.153 79.2362L49.1914 79.2237L49.2296 79.2108L46.5114 71.1409ZM20.5273 73.4955L21.3746 65.0223L12.3413 64.1189L12.0173 73.1915L20.5273 73.4955ZM18.5091 77.0273L14.0815 69.7534L14.0815 69.7534L18.5091 77.0273ZM9.34318 76.8591L2.73423 82.2289L2.83228 82.3495L2.93466 82.4665L9.34318 76.8591ZM8.41818 72.9068L16.9159 73.4551L16.9161 73.4531L8.41818 72.9068ZM11.3614 48.2682L19.7564 49.6948L19.758 49.6858L11.3614 48.2682ZM16.9114 23.2932L8.7113 20.9972L8.71071 20.9993L16.9114 23.2932ZM19.2659 20.35L15.6048 12.6618L15.6048 12.6618L19.2659 20.35ZM28.5159 25.0591L20.4375 22.3663V22.3663L28.5159 25.0591ZM24.1432 42.8864L32.5004 44.5201L32.5027 44.5084L24.1432 42.8864ZM21.0318 64.2455L12.5514 63.4745L11.7746 72.019L20.3246 72.7315L21.0318 64.2455ZM44.8295 61.2182L49.2925 68.4704L49.3077 68.461L49.323 68.4515L44.8295 61.2182ZM47.1841 46.25L41.821 52.8644L41.8641 52.8993L41.9075 52.9336L47.1841 46.25ZM36.6727 43.475L36.2475 51.9798L36.315 51.9832L36.3826 51.9855L36.6727 43.475ZM34.3182 42.6341L27.9537 48.2914L27.9537 48.2915L34.3182 42.6341ZM34.6545 36.2432L27.5693 31.5197L27.5693 31.5197L34.6545 36.2432ZM38.3545 34.6455L38.1148 26.1334L38.1017 26.1338L38.0886 26.1342L38.3545 34.6455ZM49.1182 32.8796L46.4672 24.7873L46.4463 24.7941L46.4254 24.8011L49.1182 32.8796ZM56.7704 28.4227L62.881 34.3535L62.9239 34.3093L62.9662 34.2644L56.7704 28.4227ZM54.7523 13.9591L50.39 21.2723L50.4377 21.3008L50.4857 21.3286L54.7523 13.9591ZM22.6295 13.4546L24.8492 21.6756L24.8874 21.6653L24.9256 21.6546L22.6295 13.4546ZM8.33409 19.2568L12.6815 26.5789L12.6984 26.5689L12.7152 26.5588L8.33409 19.2568ZM1.43864 19.8455L-5.56268 24.6925L-5.34638 25.005L-5.10311 25.2969L1.43864 19.8455ZM1.52273 13.5386L-5.74334 9.09827L-5.83538 9.24889L-5.9211 9.40319L1.52273 13.5386ZM5.81136 10.0909L1.58652 2.69745L1.57659 2.70313L1.56666 2.70884L5.81136 10.0909ZM22.3773 3.7841L24.3562 12.0664L22.3773 3.7841ZM64.5068 6.64319L69.321 -0.380783H69.321L64.5068 6.64319ZM63.4755 20.1818C63.4755 22.7 62.6787 24.7071 60.8262 26.6214L73.0647 38.465C77.9394 33.4277 80.5063 27.1939 80.5063 20.1818H63.4755ZM60.8746 26.5718C58.9913 28.4864 55.7378 30.3725 50.2832 31.6532L54.1759 48.2332C61.6152 46.4866 68.1723 43.4393 73.0163 38.5145L60.8746 26.5718ZM49.9778 48.1555C52.2209 48.7706 53.1475 49.562 53.551 50.0538L66.7171 39.2508C63.5328 35.3699 59.1897 33.0219 54.4813 31.7309L49.9778 48.1555ZM53.6205 50.1374C54.1124 50.7215 54.3096 51.2422 54.3096 52.0523H71.3404C71.3404 47.2563 69.7436 42.8436 66.6476 39.1672L53.6205 50.1374ZM54.3096 52.0523C54.3096 54.5107 53.5957 56.3597 52.1708 58.0127L65.0701 69.1328C69.2512 64.2827 71.3404 58.4515 71.3404 52.0523H54.3096ZM52.1156 58.0773C50.6448 59.8183 48.105 61.6185 43.7931 63.071L49.2296 79.2108C55.5692 77.0754 61.1022 73.8302 65.1253 69.0682L52.1156 58.0773ZM43.8697 63.0456C39.6315 64.4286 34.1551 65.2323 27.2545 65.2323V82.2632C35.3782 82.2632 42.7397 81.329 49.153 79.2362L43.8697 63.0456ZM27.2545 65.2323C24.5767 65.2323 22.6524 65.1501 21.3746 65.0223L19.68 81.9686C21.7657 82.1772 24.3263 82.2632 27.2545 82.2632V65.2323ZM12.0173 73.1915C12.0306 72.8174 12.1383 72.1164 12.5872 71.3308C13.0439 70.5317 13.6377 70.0235 14.0815 69.7534L22.9367 84.3011C26.7891 81.9562 28.884 78.0917 29.0373 73.7994L12.0173 73.1915ZM14.0815 69.7534C14.2886 69.6273 14.4021 69.6091 14.3357 69.6249C14.2597 69.6429 14.0142 69.6891 13.5477 69.6891V86.72C16.6169 86.72 19.9355 86.1279 22.9367 84.3011L14.0815 69.7534ZM13.5477 69.6891C13.1166 69.6891 13.1935 69.6347 13.5782 69.7579C14.0079 69.8954 14.9098 70.2894 15.7517 71.2516L2.93466 82.4665C6.16686 86.1605 10.7061 86.72 13.5477 86.72V69.6891ZM15.9521 71.4893C16.5287 72.199 16.7669 72.8741 16.8567 73.2578C16.9389 73.6089 16.8992 73.7153 16.9159 73.4551L-0.0795885 72.3586C-0.261537 75.1788 0.107218 78.9956 2.73423 82.2289L15.9521 71.4893ZM16.9161 73.4531C17.3998 65.9287 18.3433 58.0108 19.7564 49.6948L2.96628 46.8416C1.46431 55.6801 0.445666 64.1879 -0.0797141 72.3605L16.9161 73.4531ZM19.758 49.6858C21.1682 41.3327 22.9543 33.3009 25.112 25.5871L8.71071 20.9993C6.38357 29.3188 4.46964 37.937 2.96475 46.8506L19.758 49.6858ZM25.1114 25.5892C25.0475 25.8174 24.8703 26.2927 24.4438 26.8258C24.0011 27.3791 23.4554 27.7866 22.927 28.0383L15.6048 12.6618C11.9336 14.41 9.68073 17.5349 8.7113 20.9972L25.1114 25.5892ZM22.927 28.0383C22.7163 28.1386 22.6538 28.1292 22.8284 28.0974C23.0027 28.0657 23.3435 28.0245 23.8909 28.0245V10.9937C21.2572 10.9937 18.329 11.3645 15.6048 12.6618L22.927 28.0383ZM23.8909 28.0245C24.3748 28.0245 24.581 28.0602 24.5796 28.06C24.571 28.0584 24.4761 28.0405 24.316 27.987C24.1561 27.9335 23.9024 27.8348 23.5923 27.6619C22.9451 27.3012 22.0696 26.6216 21.3916 25.488C20.7068 24.3428 20.505 23.2046 20.505 22.3682H37.5359C37.5359 20.5788 37.1204 18.6067 36.0081 16.7467C34.9027 14.8984 33.386 13.623 31.8839 12.7858C29.1372 11.2549 26.1127 10.9937 23.8909 10.9937V28.0245ZM20.505 22.3682C20.505 22.2609 20.5107 22.1806 20.5157 22.1305C20.5207 22.0805 20.5255 22.0563 20.5247 22.0603C20.524 22.0641 20.5187 22.0916 20.5047 22.1443C20.4908 22.1968 20.4694 22.2705 20.4375 22.3663L36.5944 27.7519C37.1244 26.1617 37.5359 24.3285 37.5359 22.3682H20.505ZM20.4375 22.3663C18.8121 27.2423 17.2722 33.5926 15.7836 41.2644L32.5027 44.5084C33.9293 37.156 35.3045 31.6213 36.5944 27.7519L20.4375 22.3663ZM15.7859 41.2526C14.2788 48.962 13.1971 56.3709 12.5514 63.4745L29.5123 65.0164C30.0998 58.5534 31.0924 51.7229 32.5004 44.5201L15.7859 41.2526ZM20.3246 72.7315C23.1286 72.9651 25.576 73.0973 27.5909 73.0973V56.0664C26.2422 56.0664 24.3169 55.9743 21.739 55.7594L20.3246 72.7315ZM27.5909 73.0973C35.8915 73.0973 43.5946 71.9768 49.2925 68.4704L40.3666 53.9659C38.7766 54.9444 34.9872 56.0664 27.5909 56.0664V73.0973ZM49.323 68.4515C54.8507 65.0177 58.895 59.6629 58.895 52.4727H41.8641C41.8641 52.6035 41.8483 52.6546 41.8476 52.6572C41.8472 52.6584 41.8419 52.6826 41.8022 52.7452C41.7191 52.8762 41.3744 53.3398 40.3361 53.9848L49.323 68.4515ZM58.895 52.4727C58.895 47.1149 56.4018 42.6778 52.4606 39.5664L41.9075 52.9336C42.0432 53.0407 42.0948 53.1011 42.0962 53.1028C42.097 53.1036 42.0866 53.0915 42.0692 53.0657C42.0518 53.0398 42.0295 53.0034 42.0056 52.9569C41.9551 52.8586 41.9146 52.7484 41.8894 52.641C41.8775 52.5902 41.8709 52.5483 41.8675 52.5175C41.864 52.4869 41.8641 52.4712 41.8641 52.4727H58.895ZM52.5471 39.6356C48.2459 36.1482 42.3818 35.1493 36.9628 34.9645L36.3826 51.9855C38.425 52.0551 39.8664 52.2747 40.827 52.5282C41.8059 52.7867 41.9916 53.0027 41.821 52.8644L52.5471 39.6356ZM37.098 34.9702C37.1011 34.9704 37.4965 34.9853 38.1072 35.2034C38.7495 35.4328 39.7588 35.9374 40.6827 36.9767L27.9537 48.2915C30.6638 51.3403 34.2802 51.8814 36.2475 51.9798L37.098 34.9702ZM40.6827 36.9768C41.5135 37.9115 41.8721 38.8365 42.0224 39.3815C42.0986 39.6577 42.1315 39.8706 42.1463 39.9978C42.1539 40.0634 42.1574 40.113 42.1591 40.1449C42.1609 40.1769 42.1609 40.1942 42.1609 40.1955H25.13C25.13 42.1187 25.4549 45.4804 27.9537 48.2914L40.6827 36.9768ZM42.1609 40.1955C42.1609 39.6908 42.2682 40.1742 41.7398 40.9667L27.5693 31.5197C25.6955 34.3304 25.13 37.4486 25.13 40.1955H42.1609ZM41.7398 40.9667C41.0676 41.9751 40.184 42.592 39.4599 42.9046C38.8232 43.1796 38.4555 43.1619 38.6205 43.1567L38.0886 26.1342C34.9318 26.2328 30.4043 27.2672 27.5693 31.5197L41.7398 40.9667ZM38.5943 43.1575C43.2616 43.026 47.6948 42.3301 51.811 40.958L46.4254 24.8011C44.1507 25.5593 41.4081 26.0406 38.1148 26.1334L38.5943 43.1575ZM51.7691 40.9718C55.9651 39.5973 59.8329 37.4939 62.881 34.3535L50.6599 22.4919C50.0079 23.1637 48.7743 24.0315 46.4672 24.7873L51.7691 40.9718ZM62.9662 34.2644C66.2308 30.8019 68.0609 26.4692 68.0609 21.6114H51.03C51.03 21.9111 51.0101 22.1193 50.5747 22.581L62.9662 34.2644ZM68.0609 21.6114C68.0609 14.8571 64.4159 9.71428 59.0188 6.58962L50.4857 21.3286C51.1514 21.714 51.2171 21.9181 51.1305 21.78C51.091 21.7169 51.0559 21.6372 51.036 21.5648C51.0173 21.497 51.03 21.5012 51.03 21.6114H68.0609ZM59.1145 6.64588C53.9305 3.55368 47.1545 2.58458 40.0364 2.58458V19.6154C46.1485 19.6154 49.1831 20.5524 50.39 21.2723L59.1145 6.64588ZM40.0364 2.58458C33.2855 2.58458 26.7095 3.46923 20.3335 5.2545L24.9256 21.6546C29.7617 20.3005 34.7903 19.6154 40.0364 19.6154V2.58458ZM20.4099 5.23351C14.2377 6.89999 8.70432 9.10408 3.95293 11.9549L12.7152 26.5588C15.8123 24.7005 19.8093 23.0364 24.8492 21.6756L20.4099 5.23351ZM3.98663 11.9348C3.72007 12.0931 3.5043 12.2075 3.3373 12.2881C3.16946 12.3692 3.06734 12.4082 3.02708 12.4224C2.98608 12.4368 3.0297 12.4182 3.14997 12.3949C3.2708 12.3715 3.49073 12.3391 3.79318 12.3391V29.37C7.27868 29.37 10.3757 27.948 12.6815 26.5789L3.98663 11.9348ZM3.79318 12.3391C4.23544 12.3391 4.96002 12.4145 5.80213 12.7754C6.67695 13.1503 7.42329 13.7255 7.98038 14.394L-5.10311 25.2969C-2.66811 28.2189 0.686956 29.37 3.79318 29.37V12.3391ZM8.43995 14.9984C9.10612 15.9606 9.19725 16.8434 9.19725 17.1546H-7.83362C-7.83362 19.596 -7.23794 22.2727 -5.56268 24.6925L8.43995 14.9984ZM9.19725 17.1546C9.19725 17.019 9.21096 17.0216 9.18615 17.1283C9.15975 17.2418 9.09758 17.4383 8.96656 17.6741L-5.9211 9.40319C-7.32029 11.9217 -7.83362 14.6139 -7.83362 17.1546H9.19725ZM8.78879 17.979C8.56404 18.3468 8.37254 18.556 8.31734 18.6142C8.2571 18.6778 8.26811 18.6569 8.39279 18.5566C8.65632 18.3448 9.17532 17.9794 10.0561 17.473L1.56666 2.70884C-0.771884 4.0535 -3.91061 6.09926 -5.74334 9.09827L8.78879 17.979ZM10.0362 17.4844C13.9184 15.266 18.6559 13.4284 24.3562 12.0664L20.3983 -4.49819C13.4289 -2.83294 7.12248 -0.46595 1.58652 2.69745L10.0362 17.4844ZM24.3562 12.0664C30.0327 10.7101 35.8431 10.0291 41.8023 10.0291V-7.00179C34.5311 -7.00179 27.3916 -6.16914 20.3983 -4.49819L24.3562 12.0664ZM41.8023 10.0291C51.2771 10.0291 56.7901 11.6778 59.6926 13.6672L69.321 -0.380783C62.2447 -5.23084 52.6214 -7.00179 41.8023 -7.00179V10.0291ZM59.6926 13.6672C62.5814 15.6471 63.4755 17.6362 63.4755 20.1818H80.5063C80.5063 11.5154 76.411 4.47868 69.321 -0.380783L59.6926 13.6672ZM108.822 56.2568L101.467 60.5475L101.595 60.768L101.737 60.9803L108.822 56.2568ZM107.897 64.2455L101.452 58.6796L101.385 58.7576L101.32 58.8373L107.897 64.2455ZM99.0675 71.225L94.9135 63.7915L94.89 63.8047L94.8665 63.818L99.0675 71.225ZM73.2516 69.6273L79.2203 63.5538L73.2516 69.6273ZM70.813 45.7455L78.4551 49.5018L78.4676 49.4765L78.4798 49.4511L70.813 45.7455ZM77.5402 37.7568L72.7854 30.6925L72.7535 30.714L72.7218 30.7357L77.5402 37.7568ZM95.1993 37.7568L89.178 43.7782L89.2216 43.8218L89.2659 43.8648L95.1993 37.7568ZM93.938 55.5841L87.9166 49.5628L93.938 55.5841ZM79.8948 62.1432L77.8625 53.8738L67.1408 56.5088L72.4129 66.2094L79.8948 62.1432ZM96.4607 63.4045L100.529 70.8852L100.552 70.8729L100.574 70.8605L96.4607 63.4045ZM104.87 56.425L98.4044 50.8832L98.3498 50.9469L98.2964 51.0117L104.87 56.425ZM80.6516 46.6705L73.3647 42.2644L73.3268 42.3271L73.2899 42.3904L80.6516 46.6705ZM78.5493 55.5841H70.0339V66.3566L80.5153 63.8695L78.5493 55.5841ZM86.3698 52.0523L80.9565 45.479L86.3698 52.0523ZM88.3039 44.0636L81.7621 49.5151L82.0094 49.8118L82.2826 50.085L88.3039 44.0636ZM107.14 63.7632C106.143 63.7632 104.917 63.5164 103.726 62.8019C102.562 62.1035 101.855 61.2126 101.467 60.5475L116.178 51.9662C114.387 48.8964 111.143 46.7323 107.14 46.7323V63.7632ZM101.737 60.9803C101.32 60.3551 101.133 59.7994 101.051 59.4614C100.971 59.1338 100.979 58.9667 100.979 59.0318H118.01C118.01 56.9011 117.623 54.1075 115.907 51.5333L101.737 60.9803ZM100.979 59.0318C100.979 59.4967 100.922 59.6246 100.954 59.522C100.971 59.4649 101.013 59.3481 101.096 59.1929C101.181 59.0356 101.298 58.8584 101.452 58.6796L114.342 69.8113C117.171 66.535 118.01 62.5495 118.01 59.0318H100.979ZM101.32 58.8373C100.105 60.3143 98.0928 62.0148 94.9135 63.7915L103.222 78.6585C107.666 76.1746 111.541 73.222 114.475 69.6537L101.32 58.8373ZM94.8665 63.818C92.3909 65.222 89.8019 65.905 86.9584 65.905V82.9359C92.7482 82.9359 98.232 81.4886 103.269 78.632L94.8665 63.818ZM86.9584 65.905C82.6274 65.905 80.4539 64.7661 79.2203 63.5538L67.2829 75.7007C72.5523 80.8793 79.5167 82.9359 86.9584 82.9359V65.905ZM79.2203 63.5538C77.9409 62.2965 76.8898 60.3055 76.8898 56.5091H59.8589C59.8589 63.8127 62.0592 70.5672 67.2829 75.7007L79.2203 63.5538ZM76.8898 56.5091C76.8898 53.877 77.4324 51.5824 78.4551 49.5018L63.1708 41.9891C60.942 46.5237 59.8589 51.4048 59.8589 56.5091H76.8898ZM78.4798 49.4511C79.5122 47.3151 80.8153 45.837 82.3586 44.7779L72.7218 30.7357C68.5469 33.6009 65.3652 37.4486 63.1461 42.0398L78.4798 49.4511ZM82.2951 44.8211C83.7508 43.8413 85.3625 43.3291 87.3789 43.3291V26.2982C82.1073 26.2982 77.16 27.7481 72.7854 30.6925L82.2951 44.8211ZM87.3789 43.3291C88.7903 43.3291 89.0861 43.6863 89.178 43.7782L101.221 31.7355C97.3883 27.9031 92.4705 26.2982 87.3789 26.2982V43.3291ZM89.2659 43.8648C89.3308 43.9279 89.3798 43.9888 89.437 44.1408C89.506 44.3242 89.6271 44.7603 89.6271 45.5773H106.658C106.658 40.4847 105.082 35.4856 101.133 31.6489L89.2659 43.8648ZM89.6271 45.5773C89.6271 47.1251 89.1671 48.3124 87.9166 49.5628L99.9593 61.6054C104.315 57.2498 106.658 51.7658 106.658 45.5773H89.6271ZM87.9166 49.5628C86.8173 50.6621 83.9586 52.3756 77.8625 53.8738L81.9271 70.4126C89.0612 68.6592 95.5647 66 99.9593 61.6054L87.9166 49.5628ZM72.4129 66.2094C75.8048 72.4506 82.0483 74.5268 87.8834 74.5268V57.4959C87.3618 57.4959 87.0157 57.4525 86.8125 57.4128C86.6133 57.3738 86.5794 57.3439 86.6542 57.3801C86.7378 57.4206 86.8889 57.5109 87.053 57.6671C87.2177 57.8238 87.3226 57.9775 87.3766 58.077L72.4129 66.2094ZM87.8834 74.5268C92.3173 74.5268 96.6011 73.0215 100.529 70.8852L92.3923 55.9239C89.9294 57.2633 88.495 57.4959 87.8834 57.4959V74.5268ZM100.574 70.8605C104.765 68.5485 108.403 65.5297 111.443 61.8383L98.2964 51.0117C96.6273 53.0385 94.6596 54.6727 92.3471 55.9486L100.574 70.8605ZM111.335 61.9668C111.108 62.2323 110.636 62.7002 109.862 63.1017C109.046 63.5245 108.104 63.7632 107.14 63.7632V46.7323C103.253 46.7323 100.291 48.6824 98.4044 50.8832L111.335 61.9668ZM85.9493 34.5391C79.8664 34.5391 75.7455 38.3269 73.3647 42.2644L87.9385 51.0765C88.2275 50.5986 88.2603 50.7253 87.8697 50.9919C87.6621 51.1336 87.3697 51.2896 87.0015 51.4052C86.6311 51.5215 86.2689 51.57 85.9493 51.57V34.5391ZM73.2899 42.3904C70.979 46.3652 70.0339 50.8313 70.0339 55.4159H87.0648C87.0648 53.1611 87.5212 51.7969 88.0133 50.9505L73.2899 42.3904ZM70.0339 55.4159V55.5841H87.0648V55.4159H70.0339ZM80.5153 63.8695C84.6379 62.8912 88.5692 61.2723 91.7831 58.6256L80.9565 45.479C80.3582 45.9716 79.076 46.7072 76.5833 47.2987L80.5153 63.8695ZM91.7831 58.6256C95.2388 55.7797 97.7443 51.6974 97.7443 46.5864H80.7134C80.7134 46.4466 80.7303 46.269 80.7786 46.0715C80.827 45.8736 80.8961 45.7002 80.9686 45.5616C81.1148 45.2822 81.2032 45.2757 80.9565 45.479L91.7831 58.6256ZM97.7443 46.5864C97.7443 43.7949 96.8794 40.5965 94.3252 38.0423L82.2826 50.085C81.6925 49.4949 81.2624 48.7966 81.0027 48.0883C80.7542 47.4108 80.7134 46.8693 80.7134 46.5864H97.7443ZM94.8456 38.6122C92.4106 35.6902 89.0555 34.5391 85.9493 34.5391V51.57C85.5071 51.57 84.7825 51.4946 83.9404 51.1337C83.0656 50.7588 82.3192 50.1836 81.7621 49.5151L94.8456 38.6122ZM168.155 56.2568L160.799 60.5475L160.928 60.768L161.069 60.9803L168.155 56.2568ZM167.23 64.2455L160.785 58.6796L160.699 58.7787L160.617 58.8804L167.23 64.2455ZM159.325 71.5614L164.049 78.6466L159.325 71.5614ZM135.191 65.8432L142.896 62.2173L136.213 48.015L127.951 61.361L135.191 65.8432ZM129.389 71.8977L134.261 78.8815V78.8815L129.389 71.8977ZM109.88 67.9455L102.463 72.1293L102.495 72.1859L102.528 72.2421L109.88 67.9455ZM106.6 41.1205L115.086 41.8276L115.855 32.605H106.6V41.1205ZM99.7048 40.1955L93.4038 45.9236L93.5402 46.0735L93.6834 46.2168L99.7048 40.1955ZM107.777 32.5432V41.0586H114.902L116.159 34.0456L107.777 32.5432ZM112.234 16.3977L104.315 13.267L112.234 16.3977ZM133.425 3.70002L140.569 -0.93401V-0.934013L133.425 3.70002ZM126.277 32.5432L120.256 26.5219L105.719 41.0586H126.277V32.5432ZM133.93 32.5432V41.0586H141.055L142.312 34.0456L133.93 32.5432ZM138.387 16.3977L130.468 13.267L138.387 16.3977ZM145.282 4.87729L139.081 -0.958893L139.081 -0.958889L145.282 4.87729ZM152.43 32.5432L146.408 26.5219L131.872 41.0586H152.43V32.5432ZM162.016 33.1318L155.995 39.1531L155.995 39.1532L162.016 33.1318ZM142.927 41.1205V32.605H134.928L134.429 40.5893L142.927 41.1205ZM144.693 61.6386L137.3 65.8635L137.337 65.9291L137.376 65.9941L144.693 61.6386ZM157.643 62.9841L152.373 56.2953L157.643 62.9841ZM164.202 56.425L170.642 61.9973L170.655 61.9821L170.668 61.9668L164.202 56.425ZM122.746 11.8568L115.129 8.04861L115.109 8.09L115.088 8.13162L122.746 11.8568ZM119.802 20.6023L111.549 18.508L111.537 18.552L111.527 18.596L119.802 20.6023ZM117.532 32.9636L109.094 31.8177L106.064 54.1329L123.101 39.4059L117.532 32.9636ZM124.932 23.3773L117.222 19.763L117.209 19.7898L117.197 19.8166L124.932 23.3773ZM148.898 11.8568L141.281 8.04861L141.261 8.09L141.241 8.13162L148.898 11.8568ZM145.955 20.6023L137.701 18.508L137.69 18.552L137.679 18.5961L145.955 20.6023ZM143.684 32.9636L135.246 31.8177L132.216 54.1329L149.253 39.4059L143.684 32.9636ZM151.084 23.3773L143.374 19.763L143.361 19.7898L143.349 19.8166L151.084 23.3773ZM128.464 62.8159L134.274 69.0412V69.0412L128.464 62.8159ZM132.752 57.0136L140.332 60.8956L141.604 58.4123L141.159 55.6577L132.752 57.0136ZM132.752 41.1205L141.238 41.8276L142.007 32.605H132.752V41.1205ZM116.775 41.1205V32.605H108.775L108.276 40.5893L116.775 41.1205ZM118.289 61.5546L110.604 65.2224L110.654 65.3285L110.708 65.4331L118.289 61.5546ZM166.473 63.7632C165.476 63.7632 164.25 63.5164 163.059 62.8019C161.895 62.1035 161.187 61.2126 160.799 60.5475L175.51 51.9662C173.72 48.8964 170.476 46.7323 166.473 46.7323V63.7632ZM161.069 60.9803C160.653 60.3551 160.466 59.7994 160.384 59.4614C160.304 59.1338 160.312 58.9667 160.312 59.0318H177.343C177.343 56.9011 176.956 54.1075 175.24 51.5333L161.069 60.9803ZM160.312 59.0318C160.312 59.4967 160.255 59.6246 160.286 59.522C160.304 59.4649 160.345 59.3481 160.429 59.1929C160.514 59.0356 160.631 58.8584 160.785 58.6796L173.674 69.8113C176.504 66.535 177.343 62.5495 177.343 59.0318H160.312ZM160.617 58.8804C158.686 61.261 156.672 63.0957 154.602 64.4761L164.049 78.6466C167.696 76.215 170.953 73.1723 173.842 69.6105L160.617 58.8804ZM154.602 64.4761C153.25 65.3773 151.641 65.905 149.487 65.905V82.9359C154.732 82.9359 159.682 81.5575 164.049 78.6466L154.602 64.4761ZM149.487 65.905C147.255 65.905 145.949 65.4451 145.164 64.9742C144.422 64.5288 143.624 63.765 142.896 62.2173L127.486 69.469C129.449 73.6395 132.379 77.1644 136.402 79.5781C140.382 81.9663 144.878 82.9359 149.487 82.9359V65.905ZM127.951 61.361C127.141 62.6693 126.035 63.8546 124.516 64.914L134.261 78.8815C137.564 76.5772 140.326 73.7261 142.431 70.3253L127.951 61.361ZM124.516 64.914C123.429 65.6724 122.532 65.905 121.652 65.905V82.9359C126.266 82.9359 130.527 81.4867 134.261 78.8815L124.516 64.914ZM121.652 65.905C119.112 65.905 118.11 65.1513 117.232 63.6488L102.528 72.2421C106.695 79.373 113.541 82.9359 121.652 82.9359V65.905ZM117.297 63.7616C115.812 61.1303 114.695 56.8667 114.695 50.2864H97.6643C97.6643 58.506 99.014 66.0152 102.463 72.1293L117.297 63.7616ZM114.695 50.2864C114.695 47.8214 114.821 45.0069 115.086 41.8276L98.1142 40.4133C97.8185 43.9613 97.6643 47.2573 97.6643 50.2864H114.695ZM106.6 32.605H103.152V49.6359H106.6V32.605ZM103.152 32.605C102.776 32.605 102.862 32.5645 103.236 32.6646C103.6 32.7623 104.662 33.1098 105.726 34.1741L93.6834 46.2168C96.85 49.3833 101.065 49.6359 103.152 49.6359V32.605ZM106.006 34.4674C106.782 35.3216 107.121 36.1663 107.262 36.6578C107.396 37.1256 107.379 37.3696 107.379 37.2523H90.3484C90.3484 39.4855 90.7642 43.02 93.4038 45.9236L106.006 34.4674ZM107.379 37.2523C107.379 36.5991 107.547 37.6862 106.448 39.0545C105.852 39.7955 105.078 40.3617 104.255 40.7031C103.484 41.0228 102.885 41.0586 102.648 41.0586V24.0278C99.5203 24.0278 95.8188 25.0927 93.172 28.3865C90.8111 31.3244 90.3484 34.7661 90.3484 37.2523H107.379ZM102.648 41.0586H107.777V24.0278H102.648V41.0586ZM116.159 34.0456C117.141 28.5715 118.486 23.7462 120.153 19.5285L104.315 13.267C102.171 18.6917 100.545 24.63 99.3956 31.0408L116.159 34.0456ZM120.153 19.5285C121.783 15.4057 123.574 12.5803 125.331 10.7135L112.929 -0.958893C109.304 2.89241 106.497 7.74731 104.315 13.267L120.153 19.5285ZM125.331 10.7135C126.842 9.1072 127.645 9.10409 127.875 9.10409V-7.92678C121.826 -7.92678 116.799 -5.07081 112.929 -0.958893L125.331 10.7135ZM127.875 9.10409C127.758 9.10409 127.347 9.06508 126.865 8.79434C126.399 8.53323 126.235 8.2636 126.281 8.33404L140.569 -0.934013C137.748 -5.28324 133.284 -7.92678 127.875 -7.92678V9.10409ZM126.281 8.33404C126.518 8.70001 126.928 9.58483 126.928 11.5205H143.959C143.959 7.17732 143.023 2.8485 140.569 -0.93401L126.281 8.33404ZM126.928 11.5205C126.928 16.9449 124.934 21.8443 120.256 26.5219L132.299 38.5645C139.842 31.0209 143.959 21.9051 143.959 11.5205H126.928ZM126.277 41.0586H133.93V24.0278H126.277V41.0586ZM142.312 34.0456C143.293 28.5715 144.638 23.7462 146.306 19.5285L130.468 13.267C128.323 18.6917 126.697 24.63 125.548 31.0408L142.312 34.0456ZM146.306 19.5285C147.936 15.4057 149.726 12.5803 151.483 10.7135L139.081 -0.958889C135.456 2.89242 132.65 7.74731 130.468 13.267L146.306 19.5285ZM151.483 10.7135C152.995 9.1072 153.797 9.10409 154.027 9.10409V-7.92678C147.979 -7.92678 142.951 -5.07081 139.081 -0.958893L151.483 10.7135ZM154.027 9.10409C153.911 9.10409 153.5 9.06508 153.017 8.79434C152.551 8.53323 152.388 8.2636 152.433 8.33404L166.722 -0.93401C163.9 -5.28323 159.436 -7.92678 154.027 -7.92678V9.10409ZM152.433 8.33404C152.671 8.70001 153.08 9.58483 153.08 11.5205H170.111C170.111 7.17732 169.175 2.8485 166.722 -0.93401L152.433 8.33404ZM153.08 11.5205C153.08 16.9449 151.086 21.8443 146.408 26.5219L158.451 38.5645C165.995 31.0209 170.111 21.9051 170.111 11.5205H153.08ZM152.43 41.0586H160.082V24.0278H152.43V41.0586ZM160.082 41.0586C159.95 41.0586 159.456 41.049 158.759 40.8368C158.028 40.6144 156.977 40.1357 155.995 39.1531L168.037 27.1105C165.303 24.3764 161.904 24.0278 160.082 24.0278V41.0586ZM155.995 39.1532C154.824 37.9821 154.391 36.7646 154.235 36.1865C154.077 35.6009 154.089 35.2529 154.089 35.3182H171.12C171.12 33.8333 170.975 30.0476 168.037 27.1105L155.995 39.1532ZM154.089 35.3182C154.089 35.1033 154.141 34.5005 154.537 33.7765C154.941 33.0364 155.469 32.5991 155.791 32.4022C156.057 32.2399 156.061 32.3117 155.561 32.4135C155.072 32.513 154.279 32.605 153.102 32.605V49.6359C156.859 49.6359 161.106 49.1121 164.667 46.9375C168.911 44.346 171.12 40.0671 171.12 35.3182H154.089ZM153.102 32.605H142.927V49.6359H153.102V32.605ZM134.429 40.5893C134.249 43.4639 134.16 46.3881 134.16 49.3614H151.191C151.191 46.7286 151.27 44.1589 151.426 41.6516L134.429 40.5893ZM134.16 49.3614C134.16 55.3336 134.759 61.4173 137.3 65.8635L152.087 57.4138C152.11 57.4544 151.832 56.9414 151.582 55.4221C151.344 53.9743 151.191 51.9839 151.191 49.3614H134.16ZM137.376 65.9941C140.464 71.181 145.586 73.6859 151.252 73.6859V56.655C150.9 56.655 151.052 56.5908 151.421 56.7899C151.595 56.8831 151.747 56.999 151.865 57.1153C151.98 57.2279 152.021 57.3005 152.011 57.2831L137.376 65.9941ZM151.252 73.6859C155.526 73.6859 159.524 72.3435 162.913 69.6729L152.373 56.2953C152.063 56.5399 151.8 56.655 151.252 56.655V73.6859ZM162.913 69.6729C165.369 67.7382 167.958 65.0983 170.642 61.9973L157.763 50.8527C155.401 53.582 153.618 55.3148 152.373 56.2953L162.913 69.6729ZM170.668 61.9668C170.44 62.2323 169.969 62.7002 169.194 63.1017C168.379 63.5245 167.436 63.7632 166.473 63.7632V46.7323C162.586 46.7323 159.624 48.6824 157.737 50.8832L170.668 61.9668ZM125.605 0.145943C121.515 0.145943 118.927 2.64883 117.913 3.78219C116.708 5.12871 115.808 6.69205 115.129 8.04861L130.362 15.6651C130.749 14.8913 130.857 14.8569 130.605 15.1383C130.463 15.2971 130.041 15.7435 129.301 16.1831C128.523 16.6446 127.253 17.1768 125.605 17.1768V0.145943ZM115.088 8.13162C113.712 10.9607 112.562 14.5135 111.549 18.508L128.056 22.6966C128.949 19.179 129.761 16.9014 130.403 15.582L115.088 8.13162ZM111.527 18.596C110.549 22.63 109.742 27.0435 109.094 31.8177L125.97 34.1095C126.555 29.8019 127.262 25.9746 128.078 22.6085L111.527 18.596ZM123.101 39.4059C127.213 35.8511 130.473 31.7039 132.667 26.938L117.197 19.8166C116.139 22.1143 114.466 24.358 111.963 26.5214L123.101 39.4059ZM132.642 26.9915C134.674 22.6568 135.97 18.1514 135.97 13.6227H118.939C118.939 14.9244 118.553 16.922 117.222 19.763L132.642 26.9915ZM135.97 13.6227C135.97 11.681 135.822 9.20734 134.971 6.92657C134.525 5.73136 133.693 4.05688 132.089 2.62289C130.307 1.02996 128.021 0.145943 125.605 0.145943V17.1768C123.805 17.1768 122.058 16.4995 120.739 15.32C119.597 14.2995 119.151 13.2452 119.013 12.8769C118.78 12.2499 118.939 12.2569 118.939 13.6227H135.97ZM151.757 0.145943C147.667 0.145943 145.08 2.64883 144.066 3.78219C142.861 5.12871 141.96 6.69205 141.281 8.04861L156.514 15.6651C156.901 14.8913 157.009 14.8569 156.758 15.1383C156.616 15.2971 156.193 15.7435 155.453 16.1831C154.676 16.6446 153.405 17.1768 151.757 17.1768V0.145943ZM141.241 8.13162C139.864 10.9607 138.714 14.5135 137.701 18.508L154.209 22.6966C155.101 19.179 155.913 16.9014 156.555 15.582L141.241 8.13162ZM137.679 18.5961C136.701 22.63 135.895 27.0435 135.246 31.8177L152.122 34.1095C152.707 29.8019 153.414 25.9746 154.23 22.6085L137.679 18.5961ZM149.253 39.4059C153.365 35.8511 156.626 31.7039 158.82 26.938L143.349 19.8166C142.291 22.1143 140.618 24.358 138.116 26.5214L149.253 39.4059ZM158.795 26.9915C160.827 22.6568 162.122 18.1514 162.122 13.6227H145.092C145.092 14.9244 144.706 16.922 143.374 19.763L158.795 26.9915ZM162.122 13.6227C162.122 11.681 161.974 9.20734 161.123 6.92657C160.678 5.73136 159.846 4.05688 158.242 2.62289C156.46 1.02996 154.173 0.145943 151.757 0.145943V17.1768C149.958 17.1768 148.211 16.4995 146.891 15.32C145.75 14.2995 145.303 13.2452 145.166 12.8769C144.932 12.2499 145.092 12.2569 145.092 13.6227H162.122ZM123.418 73.6859C127.945 73.6859 131.603 71.5341 134.274 69.0412L122.654 56.5907C122.316 56.9056 122.204 56.9289 122.34 56.8653C122.414 56.8307 122.551 56.7759 122.745 56.7306C122.942 56.6847 123.17 56.655 123.418 56.655V73.6859ZM134.274 69.0412C136.759 66.7215 138.759 63.9651 140.332 60.8956L125.173 53.1317C124.391 54.6592 123.532 55.7709 122.654 56.5907L134.274 69.0412ZM141.159 55.6577C140.98 54.5438 140.847 52.8008 140.847 50.2864H123.817C123.817 53.2659 123.965 56.0077 124.346 58.3696L141.159 55.6577ZM140.847 50.2864C140.847 47.8214 140.974 45.0069 141.238 41.8276L124.266 40.4133C123.971 43.9613 123.817 47.2573 123.817 50.2864H140.847ZM132.752 32.605H116.775V49.6359H132.752V32.605ZM108.276 40.5893C108.097 43.4638 108.007 46.3881 108.007 49.3614H125.038C125.038 46.7286 125.117 44.1589 125.274 41.6516L108.276 40.5893ZM108.007 49.3614C108.007 55.2164 108.554 60.9271 110.604 65.2224L125.974 57.8867C125.669 57.2487 125.038 54.8306 125.038 49.3614H108.007ZM110.708 65.4331C112.982 69.8784 117.216 73.6859 123.418 73.6859V56.655C123.663 56.655 124 56.6904 124.385 56.8094C124.773 56.9295 125.119 57.1067 125.402 57.3065C125.959 57.6986 126.037 58.0032 125.87 57.676L110.708 65.4331ZM206.757 56.5091L199.259 60.5463L199.449 60.8991L199.672 61.2326L206.757 56.5091ZM206.841 62.1432L214.339 66.1804L214.339 66.1803L206.841 62.1432ZM204.991 64.0773L200.268 56.992L200.255 57.0005L200.242 57.009L204.991 64.0773ZM188.846 74.925L184.097 67.8568L181.118 69.858L180.47 73.3875L188.846 74.925ZM180.437 102.255L172.898 98.2938L172.878 98.3318L172.859 98.3701L180.437 102.255ZM160.339 109.57L166.36 103.549L166.312 103.501L166.264 103.454L160.339 109.57ZM159.414 94.6023L151.646 91.1144L151.616 91.1809L151.587 91.2479L159.414 94.6023ZM166.141 85.1L159.926 79.2792L159.878 79.3301L159.831 79.3817L166.141 85.1ZM180.1 72.9068L185.28 79.6657L188.087 77.5147L188.544 74.0082L180.1 72.9068ZM180.353 70.9727L171.986 69.3898L171.94 69.6295L171.909 69.8714L180.353 70.9727ZM181.698 62.0591L190.142 63.1605L173.493 59.78L181.698 62.0591ZM176.989 71.3091L183.092 77.2474L183.132 77.2067L183.171 77.1655L176.989 71.3091ZM164.375 70.9727L157.29 75.6962L157.355 75.7941L157.423 75.8901L164.375 70.9727ZM162.862 50.7068L171.268 52.0628L171.27 52.0523L171.272 52.0418L162.862 50.7068ZM165.637 39.5227L157.558 36.8299L157.552 36.8473L157.547 36.8646L165.637 39.5227ZM167.991 35.9068L172.977 42.8101V42.8101L167.991 35.9068ZM175.307 35.4023L169.7 41.8108L169.885 41.9729L170.079 42.124L175.307 35.4023ZM175.139 41.7091L183.359 43.9309L183.392 43.8107L183.421 43.6896L175.139 41.7091ZM173.793 47.3432L165.443 45.6732L165.439 45.6928L165.436 45.7124L173.793 47.3432ZM172.616 53.9864L181.022 55.3494L181.025 55.332L181.027 55.3145L172.616 53.9864ZM176.989 59.7886L170.231 54.6076L170.176 54.6797L170.122 54.7529L176.989 59.7886ZM181.025 52.1364L173.192 48.7975L173.168 48.8521L173.146 48.9071L181.025 52.1364ZM185.23 39.5227L193.452 41.7398L193.455 41.7283L193.458 41.7169L185.23 39.5227ZM187.248 35.9068L182.075 29.1425L181.976 29.2188L181.878 29.2979L187.248 35.9068ZM194.143 35.3182L189.42 42.4035L189.42 42.4035L194.143 35.3182ZM192.714 51.4636L184.329 49.9805L184.318 50.0432L184.307 50.1061L192.714 51.4636ZM190.528 65.0023L182.121 63.6447L178.747 84.5367L195.651 71.804L190.528 65.0023ZM203.141 56.0886L198.678 48.8364L198.569 48.9033L198.463 48.9735L203.141 56.0886ZM178.166 82.9977L186.466 84.9035L192.178 60.0254L172.673 76.4908L178.166 82.9977ZM168.748 92.9205L161.642 88.2279L161.591 88.3051L161.542 88.3833L168.748 92.9205ZM166.393 103.18L158.918 107.257L159.055 107.509L159.209 107.751L166.393 103.18ZM205.075 63.9314C203.947 63.9314 202.626 63.6251 201.401 62.8289C200.232 62.0686 199.581 61.144 199.259 60.5463L214.255 52.4719C212.622 49.4407 209.423 46.9005 205.075 46.9005V63.9314ZM199.672 61.2326C198.934 60.1255 198.914 59.2067 198.914 59.1159H215.945C215.945 56.8948 215.477 54.2381 213.842 51.7856L199.672 61.2326ZM198.914 59.1159C198.914 59.346 198.895 59.3602 198.924 59.2144C198.952 59.0712 199.048 58.6546 199.344 58.106L214.339 66.1803C215.671 63.7065 215.945 61.1017 215.945 59.1159H198.914ZM199.344 58.106C199.743 57.364 200.202 57.0359 200.268 56.992L209.715 71.1625C211.462 69.9974 213.154 68.3799 214.339 66.1804L199.344 58.106ZM200.242 57.009L184.097 67.8568L193.595 81.9932L209.74 71.1455L200.242 57.009ZM180.47 73.3875C178.416 84.5758 175.812 92.7478 172.898 98.2938L187.975 106.215C192.012 98.531 195.014 88.4833 197.221 76.4625L180.47 73.3875ZM172.859 98.3701C170.219 103.52 168.196 103.746 167.318 103.746V120.777C177.093 120.777 183.815 114.332 188.014 106.139L172.859 98.3701ZM167.318 103.746C166.785 103.746 166.546 103.664 166.493 103.643C166.462 103.631 166.448 103.623 166.44 103.618C166.432 103.613 166.406 103.595 166.36 103.549L154.318 115.592C157.917 119.191 162.514 120.777 167.318 120.777V103.746ZM166.264 103.454C166.238 103.429 166.237 103.424 166.247 103.438C166.257 103.453 166.259 103.46 166.253 103.447C166.246 103.428 166.163 103.211 166.163 102.675H149.133C149.133 107.475 150.72 112.108 154.414 115.687L166.264 103.454ZM166.163 102.675C166.163 101.338 166.457 99.7855 167.241 97.9567L151.587 91.2479C150.016 94.9129 149.133 98.742 149.133 102.675H166.163ZM167.182 98.0901C167.896 96.5005 169.482 94.0949 172.451 90.8183L159.831 79.3817C156.298 83.2809 153.398 87.2101 151.646 91.1144L167.182 98.0901ZM172.357 90.9208C175.22 87.8632 179.471 84.1177 185.28 79.6657L174.921 66.1479C168.733 70.8899 163.677 75.2732 159.926 79.2792L172.357 90.9208ZM188.544 74.0082L188.796 72.0741L171.909 69.8714L171.656 71.8054L188.544 74.0082ZM188.72 72.5557C189.158 70.2407 189.631 67.0795 190.142 63.1605L173.254 60.9577C172.756 64.775 172.332 67.5563 171.986 69.3898L188.72 72.5557ZM173.493 59.78C172.595 63.0133 171.548 64.6707 170.807 65.4526L183.171 77.1655C186.466 73.6869 188.558 69.1776 189.903 64.3382L173.493 59.78ZM170.886 65.3708C170.416 65.8533 170.158 65.9823 170.15 65.9863C170.15 65.9866 170.199 65.9628 170.294 65.9404C170.39 65.9177 170.495 65.905 170.598 65.905V82.9359C175.757 82.9359 179.96 80.4668 183.092 77.2474L170.886 65.3708ZM170.598 65.905C170.619 65.905 170.712 65.908 170.855 65.9438C171.001 65.9802 171.147 66.0381 171.277 66.1099C171.551 66.2616 171.538 66.3531 171.327 66.0554L157.423 75.8901C160.43 80.141 164.959 82.9359 170.598 82.9359V65.905ZM171.461 66.2492C171.017 65.5838 170.536 64.4085 170.536 62.2273H153.505C153.505 66.9976 154.594 71.6526 157.29 75.6962L171.461 66.2492ZM170.536 62.2273C170.536 58.3925 170.792 55.0139 171.268 52.0628L154.455 49.3509C153.81 53.3512 153.505 57.6529 153.505 62.2273H170.536ZM171.272 52.0418C171.751 49.0214 172.558 45.738 173.727 42.1809L157.547 36.8646C156.137 41.156 155.093 45.3286 154.451 49.3719L171.272 52.0418ZM173.715 42.2156C173.817 41.9106 173.865 41.8766 173.782 42.004C173.69 42.1448 173.443 42.4735 172.977 42.8101L163.005 29.0035C160.053 31.136 158.452 34.1482 157.558 36.8299L173.715 42.2156ZM172.977 42.8101C172.638 43.0551 172.345 43.2003 172.151 43.2814C171.96 43.3618 171.845 43.3879 171.84 43.3892C171.833 43.3906 171.905 43.3742 172.071 43.3582C172.236 43.3423 172.471 43.3291 172.784 43.3291V26.2982C170.007 26.2982 166.204 26.6937 163.005 29.0035L172.977 42.8101ZM172.784 43.3291C173.002 43.3291 172.825 43.3515 172.405 43.2535C172.035 43.167 170.893 42.8546 169.7 41.8108L180.915 28.9938C177.934 26.3861 174.233 26.2982 172.784 26.2982V43.3291ZM170.079 42.124C169.192 41.4339 168.488 40.5197 168.048 39.4925C167.629 38.5165 167.548 37.6757 167.548 37.1682H184.579C184.579 34.4193 183.587 31.0542 180.535 28.6806L170.079 42.124ZM167.548 37.1682C167.548 36.794 167.577 36.5301 167.583 36.4733C167.593 36.3856 167.599 36.3485 167.594 36.3824C167.583 36.4522 167.552 36.6266 167.489 36.9401C167.362 37.5599 167.156 38.4768 166.857 39.7286L183.421 43.6896C183.738 42.3626 183.995 41.2333 184.177 40.3395C184.284 39.8124 184.579 38.4215 184.579 37.1682H167.548ZM166.918 39.4873C166.32 41.7007 165.825 43.7668 165.443 45.6732L182.144 49.0132C182.435 47.556 182.836 45.8659 183.359 43.9309L166.918 39.4873ZM165.436 45.7124C164.969 48.103 164.559 50.4186 164.205 52.6583L181.027 55.3145C181.346 53.2935 181.721 51.1803 182.151 48.974L165.436 45.7124ZM164.211 52.6233C163.837 54.9278 163.596 57.1348 163.596 59.1159H180.627C180.627 58.4062 180.723 57.1934 181.022 55.3494L164.211 52.6233ZM163.596 59.1159C163.596 60.6864 163.765 63.2155 165.1 65.6313C165.839 66.9678 166.994 68.37 168.707 69.4033C170.434 70.4454 172.257 70.8268 173.878 70.8268V53.7959C174.909 53.7959 176.217 54.0441 177.503 54.82C178.775 55.587 179.562 56.5898 180.006 57.3937C180.753 58.7444 180.627 59.6757 180.627 59.1159H163.596ZM173.878 70.8268C177.108 70.8268 179.45 69.2675 180.649 68.2951C181.959 67.2333 183.02 65.9638 183.856 64.8244L170.122 54.7529C169.724 55.2953 169.651 55.2871 169.923 55.0663C170.078 54.9407 170.459 54.6533 171.065 54.3818C171.686 54.1037 172.652 53.7959 173.878 53.7959V70.8268ZM183.747 64.9697C185.712 62.4059 187.396 59.0479 188.905 55.3656L173.146 48.9071C171.852 52.0643 170.844 53.8078 170.231 54.6076L183.747 64.9697ZM188.859 55.4753C190.518 51.5815 192.039 46.9762 193.452 41.7398L177.008 37.3056C175.729 42.0481 174.447 45.8519 173.192 48.7975L188.859 55.4753ZM193.458 41.7169C193.545 41.3897 193.59 41.3578 193.506 41.5075C193.416 41.6688 193.153 42.0805 192.618 42.5158L181.878 29.2979C179.042 31.6026 177.692 34.7412 177.002 37.3286L193.458 41.7169ZM192.421 42.6711C191.83 43.1231 191.332 43.2828 191.157 43.3284C190.996 43.3702 191.061 43.3291 191.453 43.3291V26.2982C188.688 26.2982 185.126 26.8096 182.075 29.1425L192.421 42.6711ZM191.453 43.3291C191.768 43.3291 191.755 43.3529 191.523 43.3094C191.396 43.2855 191.143 43.2303 190.807 43.1095C190.475 42.99 189.98 42.7767 189.42 42.4035L198.867 28.2329C196.085 26.3786 192.906 26.2982 191.453 26.2982V43.3291ZM189.42 42.4035C188.322 41.6714 187.466 40.6427 186.946 39.4854C186.461 38.4077 186.385 37.4911 186.385 37H203.416C203.416 34.3065 202.427 30.6065 198.867 28.2329L189.42 42.4035ZM186.385 37C186.385 36.9324 186.325 37.8076 185.934 40.3943C185.585 42.7025 185.052 45.8883 184.329 49.9805L201.099 52.9468C201.833 48.7981 202.394 45.4529 202.773 42.9398C203.111 40.7053 203.416 38.4691 203.416 37H186.385ZM184.307 50.1061L182.121 63.6447L198.934 66.3598L201.12 52.8212L184.307 50.1061ZM195.651 71.804C199.837 68.6507 203.893 65.7854 207.82 63.2038L198.463 48.9735C194.204 51.7737 189.851 54.8509 185.404 58.2005L195.651 71.804ZM207.604 63.3409C207.569 63.3622 207.353 63.4931 206.969 63.6269C206.581 63.7619 205.929 63.9314 205.075 63.9314V46.9005C202.316 46.9005 200.096 47.964 198.678 48.8364L207.604 63.3409ZM168.243 112.62C172.333 112.62 175.156 110.293 176.598 108.8C178.164 107.178 179.425 105.183 180.463 103.241L165.442 95.2133C165.115 95.8252 164.844 96.271 164.633 96.5816C164.416 96.9014 164.315 97.0023 164.346 96.9704C164.364 96.9516 164.652 96.6505 165.239 96.3294C165.861 95.989 166.896 95.5891 168.243 95.5891V112.62ZM180.463 103.241C182.766 98.9311 184.702 92.5825 186.466 84.9035L169.867 81.0919C168.154 88.5494 166.615 93.0204 165.442 95.2133L180.463 103.241ZM172.673 76.4908C168.054 80.3905 164.235 84.3009 161.642 88.2279L175.854 97.613C177.185 95.5975 179.645 92.8929 183.659 89.5047L172.673 76.4908ZM161.542 88.3833C159.244 92.0331 157.373 96.2859 157.373 100.825H174.404C174.404 100.903 174.39 100.675 174.611 100.063C174.832 99.4523 175.242 98.589 175.954 97.4576L161.542 88.3833ZM157.373 100.825C157.373 102.717 157.699 105.023 158.918 107.257L173.869 99.1019C174.145 99.6072 174.278 100.047 174.341 100.344C174.404 100.635 174.404 100.81 174.404 100.825H157.373ZM159.209 107.751C161.422 111.229 165.006 112.62 168.243 112.62V95.5891C168.859 95.5891 169.853 95.704 170.958 96.2569C172.115 96.8349 172.997 97.6956 173.578 98.6078L159.209 107.751ZM213.275 73.075L207.074 78.9112L207.163 79.0051L207.254 79.0963L213.275 73.075ZM212.435 61.1341L204.005 59.9298L203.994 60.0038L203.985 60.0779L212.435 61.1341ZM214.285 49.8659L222.67 51.3458L222.678 51.3015L222.686 51.2572L214.285 49.8659ZM217.732 26.9932L226.176 28.0946L226.179 28.072L226.182 28.0494L217.732 26.9932ZM210.416 15.3886L215.402 22.2919L215.419 22.2797L215.436 22.2673L210.416 15.3886ZM203.689 22.4523L196.905 17.3057L196.869 17.3531L196.834 17.4009L203.689 22.4523ZM198.98 22.9568L192.051 27.9063L192.254 28.1906L192.479 28.4573L198.98 22.9568ZM198.644 17.6591L190.77 14.4169L190.718 14.5422L190.67 14.6691L198.644 17.6591ZM200.494 14.4636L193.571 9.50438L193.564 9.51415L200.494 14.4636ZM209.491 5.80228L213.927 13.0714L213.971 13.0442L214.015 13.0165L209.491 5.80228ZM226.478 5.63411L219.921 11.0671L219.966 11.1219L220.012 11.1759L226.478 5.63411ZM228.58 19.5932L237.014 20.7647L237.017 20.7491L237.019 20.7336L228.58 19.5932ZM227.823 24.5546L236.213 26.0136V26.0136L227.823 24.5546ZM227.319 27.2455L219.006 25.3982L235.357 30.0563L227.319 27.2455ZM238.082 8.15683L243.784 14.4819L243.808 14.4599L243.832 14.4377L238.082 8.15683ZM259.778 6.5591L253.142 11.8962L253.177 11.9396L253.213 11.9824L259.778 6.5591ZM262.216 24.3864L253.841 22.848L270.222 27.2871L262.216 24.3864ZM272.055 7.73637L266.374 1.3928L266.374 1.3928L272.055 7.73637ZM294.003 6.47501L287.425 11.8832L287.461 11.9263L287.497 11.969L294.003 6.47501ZM296.105 26.0682L304.433 27.8445L304.439 27.8168L304.445 27.7891L296.105 26.0682ZM290.975 50.1182L282.647 48.3419L282.636 48.395L282.625 48.4482L290.975 50.1182ZM291.732 62.6477L285.418 68.3609L285.491 68.4416L285.566 68.5204L291.732 62.6477ZM301.739 62.5636L296.915 55.5466L296.862 55.5825L296.811 55.6192L301.739 62.5636ZM308.046 56.425L301.58 50.8832L301.558 50.9095L301.536 50.936L308.046 56.425ZM311.998 56.2568L304.643 60.5475L304.771 60.768L304.913 60.9803L311.998 56.2568ZM311.073 64.2455L304.508 58.8221L304.506 58.8248L311.073 64.2455ZM302.412 71.9818L306.621 79.3842L302.412 71.9818ZM282.23 70.2159L276.029 76.0521L276.058 76.0827L276.087 76.1131L282.23 70.2159ZM280.212 44.4L271.893 42.5816L271.889 42.5987L271.885 42.6158L280.212 44.4ZM283.575 29.0114L275.263 27.1641L275.26 27.1786L275.256 27.193L283.575 29.0114ZM284.837 22.7046L293.258 23.9678L293.262 23.9383L293.267 23.9088L284.837 22.7046ZM283.912 14.8841L277.008 19.8698L277.167 20.0889L277.338 20.2974L283.912 14.8841ZM272.391 18.5L265.911 12.9758L265.903 12.985L272.391 18.5ZM264.15 35.3182L256.078 32.6081L256.069 32.634L256.06 32.6601L264.15 35.3182ZM257.844 65.9273L249.399 64.834L249.392 64.8872L249.386 64.9405L257.844 65.9273ZM255.741 72.7386L249.276 67.1969L249.264 67.2102L249.253 67.2236L255.741 72.7386ZM246.828 73.075L240.615 78.8991L240.709 78.9992L240.806 79.0963L246.828 73.075ZM246.491 59.0318L254.891 60.4317L254.893 60.4216L254.894 60.4114L246.491 59.0318ZM248.846 45.8296L240.48 44.2394L240.478 44.249L248.846 45.8296ZM251.453 14.8841L244.731 20.1121L244.819 20.2253L244.911 20.3356L251.453 14.8841ZM239.344 18.0796L245.531 23.9298L245.558 23.9019L245.584 23.8739L239.344 18.0796ZM230.766 34.6455L222.734 31.8173L222.728 31.8337L222.723 31.8502L230.766 34.6455ZM223.871 66.7682L232.307 67.9261L232.308 67.9234L223.871 66.7682ZM222.105 72.7386L215.129 67.8554L215.045 67.9752L214.965 68.0978L222.105 72.7386ZM217.732 65.905C217.267 65.905 217.251 65.8499 217.523 65.932C217.828 66.024 218.554 66.3109 219.297 67.0537L207.254 79.0963C210.508 82.3498 214.767 82.9359 217.732 82.9359V65.905ZM219.476 67.2388C219.911 67.7009 220.172 68.1345 220.319 68.4311C220.463 68.7224 220.513 68.9126 220.52 68.9397C220.527 68.9692 220.506 68.8938 220.484 68.6846C220.463 68.4783 220.445 68.1805 220.445 67.7773H203.415C203.415 70.7006 203.79 75.4217 207.074 78.9112L219.476 67.2388ZM220.445 67.7773C220.445 66.5305 220.57 64.7015 220.884 62.1903L203.985 60.0779C203.626 62.9485 203.415 65.5483 203.415 67.7773H220.445ZM220.864 62.3384C221.237 59.7267 221.836 56.0757 222.67 51.3458L205.899 48.3861C205.052 53.1864 204.416 57.0476 204.005 59.9298L220.864 62.3384ZM222.686 51.2572C224.154 42.3919 225.319 34.6664 226.176 28.0946L209.288 25.8918C208.464 32.2139 207.331 39.7369 205.883 48.4747L222.686 51.2572ZM226.182 28.0494C226.711 23.8204 227.004 20.0759 227.004 16.9023H209.974C209.974 19.1105 209.763 22.0932 209.283 25.937L226.182 28.0494ZM227.004 16.9023C227.004 14.8514 226.673 11.7709 224.662 9.0285C222.29 5.79358 218.79 4.60276 215.714 4.60276V21.6336C215.216 21.6336 214.375 21.5479 213.404 21.1069C212.386 20.6442 211.537 19.9293 210.928 19.0999C209.842 17.6189 209.974 16.4304 209.974 16.9023H227.004ZM215.714 4.60276C211.53 4.60276 207.946 6.65004 205.397 8.50996L215.436 22.2673C215.766 22.0268 216.036 21.8509 216.248 21.7254C216.462 21.5992 216.595 21.5368 216.651 21.5127C216.708 21.4883 216.658 21.5153 216.509 21.5501C216.359 21.5854 216.086 21.6336 215.714 21.6336V4.60276ZM205.431 8.48536C202.434 10.6497 199.6 13.7533 196.905 17.3057L210.473 27.5989C212.712 24.6482 214.363 23.0427 215.402 22.2919L205.431 8.48536ZM196.834 17.4009C196.908 17.3002 197.263 16.8415 197.999 16.3903C198.807 15.8951 199.878 15.5346 201.082 15.5346V32.5654C205.698 32.5654 208.823 29.8405 210.544 27.5036L196.834 17.4009ZM201.082 15.5346C202.067 15.5346 203.042 15.7771 203.897 16.2217C204.711 16.6452 205.219 17.1473 205.481 17.4563L192.479 28.4573C194.33 30.645 197.254 32.5654 201.082 32.5654V15.5346ZM205.909 18.0073C206.11 18.2878 206.31 18.6565 206.453 19.1022C206.598 19.5489 206.654 19.9782 206.654 20.35H189.624C189.624 23.1006 190.472 25.6959 192.051 27.9063L205.909 18.0073ZM206.654 20.35C206.654 20.4371 206.646 20.5139 206.635 20.5739C206.624 20.6328 206.613 20.6591 206.617 20.6491L190.67 14.6691C190 16.4567 189.624 18.3643 189.624 20.35H206.654ZM206.518 20.9013C206.584 20.7392 206.822 20.2547 207.423 19.4132L193.564 9.51415C192.484 11.0272 191.488 12.6729 190.77 14.4169L206.518 20.9013ZM207.416 19.4229C209.567 16.4204 211.764 14.3913 213.927 13.0714L205.056 -1.46682C200.604 1.24963 196.802 4.99482 193.571 9.50439L207.416 19.4229ZM214.015 13.0165C216.215 11.637 217.976 11.2064 219.414 11.2064V-5.82451C214.237 -5.82451 209.383 -4.18093 204.967 -1.41191L214.015 13.0165ZM219.414 11.2064C220.061 11.2064 220.27 11.3092 220.217 11.2871C220.191 11.2761 220.131 11.2466 220.059 11.1934C219.987 11.1401 219.94 11.0908 219.921 11.0671L233.035 0.201107C229.451 -4.12417 224.446 -5.82451 219.414 -5.82451V11.2064ZM220.012 11.1759C219.883 11.0256 220.485 11.5861 220.485 14.2114H237.516C237.516 9.32453 236.436 4.16689 232.943 0.0923309L220.012 11.1759ZM220.485 14.2114C220.485 15.2305 220.388 16.6249 220.141 18.4528L237.019 20.7336C237.332 18.413 237.516 16.2195 237.516 14.2114H220.485ZM220.145 18.4217C219.872 20.3902 219.635 21.9388 219.434 23.0955L236.213 26.0136C236.46 24.5915 236.727 22.8325 237.014 20.7647L220.145 18.4217ZM219.434 23.0955C219.208 24.3922 219.07 25.11 219.006 25.3982L235.631 29.0927C235.791 28.3719 235.99 27.2957 236.213 26.0136L219.434 23.0955ZM235.357 30.0563C238.405 21.3401 241.411 16.6203 243.784 14.4819L232.381 1.83179C226.793 6.86908 222.623 14.8751 219.28 24.4346L235.357 30.0563ZM243.832 14.4377C246.466 12.0264 248.849 11.2064 251.2 11.2064V-5.82451C244.022 -5.82451 237.659 -3.00065 232.332 1.87597L243.832 14.4377ZM251.2 11.2064C252.562 11.2064 252.862 11.5475 253.142 11.8962L266.413 1.22198C262.545 -3.58688 257.126 -5.82451 251.2 -5.82451V11.2064ZM253.213 11.9824C253.654 12.5173 254.458 13.9657 254.458 17.4909H271.489C271.489 11.598 270.161 5.75843 266.343 1.13578L253.213 11.9824ZM254.458 17.4909C254.458 18.6355 254.294 20.3801 253.841 22.848L270.592 25.9247C271.147 22.8987 271.489 20.0463 271.489 17.4909H254.458ZM270.222 27.2871C272.816 20.1295 275.49 16.0912 277.736 14.08L266.374 1.3928C261.108 6.10886 257.223 13.1705 254.21 21.4856L270.222 27.2871ZM277.736 14.08C279.988 12.0629 282.301 11.2064 285.005 11.2064V-5.82451C277.955 -5.82451 271.634 -3.31746 266.374 1.3928L277.736 14.08ZM285.005 11.2064C286.95 11.2064 287.297 11.7277 287.425 11.8832L300.58 1.06681C296.56 -3.82308 290.909 -5.82451 285.005 -5.82451V11.2064ZM287.497 11.969C287.915 12.4644 288.683 13.7883 288.683 17.0705H305.714C305.714 11.2708 304.351 5.5311 300.509 0.981022L287.497 11.969ZM288.683 17.0705C288.683 18.7609 288.426 21.1475 287.765 24.3473L304.445 27.7891C305.242 23.9253 305.714 20.3133 305.714 17.0705H288.683ZM287.777 24.2919L282.647 48.3419L299.304 51.8945L304.433 27.8445L287.777 24.2919ZM282.625 48.4482C281.996 51.5938 281.619 54.5932 281.619 57.35H298.65C298.65 56.0705 298.833 54.2487 299.325 51.7882L282.625 48.4482ZM281.619 57.35C281.619 60.8182 282.385 65.0091 285.418 68.3609L298.047 56.9346C298.487 57.4211 298.647 57.8516 298.687 57.9816C298.717 58.081 298.65 57.9125 298.65 57.35H281.619ZM285.566 68.5204C288.62 71.7276 292.584 72.9291 296.357 72.9291V55.8982C296.223 55.8982 296.404 55.8782 296.767 56.0169C297.163 56.168 297.571 56.4309 297.899 56.775L285.566 68.5204ZM296.357 72.9291C300.232 72.9291 303.716 71.6027 306.667 69.508L296.811 55.6192C296.525 55.8223 296.362 55.8846 296.322 55.8982C296.293 55.9082 296.316 55.8982 296.357 55.8982V72.9291ZM306.563 69.5807C309.277 67.7153 311.952 65.0028 314.556 61.914L301.536 50.936C299.319 53.5654 297.789 54.9453 296.915 55.5466L306.563 69.5807ZM314.511 61.9668C314.284 62.2323 313.812 62.7002 313.038 63.1017C312.222 63.5245 311.28 63.7632 310.316 63.7632V46.7323C306.429 46.7323 303.467 48.6824 301.58 50.8832L314.511 61.9668ZM310.316 63.7632C309.319 63.7632 308.093 63.5164 306.902 62.8019C305.738 62.1035 305.031 61.2126 304.643 60.5475L319.354 51.9662C317.563 48.8964 314.319 46.7323 310.316 46.7323V63.7632ZM304.913 60.9803C304.496 60.3551 304.309 59.7994 304.227 59.4614C304.148 59.1338 304.155 58.9667 304.155 59.0318H321.186C321.186 56.9011 320.8 54.1075 319.083 51.5333L304.913 60.9803ZM304.155 59.0318C304.155 59.445 304.104 59.5639 304.13 59.48C304.144 59.4346 304.176 59.3424 304.241 59.2197C304.307 59.0955 304.395 58.9588 304.508 58.8221L317.638 69.6688C320.307 66.4379 321.186 62.5821 321.186 59.0318H304.155ZM304.506 58.8248C302.01 61.8486 299.884 63.6234 298.203 64.5794L306.621 79.3842C310.658 77.0888 314.306 73.7059 317.64 69.6661L304.506 58.8248ZM298.203 64.5794C296.563 65.5118 295.006 65.905 293.414 65.905V82.9359C298.101 82.9359 302.543 81.7033 306.621 79.3842L298.203 64.5794ZM293.414 65.905C290.406 65.905 289.107 65.0832 288.373 64.3187L276.087 76.1131C280.735 80.9547 286.892 82.9359 293.414 82.9359V65.905ZM288.431 64.3797C287.531 63.424 286.709 61.8653 286.709 58.7795H269.678C269.678 65.2241 271.547 71.2896 276.029 76.0521L288.431 64.3797ZM286.709 58.7795C286.709 56.3967 287.224 52.3154 288.538 46.1842L271.885 42.6158C270.508 49.0422 269.678 54.5472 269.678 58.7795H286.709ZM288.531 46.2184L291.894 30.8297L275.256 27.193L271.893 42.5816L288.531 46.2184ZM291.888 30.8586C292.005 30.3326 292.205 29.418 292.485 28.1294L275.843 24.5115C275.562 25.8018 275.37 26.6811 275.263 27.1641L291.888 30.8586ZM292.485 28.1294C292.799 26.6877 293.058 25.2986 293.258 23.9678L276.416 21.4414C276.279 22.3529 276.09 23.3745 275.843 24.5115L292.485 28.1294ZM293.267 23.9088C293.488 22.3565 293.604 20.8044 293.604 19.2568H276.574C276.574 19.9517 276.522 20.698 276.407 21.5003L293.267 23.9088ZM293.604 19.2568C293.604 16.4128 293.079 12.6201 290.485 9.47079L277.338 20.2974C276.807 19.6527 276.623 19.0938 276.572 18.9058C276.526 18.7345 276.574 18.813 276.574 19.2568H293.604ZM290.815 9.8984C288.266 6.36891 284.455 4.85503 280.716 4.85503V21.8859C280.392 21.8859 279.723 21.8246 278.921 21.4446C278.083 21.0478 277.436 20.4612 277.008 19.8698L290.815 9.8984ZM280.716 4.85503C274.287 4.85503 269.349 8.94304 265.911 12.9758L278.872 24.0243C279.954 22.7543 280.721 22.1518 281.126 21.9026C281.488 21.6795 281.312 21.8859 280.716 21.8859V4.85503ZM265.903 12.985C261.97 17.6116 258.809 24.4717 256.078 32.6081L272.223 38.0283C274.761 30.4678 277.094 26.1157 278.88 24.015L265.903 12.985ZM256.06 32.6601C253.251 41.2108 251.061 51.9935 249.399 64.834L266.289 67.0206C267.878 54.7459 269.892 45.1226 272.24 37.9763L256.06 32.6601ZM249.386 64.9405C249.226 66.3037 249.034 67.1637 248.887 67.6415C248.817 67.8693 248.781 67.928 248.812 67.8673C248.839 67.8111 248.975 67.5485 249.276 67.1969L262.207 78.2804C265.028 74.9887 265.897 70.3842 266.302 66.9141L249.386 64.9405ZM249.253 67.2236C249.867 66.5015 250.553 66.1349 250.985 65.9807C251.356 65.8483 251.437 65.905 251.032 65.905V82.9359C254.481 82.9359 259.001 82.0525 262.23 78.2536L249.253 67.2236ZM251.032 65.905C250.714 65.905 250.803 65.8638 251.147 65.9738C251.531 66.0967 252.195 66.4 252.849 67.0537L240.806 79.0963C243.948 82.2384 247.989 82.9359 251.032 82.9359V65.905ZM253.04 67.2509C253.497 67.7389 253.771 68.1984 253.925 68.5136C254.077 68.8239 254.132 69.0324 254.143 69.0756C254.154 69.1217 254.136 69.0641 254.117 68.8737C254.098 68.6864 254.082 68.4097 254.082 68.0295H237.051C237.051 70.7906 237.382 75.4498 240.615 78.8991L253.04 67.2509ZM254.082 68.0295C254.082 66.3993 254.31 63.9192 254.891 60.4317L238.092 57.6319C237.44 61.5445 237.051 65.0628 237.051 68.0295H254.082ZM254.894 60.4114C255.497 56.7409 256.269 52.41 257.213 47.4101L240.478 44.249C239.517 49.34 238.719 53.8106 238.088 57.6522L254.894 60.4114ZM257.212 47.4197C259.747 34.08 261.229 24.4824 261.229 19.5932H244.199C244.199 22.5524 243.102 30.4458 240.48 44.2394L257.212 47.4197ZM261.229 19.5932C261.229 16.6261 260.694 12.6718 257.994 9.43265L244.911 20.3356C244.377 19.695 244.208 19.1529 244.173 19.0214C244.142 18.905 244.199 19.0556 244.199 19.5932H261.229ZM258.174 9.65614C255.35 6.02496 251.308 4.85503 247.837 4.85503V21.8859C247.787 21.8859 247.331 21.8799 246.672 21.6039C245.954 21.3035 245.259 20.7904 244.731 20.1121L258.174 9.65614ZM247.837 4.85503C241.675 4.85503 236.743 8.36604 233.104 12.2852L245.584 23.8739C246.615 22.7633 247.361 22.2287 247.782 21.995C248.161 21.7854 248.146 21.8859 247.837 21.8859V4.85503ZM233.156 12.2294C228.954 16.6736 225.618 23.6261 222.734 31.8173L238.798 37.4736C241.52 29.7436 243.903 25.6522 245.531 23.9298L233.156 12.2294ZM222.723 31.8502C219.712 40.513 217.319 51.8455 215.434 65.6129L232.308 67.9234C234.122 54.6697 236.326 44.587 238.81 37.4407L222.723 31.8502ZM215.435 65.6103C215.276 66.7654 215.105 67.5305 214.969 67.9899C214.904 68.2115 214.864 68.3028 214.867 68.2959C214.867 68.2944 214.942 68.1224 215.129 67.8554L229.081 77.6219C231.115 74.717 231.892 70.9546 232.307 67.9261L215.435 65.6103ZM214.965 68.0978C215.736 66.9118 216.752 66.3046 217.408 66.0522C217.961 65.8397 218.167 65.905 217.732 65.905V82.9359C220.925 82.9359 226.142 82.1533 229.245 77.3794L214.965 68.0978ZM307.913 70.6364L314.491 65.2282L307.913 70.6364ZM307.913 48.0159L315.465 51.9512L315.476 51.9297L315.487 51.9081L307.913 48.0159ZM316.154 38.3455L321.06 45.3055L321.071 45.2977L321.082 45.2899L316.154 38.3455ZM329.609 35.4023L322.887 40.6302L323.212 41.0487L323.587 41.4236L329.609 35.4023ZM330.702 37.925L322.398 39.8122L324.22 47.8282L332.295 46.29L330.702 37.925ZM337.261 48.9409L345.611 50.6109L345.619 50.5702L345.627 50.5294L337.261 48.9409ZM335.915 64.4136L329.194 69.6416L329.365 69.8622L329.551 70.071L335.915 64.4136ZM341.465 63.1523L347.123 69.5168L347.187 69.4593L347.251 69.4006L341.465 63.1523ZM347.604 56.425L341.139 50.8832L341.105 50.9223L341.072 50.9619L347.604 56.425ZM351.556 56.2568L344.201 60.5475L344.329 60.768L344.471 60.9803L351.556 56.2568ZM350.631 64.2455L344.187 58.6796L344.089 58.7931L343.995 58.91L350.631 64.2455ZM343.315 71.4773L348.472 78.2541L343.315 71.4773ZM330.702 72.5705L325.18 79.0528L325.308 79.1621L325.441 79.2663L330.702 72.5705ZM327.254 67.3568L335.269 64.4798L329.305 47.8659L320.014 62.8747L327.254 67.3568ZM322.797 63.7409L316.048 58.549L322.797 63.7409ZM325.236 57.9386L333.571 59.6831L333.578 59.6503L333.584 59.6174L325.236 57.9386ZM328.347 42.4659L336.696 44.1447L338.796 33.6993L328.145 33.9529L328.347 42.4659ZM321.788 45.1568L327.33 51.6222L327.337 51.6159L327.345 51.6096L321.788 45.1568ZM317.079 51.8841L324.93 55.1815L317.079 51.8841ZM316.322 64.6659L309.673 69.9855L309.777 70.1163L309.887 70.2429L316.322 64.6659ZM316.238 65.905C315.122 65.905 314.832 65.6433 314.491 65.2282L301.336 76.0446C305.143 80.6749 310.403 82.9359 316.238 82.9359V65.905ZM314.491 65.2282C313.96 64.5829 313.317 63.3455 313.317 60.7136H296.286C296.286 66.2666 297.718 71.6444 301.336 76.0446L314.491 65.2282ZM313.317 60.7136C313.317 57.6001 314.023 54.7174 315.465 51.9512L300.362 44.0806C297.655 49.275 296.286 54.8575 296.286 60.7136H313.317ZM315.487 51.9081C316.987 48.9888 318.858 46.8579 321.06 45.3055L311.248 31.3855C306.611 34.6542 302.988 38.9703 300.339 44.1238L315.487 51.9081ZM321.082 45.2899C323.272 43.7361 325.247 43.1609 327.17 43.1609V26.13C321.356 26.13 315.988 28.0215 311.226 31.4011L321.082 45.2899ZM327.17 43.1609C327.279 43.1609 326.868 43.1809 326.181 42.9675C325.467 42.746 324.063 42.1422 322.887 40.6302L336.33 30.1743C333.322 26.3069 328.787 26.13 327.17 26.13V43.1609ZM323.587 41.4236C323.173 41.0089 322.897 40.6245 322.726 40.3535C322.554 40.0807 322.454 39.8678 322.405 39.7551C322.316 39.5494 322.334 39.5309 322.398 39.8122L339.005 36.0378C338.66 34.52 337.879 31.6298 335.63 29.3809L323.587 41.4236ZM332.295 46.29C332.909 46.1731 333.607 46.1041 334.402 46.1041V29.0732C332.618 29.0732 330.849 29.2285 329.108 29.56L332.295 46.29ZM334.402 46.1041C335.019 46.1041 333.952 46.2605 332.543 45.2537C331.741 44.6814 331.022 43.86 330.548 42.8452C330.096 41.8755 330.007 41.0309 330.007 40.5318H347.038C347.038 37.3126 345.753 33.7601 342.442 31.3951C339.659 29.4073 336.532 29.0732 334.402 29.0732V46.1041ZM330.007 40.5318C330.007 40.4194 329.996 40.8522 329.786 42.2539C329.598 43.5027 329.305 45.1912 328.895 47.3524L345.627 50.5294C346.416 46.3741 347.038 42.6861 347.038 40.5318H330.007ZM328.911 47.2709C327.632 53.6651 326.811 58.9212 326.811 62.3955H343.842C343.842 60.8243 344.311 57.1107 345.611 50.6109L328.911 47.2709ZM326.811 62.3955C326.811 64.5311 327.318 67.2299 329.194 69.6416L342.637 59.1857C343.728 60.5883 343.842 61.9416 343.842 62.3955H326.811ZM329.551 70.071C331.609 72.3862 334.482 73.6859 337.597 73.6859V56.655C338.351 56.655 339.248 56.8026 340.167 57.2158C341.084 57.6288 341.786 58.2002 342.28 58.7563L329.551 70.071ZM337.597 73.6859C341.952 73.6859 345.28 71.1547 347.123 69.5168L335.808 56.7878C335.386 57.1631 335.261 57.2014 335.424 57.1163C335.573 57.0386 336.35 56.655 337.597 56.655V73.6859ZM347.251 69.4006C349.173 67.6205 351.499 65.0411 354.136 61.8881L341.072 50.9619C338.551 53.9756 336.785 55.8811 335.68 56.904L347.251 69.4006ZM354.069 61.9668C353.842 62.2323 353.37 62.7002 352.596 63.1017C351.781 63.5245 350.838 63.7632 349.874 63.7632V46.7323C345.988 46.7323 343.025 48.6824 341.139 50.8832L354.069 61.9668ZM349.874 63.7632C348.877 63.7632 347.651 63.5164 346.46 62.8019C345.296 62.1035 344.589 61.2126 344.201 60.5475L358.912 51.9662C357.121 48.8964 353.877 46.7323 349.874 46.7323V63.7632ZM344.471 60.9803C344.054 60.3551 343.867 59.7994 343.785 59.4614C343.706 59.1338 343.714 58.9667 343.714 59.0318H360.744C360.744 56.9011 360.358 54.1075 358.642 51.5333L344.471 60.9803ZM343.714 59.0318C343.714 59.4967 343.656 59.6246 343.688 59.522C343.705 59.4649 343.747 59.3481 343.83 59.1929C343.915 59.0356 344.032 58.8584 344.187 58.6796L357.076 69.8113C359.906 66.535 360.744 62.5495 360.744 59.0318H343.714ZM343.995 58.91C342.073 61.3 340.121 63.2077 338.159 64.7004L348.472 78.2541C351.667 75.8226 354.592 72.9091 357.268 69.5809L343.995 58.91ZM338.159 64.7004C337.368 65.3022 336.778 65.6088 336.394 65.76C336.028 65.9038 335.857 65.905 335.831 65.905V82.9359C340.654 82.9359 344.917 80.959 348.472 78.2541L338.159 64.7004ZM335.831 65.905C335.844 65.905 335.877 65.9063 335.924 65.9144C335.97 65.9224 336.014 65.9345 336.05 65.9476C336.086 65.9604 336.1 65.969 336.089 65.9631C336.078 65.9567 336.035 65.9316 335.963 65.8746L325.441 79.2663C328.384 81.579 331.918 82.9359 335.831 82.9359V65.905ZM336.224 66.0881C336.019 65.9137 335.637 65.5048 335.269 64.4798L319.239 70.2339C320.441 73.5815 322.357 76.6484 325.18 79.0528L336.224 66.0881ZM320.014 62.8747C318.204 65.7983 316.958 65.905 316.238 65.905V82.9359C324.376 82.9359 330.474 78.3335 334.494 71.839L320.014 62.8747ZM319.265 74.4427C324.245 74.4427 327.632 71.4216 329.547 68.9329L316.048 58.549C315.92 58.7154 316.072 58.4615 316.591 58.1403C317.179 57.7763 318.11 57.4118 319.265 57.4118V74.4427ZM329.547 68.9329C331.667 66.1763 332.888 62.9425 333.571 59.6831L316.901 56.1941C316.574 57.756 316.17 58.3903 316.048 58.549L329.547 68.9329ZM333.584 59.6174L336.696 44.1447L319.999 40.7872L316.888 56.2599L333.584 59.6174ZM328.145 33.9529C323.564 34.062 319.536 35.859 316.232 38.7041L327.345 51.6096C328.077 50.9789 328.421 50.982 328.55 50.9789L328.145 33.9529ZM316.246 38.6914C313.116 41.3749 310.828 44.777 309.228 48.5866L324.93 55.1815C325.685 53.3851 326.536 52.3024 327.33 51.6222L316.246 38.6914ZM309.228 48.5866C307.598 52.468 306.798 56.5637 306.798 60.7977H323.829C323.829 58.753 324.206 56.9063 324.93 55.1815L309.228 48.5866ZM306.798 60.7977C306.798 63.3656 307.247 66.9537 309.673 69.9855L322.972 59.3464C323.537 60.0531 323.741 60.674 323.805 60.9187C323.866 61.151 323.829 61.148 323.829 60.7977H306.798ZM309.887 70.2429C312.42 73.1657 315.863 74.4427 319.265 74.4427V57.4118C319.624 57.4118 320.238 57.4758 320.959 57.785C321.703 58.1039 322.315 58.5786 322.757 59.0889L309.887 70.2429ZM346.824 71.0568L338.851 74.0468L338.883 74.1334L338.918 74.2194L346.824 71.0568ZM348.674 39.5227L356.793 42.0903L356.8 42.0685L356.807 42.0467L348.674 39.5227ZM351.113 35.9909L355.754 43.1306L355.795 43.1036L355.836 43.0762L351.113 35.9909ZM357.756 42.8864L349.531 40.6831L349.512 40.7519L349.495 40.8211L357.756 42.8864ZM355.57 54.9955L347.089 54.2245L363.52 58.0461L355.57 54.9955ZM361.792 43.2227L355.01 38.0734L361.792 43.2227ZM368.52 36.7477L364.275 29.3657L364.234 29.389L364.194 29.4128L368.52 36.7477ZM378.695 36.2432L372.494 42.0794L372.671 42.2673L372.858 42.4441L378.695 36.2432ZM379.199 48.5205L387.602 49.898L387.61 49.8523L387.617 49.8065L379.199 48.5205ZM377.854 58.275L386.317 59.2154L386.318 59.2069L386.319 59.1985L377.854 58.275ZM376.004 73.075L369.803 67.2388L369.797 67.2449L369.791 67.2509L376.004 73.075ZM367.763 72.9909L361.378 78.6249V78.6249L367.763 72.9909ZM367.679 57.6023L376.097 58.8834L376.099 58.8744L376.1 58.8655L367.679 57.6023ZM364.651 50.5386L357.695 45.6279L357.68 45.6487L357.665 45.6696L364.651 50.5386ZM360.615 57.9386L352.863 54.4149L352.836 54.4737L352.81 54.5329L360.615 57.9386ZM357.336 67.6932L349.066 65.6598L349.055 65.7062L349.044 65.7526L357.336 67.6932ZM355.149 73.075L348.764 67.441L348.752 67.4543L348.741 67.4675L355.149 73.075ZM351.365 65.905C351.875 65.905 352.802 66.0713 353.701 66.7369C354.525 67.3471 354.756 67.9572 354.731 67.8943L338.918 74.2194C339.79 76.3989 341.226 78.6907 343.564 80.4222C345.976 82.209 348.725 82.9359 351.365 82.9359V65.905ZM354.797 68.0668C354.525 67.3406 354.078 65.0539 354.078 60.2932H337.047C337.047 65.3991 337.441 70.2882 338.851 74.0468L354.797 68.0668ZM354.078 60.2932C354.078 53.8245 354.997 47.7708 356.793 42.0903L340.555 36.9551C338.203 44.3929 337.047 52.1861 337.047 60.2932H354.078ZM356.807 42.0467C356.851 41.9062 356.836 42.0177 356.67 42.2589C356.489 42.5198 356.188 42.8483 355.754 43.1306L346.472 28.8512C343.271 30.9318 341.471 34.0037 340.541 36.9988L356.807 42.0467ZM355.836 43.0762C355.457 43.3288 355.199 43.3891 355.213 43.3857C355.22 43.384 355.284 43.3692 355.417 43.3552C355.549 43.3411 355.738 43.3291 355.99 43.3291V26.2982C352.976 26.2982 349.476 26.8479 346.389 28.9056L355.836 43.0762ZM355.99 43.3291C356.234 43.3291 356.178 43.3472 355.923 43.3016C355.785 43.2769 355.53 43.2234 355.198 43.1101C354.87 42.9983 354.384 42.8005 353.832 42.4552L362.858 28.013C360.214 26.3605 357.281 26.2982 355.99 26.2982V43.3291ZM353.832 42.4552C352.428 41.5783 351.504 40.3427 351.001 39.1482C350.545 38.0661 350.502 37.1923 350.502 36.8318H367.533C367.533 34.6401 366.863 30.5164 362.858 28.013L353.832 42.4552ZM350.502 36.8318C350.502 36.475 350.537 36.3172 350.51 36.4992C350.491 36.6356 350.448 36.8872 350.366 37.2814C350.201 38.0718 349.93 39.191 349.531 40.6831L365.982 45.0896C366.423 43.4424 366.783 41.9828 367.038 40.7549C367.255 39.7166 367.533 38.2355 367.533 36.8318H350.502ZM349.495 40.8211C348.912 43.1528 348.431 45.2521 348.061 47.1027L364.761 50.4427C365.063 48.9297 365.479 47.1048 366.017 44.9517L349.495 40.8211ZM348.061 47.1027C347.645 49.1801 347.33 51.5759 347.089 54.2245L364.05 55.7664C364.258 53.4816 364.503 51.729 364.761 50.4427L348.061 47.1027ZM363.52 58.0461C365.177 53.7267 366.901 50.5758 368.574 48.3721L355.01 38.0734C352.086 41.9243 349.662 46.6218 347.619 51.9448L363.52 58.0461ZM368.574 48.3721C370.505 45.8291 371.964 44.6027 372.845 44.0826L364.194 29.4128C360.703 31.4715 357.677 34.5618 355.01 38.0734L368.574 48.3721ZM372.764 44.1298C374.204 43.302 374.775 43.3291 374.658 43.3291V26.2982C370.841 26.2982 367.32 27.6147 364.275 29.3657L372.764 44.1298ZM374.658 43.3291C374.825 43.3291 374.61 43.3539 374.17 43.1979C373.683 43.0255 373.057 42.6773 372.494 42.0794L384.896 30.407C381.863 27.1844 377.901 26.2982 374.658 26.2982V43.3291ZM372.858 42.4441C372.26 41.8813 371.912 41.2548 371.74 40.7679C371.584 40.3274 371.609 40.113 371.609 40.2795H388.64C388.64 37.0366 387.753 33.0752 384.531 30.0423L372.858 42.4441ZM371.609 40.2795C371.609 40.9941 371.41 43.1229 370.781 47.2344L387.617 49.8065C388.222 45.8453 388.64 42.4802 388.64 40.2795H371.609ZM370.796 47.1429C370.213 50.6962 369.743 54.0999 369.389 57.3515L386.319 59.1985C386.637 56.2834 387.064 53.1841 387.602 49.898L370.796 47.1429ZM369.39 57.3346C369.012 60.7361 368.834 64.449 368.834 68.45H385.865C385.865 64.9389 386.022 61.8684 386.317 59.2154L369.39 57.3346ZM368.834 68.45C368.834 68.9559 368.776 69.0323 368.836 68.8254C368.904 68.5923 369.143 67.9401 369.803 67.2388L382.205 78.9112C385.284 75.6396 385.865 71.4602 385.865 68.45H368.834ZM369.791 67.2509C370.541 66.4518 371.318 66.1045 371.727 65.9738C372.091 65.857 372.174 65.905 371.799 65.905V82.9359C374.75 82.9359 379.024 82.3042 382.216 78.8991L369.791 67.2509ZM371.799 65.905C371.571 65.905 371.78 65.8714 372.245 66.0362C372.767 66.2208 373.497 66.6193 374.148 67.3569L361.378 78.6249C364.459 82.117 368.641 82.9359 371.799 82.9359V65.905ZM374.148 67.3569C374.682 67.9616 374.905 68.5258 374.986 68.8012C375.059 69.0489 375.017 69.0567 375.017 68.7023H357.986C357.986 71.677 358.619 75.4986 361.378 78.6249L374.148 67.3569ZM375.017 68.7023C375.017 67.1636 375.315 64.024 376.097 58.8834L359.26 56.3212C358.473 61.4957 357.986 65.7561 357.986 68.7023H375.017ZM376.1 58.8655C376.743 54.5801 377.203 51.0278 377.203 49.025H360.172C360.172 48.9987 360.172 49.1474 360.138 49.5573C360.107 49.9391 360.055 50.4476 359.978 51.0994C359.825 52.4038 359.587 54.1416 359.258 56.3391L376.1 58.8655ZM377.203 49.025C377.203 47.8651 377.052 45.4872 375.474 43.1917C373.5 40.3208 370.441 39.1641 367.763 39.1641V56.195C366.884 56.195 365.703 56.0325 364.452 55.4259C363.161 54.7999 362.148 53.87 361.44 52.8402C360.17 50.9931 360.172 49.2879 360.172 49.025H377.203ZM367.763 39.1641C364.003 39.1641 361.488 41.3784 360.677 42.1242C359.518 43.1889 358.521 44.4573 357.695 45.6279L371.608 55.4493C372.127 54.7139 372.322 54.5528 372.2 54.6645C372.131 54.7278 371.796 55.0317 371.203 55.352C370.626 55.6633 369.424 56.195 367.763 56.195V39.1641ZM357.665 45.6696C355.973 48.0979 354.383 51.0699 352.863 54.4149L368.367 61.4623C369.65 58.6407 370.751 56.6794 371.638 55.4077L357.665 45.6696ZM352.81 54.5329C351.263 58.0798 350.018 61.7922 349.066 65.6598L365.605 69.7266C366.335 66.7548 367.277 63.9641 368.42 61.3443L352.81 54.5329ZM349.044 65.7526C348.8 66.7943 348.584 67.4485 348.437 67.8098C348.367 67.9821 348.338 68.026 348.365 67.9777C348.39 67.9348 348.512 67.7271 348.764 67.441L361.534 78.709C363.88 76.0502 364.974 72.4217 365.627 69.6337L349.044 65.7526ZM348.741 67.4675C349.421 66.6901 350.192 66.2632 350.762 66.0607C351.274 65.8786 351.537 65.905 351.365 65.905V82.9359C354.41 82.9359 358.528 82.1446 361.558 78.6824L348.741 67.4675Z" fill="#1F1F1F" mask="url(#path-1-outside-1_1340_187)"/>
</svg>
