<svg width="187" height="56" viewBox="0 0 187 56" fill="none" xmlns="http://www.w3.org/2000/svg">
<mask id="path-1-outside-1_1330_2216" maskUnits="userSpaceOnUse" x="-4" y="-4" width="196" height="64" fill="black">
<rect fill="white" x="-4" y="-4" width="196" height="64"/>
<path d="M35.8062 10.5991C35.8062 12.9367 34.9811 14.958 33.3311 16.6631C31.681 18.3406 29.2747 19.5507 26.1121 20.2932C27.8172 20.7607 29.1097 21.5307 29.9897 22.6033C30.8698 23.6483 31.3098 24.8584 31.3098 26.2334C31.3098 28.406 30.6222 30.2898 29.2472 31.8848C27.8997 33.4799 25.9196 34.7174 23.307 35.5975C20.6944 36.45 17.5456 36.8762 13.8605 36.8762C12.4854 36.8762 11.3854 36.835 10.5603 36.7525C10.5328 37.5225 10.2028 38.1 9.57031 38.485C8.93779 38.8701 8.12651 39.0626 7.13648 39.0626C6.14645 39.0626 5.45893 38.8426 5.07392 38.4025C4.7164 37.9625 4.56515 37.3163 4.62015 36.4637C4.86766 32.6136 5.34892 28.5847 6.06395 24.3771C6.77897 20.142 7.6865 16.0581 8.78654 12.1254C8.97904 11.4379 9.36406 10.9567 9.94157 10.6816C10.5191 10.4066 11.2754 10.2691 12.2104 10.2691C13.888 10.2691 14.7267 10.7366 14.7267 11.6717C14.7267 12.0567 14.6442 12.4967 14.4792 12.9917C13.7642 15.1368 13.0492 18.0519 12.3342 21.737C11.6191 25.3946 11.1104 28.8872 10.8079 32.2148C12.1279 32.3248 13.2004 32.3798 14.0255 32.3798C17.8756 32.3798 20.6944 31.8298 22.482 30.7298C24.297 29.6023 25.2046 28.1722 25.2046 26.4397C25.2046 25.2296 24.6821 24.2121 23.637 23.3871C22.6195 22.562 20.9007 22.1083 18.4806 22.0258C17.9306 21.9983 17.5456 21.8608 17.3256 21.6132C17.1056 21.3657 16.9956 20.967 16.9956 20.417C16.9956 19.6194 17.1606 18.9732 17.4906 18.4781C17.8206 17.9831 18.4256 17.7219 19.3056 17.6944C21.2582 17.6394 23.0183 17.3506 24.5858 16.8281C26.1809 16.3056 27.4321 15.5768 28.3397 14.6418C29.2472 13.6792 29.701 12.5655 29.701 11.3004C29.701 9.70536 28.9172 8.45407 27.3496 7.54654C25.7821 6.61151 23.3758 6.14399 20.1307 6.14399C17.1881 6.14399 14.3417 6.52901 11.5916 7.29903C8.84154 8.04156 6.50396 8.99034 4.5789 10.1454C3.69887 10.6679 2.95635 10.9292 2.35133 10.9292C1.85631 10.9292 1.4713 10.7641 1.19629 10.4341C0.948781 10.0766 0.825027 9.63661 0.825027 9.11409C0.825027 8.42657 0.962531 7.8353 1.23754 7.34028C1.54005 6.84527 2.24132 6.2815 3.34136 5.64898C5.65143 4.32894 8.36027 3.29765 11.4679 2.55513C14.5755 1.8126 17.7518 1.44134 20.9969 1.44134C25.9746 1.44134 29.6872 2.28012 32.1348 3.95767C34.5824 5.63523 35.8062 7.84905 35.8062 10.5991ZM53.0489 27.801C53.4064 27.801 53.6814 27.966 53.8739 28.296C54.0939 28.626 54.2039 29.0797 54.2039 29.6573C54.2039 30.7573 53.9427 31.6098 53.4202 32.2148C52.4026 33.4524 50.9588 34.5937 49.0888 35.6387C47.2462 36.6837 45.2662 37.2063 43.1486 37.2063C40.261 37.2063 38.0197 36.4225 36.4246 34.8549C34.8296 33.2874 34.032 31.1423 34.032 28.4197C34.032 26.5222 34.4308 24.7621 35.2283 23.1395C36.0259 21.4895 37.1259 20.1832 38.5284 19.2207C39.9585 18.2581 41.5673 17.7769 43.3548 17.7769C44.9499 17.7769 46.2287 18.2581 47.1912 19.2207C48.1537 20.1557 48.635 21.4345 48.635 23.057C48.635 24.9546 47.9475 26.5909 46.5724 27.966C45.2249 29.3135 42.9286 30.386 39.6835 31.1836C40.371 32.4486 41.6773 33.0811 43.6023 33.0811C44.8399 33.0811 46.2424 32.6549 47.81 31.8023C49.405 30.9223 50.7801 29.781 51.9351 28.3785C52.2651 27.9935 52.6364 27.801 53.0489 27.801ZM42.6536 21.8195C41.636 21.8195 40.7698 22.4108 40.0547 23.5933C39.3672 24.7759 39.0234 26.2059 39.0234 27.8835V27.966C40.646 27.5809 41.9248 27.0034 42.8598 26.2334C43.7949 25.4634 44.2624 24.5696 44.2624 23.5521C44.2624 23.0295 44.1111 22.617 43.8086 22.3145C43.5336 21.9845 43.1486 21.8195 42.6536 21.8195ZM82.155 27.801C82.5125 27.801 82.7875 27.966 82.98 28.296C83.2 28.626 83.31 29.0797 83.31 29.6573C83.31 30.7573 83.0487 31.6098 82.5262 32.2148C81.3437 33.6724 80.0511 34.8687 78.6486 35.8037C77.246 36.7387 75.6372 37.2063 73.8222 37.2063C70.4671 37.2063 68.1295 35.8037 66.8095 32.9986C66.0944 34.1537 65.1456 35.1437 63.9631 35.9687C62.7806 36.7937 61.5155 37.2063 60.168 37.2063C57.5554 37.2063 55.6303 36.1475 54.3928 34.0299C53.1828 31.8848 52.5777 28.9972 52.5777 25.3671C52.5777 24.0196 52.6465 22.5208 52.784 20.8707H51.0927C50.2677 20.8707 49.7039 20.7195 49.4014 20.417C49.1264 20.1144 48.9889 19.6332 48.9889 18.9732C48.9889 17.4331 49.6076 16.6631 50.8452 16.6631H53.3615C53.884 13.748 54.6128 11.1079 55.5478 8.74283C56.4829 6.37775 57.6104 4.49394 58.9304 3.0914C60.2505 1.68885 61.6805 0.987577 63.2206 0.987577C64.3756 0.987577 65.2832 1.49634 65.9432 2.51388C66.6032 3.53141 66.9332 4.8102 66.9332 6.35025C66.9332 10.2279 65.4344 13.6655 62.4368 16.6631H66.1907C66.7132 13.748 67.442 11.1079 68.377 8.74283C69.312 6.37775 70.4396 4.49394 71.7596 3.0914C73.0797 1.68885 74.5097 0.987577 76.0498 0.987577C77.2048 0.987577 78.1123 1.49634 78.7723 2.51388C79.4324 3.53141 79.7624 4.8102 79.7624 6.35025C79.7624 10.2279 78.2636 13.6655 75.266 16.6631H79.0198C79.4599 16.6631 79.7761 16.7593 79.9686 16.9518C80.1611 17.1444 80.2574 17.5019 80.2574 18.0244C80.2574 19.9219 78.7036 20.8707 75.596 20.8707H70.6046C70.5221 22.1908 70.4808 23.5383 70.4808 24.9134C70.4808 27.7734 70.8108 29.781 71.4709 30.9361C72.1584 32.0911 73.2309 32.6686 74.6885 32.6686C75.871 32.6686 76.916 32.3111 77.8236 31.5961C78.7311 30.8811 79.8036 29.8085 81.0412 28.3785C81.3712 27.9935 81.7424 27.801 82.155 27.801ZM62.1068 4.94771C61.6943 4.94771 61.2268 5.47022 60.7043 6.51526C60.2092 7.53279 59.728 8.96284 59.2605 10.8054C58.8204 12.6205 58.4492 14.6418 58.1467 16.8693C59.7692 15.4668 60.9793 13.8992 61.7768 12.1667C62.6018 10.4066 63.0143 8.81158 63.0143 7.38153C63.0143 5.75898 62.7118 4.94771 62.1068 4.94771ZM74.936 4.94771C74.5235 4.94771 74.0559 5.47022 73.5334 6.51526C73.0384 7.53279 72.5571 8.96284 72.0896 10.8054C71.6496 12.6205 71.2783 14.6418 70.9758 16.8693C72.5984 15.4668 73.8084 13.8992 74.606 12.1667C75.431 10.4066 75.8435 8.81158 75.8435 7.38153C75.8435 5.75898 75.541 4.94771 74.936 4.94771ZM61.0343 32.6686C61.8593 32.6686 62.6843 32.2836 63.5093 31.5136C64.3344 30.7435 65.0356 29.7948 65.6132 28.6672C65.4757 27.8147 65.4069 26.7147 65.4069 25.3671C65.4069 24.0196 65.4757 22.5208 65.6132 20.8707H57.7754C57.6929 22.1908 57.6517 23.5383 57.6517 24.9134C57.6517 27.6909 57.9404 29.6848 58.5179 30.8948C59.123 32.0773 59.9617 32.6686 61.0343 32.6686ZM101.092 27.8835C101.449 27.8835 101.724 28.0622 101.917 28.4197C102.137 28.7497 102.247 29.176 102.247 29.6985C102.247 30.331 102.15 30.826 101.958 31.1836C101.765 31.5411 101.463 31.8573 101.05 32.1323L93.1301 37.4538C92.085 43.1465 90.71 47.6153 89.0049 50.8605C87.3274 54.1331 85.1823 55.7694 82.5697 55.7694C81.1672 55.7694 80.0259 55.3293 79.1459 54.4493C78.2658 53.5968 77.8258 52.4693 77.8258 51.0667C77.8258 49.7742 78.1146 48.4541 78.6921 47.1066C79.2971 45.759 80.3972 44.2052 81.9922 42.4452C83.6148 40.7126 85.8973 38.7188 88.8399 36.4637L88.9637 35.515C89.1562 34.4974 89.3762 33.0399 89.6237 31.1423C89.0737 33.1224 88.3037 34.6349 87.3136 35.68C86.3236 36.6975 85.2786 37.2063 84.1785 37.2063C82.941 37.2063 81.9235 36.6425 81.1259 35.515C80.3559 34.3599 79.9709 32.9299 79.9709 31.2248C79.9709 29.1622 80.1084 27.2784 80.3834 25.5734C80.6584 23.8408 81.1122 22.012 81.7447 20.0869C82.0197 19.2619 82.4047 18.6707 82.8997 18.3131C83.3947 17.9556 84.1785 17.7769 85.2511 17.7769C85.8561 17.7769 86.2686 17.8731 86.4886 18.0656C86.7361 18.2581 86.8599 18.5469 86.8599 18.9319C86.8599 19.1519 86.7086 19.8944 86.4061 21.1595C86.1311 22.177 85.9111 23.0983 85.7461 23.9233C85.5261 25.0509 85.3336 26.1371 85.1686 27.1822C85.0036 28.1997 84.921 29.0385 84.921 29.6985C84.921 30.7435 85.2098 31.2661 85.7873 31.2661C86.1998 31.2661 86.7086 30.8535 87.3136 30.0285C87.9461 29.2035 88.6062 27.9522 89.2937 26.2747C90.0087 24.5971 90.6962 22.5345 91.3563 20.0869C91.5763 19.2619 91.9063 18.6707 92.3463 18.3131C92.8138 17.9556 93.5013 17.7769 94.4089 17.7769C95.0414 17.7769 95.4814 17.8594 95.7289 18.0244C95.9764 18.1894 96.1002 18.4644 96.1002 18.8494C96.1002 19.5369 95.7427 21.902 95.0276 25.9446L93.9551 32.5861C96.0727 30.9911 98.1352 29.5335 100.143 28.2135C100.5 27.9935 100.817 27.8835 101.092 27.8835ZM83.0235 51.768C83.711 51.768 84.481 50.9705 85.3336 49.3754C86.1861 47.7804 87.0386 45.1265 87.8911 41.4139C85.7736 43.2015 84.2335 44.824 83.271 46.2816C82.336 47.7666 81.8684 49.0591 81.8684 50.1592C81.8684 50.6267 81.951 51.0117 82.116 51.3142C82.3085 51.6167 82.611 51.768 83.0235 51.768Z"/>
<path d="M107.301 37.2063C106.283 37.2063 105.554 36.9862 105.114 36.5462C104.674 36.0787 104.454 35.2124 104.454 33.9474C104.454 33.0949 104.537 32.0086 104.702 30.6885C104.894 29.341 105.197 27.4984 105.609 25.1609C106.324 20.8432 106.888 17.1031 107.301 13.9405C107.548 11.9604 107.672 10.3104 107.672 8.99034C107.672 7.7528 107.218 7.13403 106.311 7.13403C105.595 7.13403 104.729 7.50529 103.712 8.24781C102.722 8.96284 101.622 10.1179 100.412 11.7129C100.027 12.2354 99.6003 12.4967 99.1328 12.4967C98.7478 12.4967 98.404 12.3179 98.1015 11.9604C97.8265 11.5754 97.689 11.1492 97.689 10.6816C97.689 10.2416 97.7715 9.80161 97.9365 9.3616C98.129 8.89408 98.4315 8.37157 98.844 7.79405C100.164 5.95149 101.635 4.53519 103.258 3.54516C104.88 2.52763 106.503 2.01886 108.126 2.01886C109.638 2.01886 110.793 2.50013 111.591 3.46266C112.416 4.42519 112.828 5.82773 112.828 7.67029C112.828 8.41282 112.759 9.29285 112.622 10.3104C112.484 11.3004 112.361 12.1117 112.251 12.7442C112.141 13.3767 112.058 13.8167 112.003 14.0643C113.571 9.58161 115.331 6.46025 117.283 4.7002C119.236 2.91264 121.381 2.01886 123.719 2.01886C125.506 2.01886 126.909 2.65138 127.926 3.91642C128.971 5.18146 129.494 6.96902 129.494 9.2791C129.494 10.1866 129.37 11.3142 129.123 12.6617C130.498 8.86658 132.106 6.14399 133.949 4.49394C135.791 2.84389 137.909 2.01886 140.302 2.01886C142.227 2.01886 143.698 2.63763 144.716 3.87517C145.761 5.11271 146.283 6.84527 146.283 9.07284C146.283 10.2829 146.104 11.7542 145.747 13.4867L143.23 25.2846C142.955 26.6597 142.818 27.8422 142.818 28.8322C142.818 29.9873 143.079 30.8535 143.602 31.4311C144.152 32.0086 144.908 32.2973 145.871 32.2973C146.778 32.2973 147.658 31.9948 148.511 31.3898C149.391 30.7848 150.422 29.781 151.604 28.3785C151.935 27.9935 152.306 27.801 152.718 27.801C153.076 27.801 153.351 27.966 153.543 28.296C153.763 28.626 153.873 29.0797 153.873 29.6573C153.873 30.7298 153.612 31.5823 153.09 32.2148C151.659 33.9474 150.243 35.2124 148.841 36.01C147.438 36.8075 145.967 37.2063 144.427 37.2063C142.089 37.2063 140.26 36.5187 138.94 35.1437C137.62 33.7411 136.96 31.8711 136.96 29.5335C136.96 27.911 137.29 25.5596 137.95 22.4795L139.6 14.9305C139.655 14.683 139.752 14.243 139.889 13.6105C140.027 12.978 140.137 12.3867 140.219 11.8367C140.302 11.2592 140.343 10.6954 140.343 10.1454C140.343 9.18284 140.15 8.46782 139.765 8.00031C139.408 7.50529 138.885 7.25778 138.198 7.25778C136.905 7.25778 135.544 8.09656 134.114 9.77411C132.711 11.4242 131.364 14.1743 130.071 18.0244C128.806 21.8745 127.775 26.8797 126.977 33.0399C126.785 34.6899 126.441 35.8037 125.946 36.3812C125.479 36.9312 124.709 37.2063 123.636 37.2063C122.701 37.2063 122.014 36.9862 121.574 36.5462C121.161 36.1062 120.955 35.2812 120.955 34.0712C120.955 32.9436 121.106 31.4723 121.409 29.6573C121.711 27.8147 122.096 25.6559 122.564 23.1808C123.829 16.5256 124.461 12.2354 124.461 10.3104C124.461 9.26535 124.255 8.49532 123.842 8.00031C123.457 7.50529 122.866 7.25778 122.069 7.25778C120.721 7.25778 119.332 8.02781 117.902 9.56786C116.472 11.0804 115.07 13.7892 113.695 17.6944C112.347 21.572 111.219 26.8247 110.312 33.4524C110.119 34.8549 109.831 35.8312 109.446 36.3812C109.088 36.9312 108.373 37.2063 107.301 37.2063ZM155.623 37.2063C153.918 37.2063 152.557 36.5875 151.539 35.3499C150.522 34.1124 150.013 32.4899 150.013 30.4823C150.013 28.2822 150.522 26.2059 151.539 24.2533C152.557 22.2733 153.904 20.692 155.582 19.5094C157.287 18.2994 159.088 17.6944 160.986 17.6944C161.591 17.6944 161.99 17.8181 162.182 18.0656C162.402 18.2856 162.581 18.6982 162.719 19.3032C163.296 19.1932 163.901 19.1382 164.534 19.1382C165.881 19.1382 166.555 19.6194 166.555 20.582C166.555 21.1595 166.349 22.5345 165.936 24.7071C165.304 27.8697 164.987 30.0698 164.987 31.3073C164.987 31.7198 165.084 32.0498 165.276 32.2973C165.496 32.5449 165.771 32.6686 166.101 32.6686C166.624 32.6686 167.256 32.3386 167.999 31.6786C168.741 30.9911 169.745 29.891 171.01 28.3785C171.34 27.9935 171.711 27.801 172.124 27.801C172.481 27.801 172.756 27.966 172.949 28.296C173.169 28.626 173.279 29.0797 173.279 29.6573C173.279 30.7573 173.018 31.6098 172.495 32.2148C171.368 33.6174 170.171 34.7999 168.906 35.7625C167.641 36.725 166.417 37.2063 165.235 37.2063C164.327 37.2063 163.489 36.9037 162.719 36.2987C161.976 35.6662 161.412 34.8137 161.027 33.7411C159.597 36.0512 157.796 37.2063 155.623 37.2063ZM157.108 33.0399C157.713 33.0399 158.291 32.6824 158.841 31.9673C159.391 31.2523 159.79 30.3035 160.037 29.121L161.563 21.5307C160.408 21.5582 159.336 21.9983 158.346 22.8508C157.383 23.6758 156.613 24.7759 156.036 26.1509C155.458 27.5259 155.17 28.9835 155.17 30.5235C155.17 31.3761 155.335 32.0086 155.665 32.4211C156.022 32.8336 156.503 33.0399 157.108 33.0399ZM172.855 37.2063C171.81 37.2063 171.067 36.6562 170.627 35.5562C170.215 34.4562 170.009 32.6961 170.009 30.276C170.009 26.7009 170.517 23.3046 171.535 20.0869C171.783 19.2894 172.181 18.7119 172.731 18.3544C173.309 17.9694 174.106 17.7769 175.124 17.7769C175.674 17.7769 176.059 17.8456 176.279 17.9831C176.499 18.1206 176.609 18.3819 176.609 18.7669C176.609 19.2069 176.403 20.197 175.99 21.737C175.715 22.837 175.495 23.7996 175.33 24.6246C175.165 25.4496 175.028 26.4672 174.918 27.6772C175.825 25.3121 176.843 23.3871 177.97 21.902C179.098 20.417 180.198 19.3582 181.27 18.7257C182.37 18.0931 183.374 17.7769 184.282 17.7769C185.162 17.7769 185.822 18.0106 186.262 18.4781C186.729 18.9182 186.963 19.5782 186.963 20.4582C186.963 21.1732 186.812 22.5208 186.509 24.5008C186.234 26.1784 186.014 27.7734 185.849 29.286C185.684 30.771 185.602 32.4349 185.602 34.2774C185.602 35.3224 185.382 36.0787 184.942 36.5462C184.529 36.9862 183.842 37.2063 182.879 37.2063C181.972 37.2063 181.312 36.9725 180.899 36.505C180.487 36.0375 180.28 35.3362 180.28 34.4012C180.28 33.3011 180.473 31.4861 180.858 28.956C181.188 26.7559 181.353 25.3534 181.353 24.7484C181.353 24.3083 181.202 24.0883 180.899 24.0883C180.542 24.0883 180.033 24.5558 179.373 25.4909C178.74 26.3984 178.08 27.6084 177.393 29.121C176.733 30.6335 176.196 32.2286 175.784 33.9061C175.481 35.1987 175.124 36.0787 174.711 36.5462C174.326 36.9862 173.708 37.2063 172.855 37.2063Z"/>
</mask>
<path d="M35.8062 10.5991C35.8062 12.9367 34.9811 14.958 33.3311 16.6631C31.681 18.3406 29.2747 19.5507 26.1121 20.2932C27.8172 20.7607 29.1097 21.5307 29.9897 22.6033C30.8698 23.6483 31.3098 24.8584 31.3098 26.2334C31.3098 28.406 30.6222 30.2898 29.2472 31.8848C27.8997 33.4799 25.9196 34.7174 23.307 35.5975C20.6944 36.45 17.5456 36.8762 13.8605 36.8762C12.4854 36.8762 11.3854 36.835 10.5603 36.7525C10.5328 37.5225 10.2028 38.1 9.57031 38.485C8.93779 38.8701 8.12651 39.0626 7.13648 39.0626C6.14645 39.0626 5.45893 38.8426 5.07392 38.4025C4.7164 37.9625 4.56515 37.3163 4.62015 36.4637C4.86766 32.6136 5.34892 28.5847 6.06395 24.3771C6.77897 20.142 7.6865 16.0581 8.78654 12.1254C8.97904 11.4379 9.36406 10.9567 9.94157 10.6816C10.5191 10.4066 11.2754 10.2691 12.2104 10.2691C13.888 10.2691 14.7267 10.7366 14.7267 11.6717C14.7267 12.0567 14.6442 12.4967 14.4792 12.9917C13.7642 15.1368 13.0492 18.0519 12.3342 21.737C11.6191 25.3946 11.1104 28.8872 10.8079 32.2148C12.1279 32.3248 13.2004 32.3798 14.0255 32.3798C17.8756 32.3798 20.6944 31.8298 22.482 30.7298C24.297 29.6023 25.2046 28.1722 25.2046 26.4397C25.2046 25.2296 24.6821 24.2121 23.637 23.3871C22.6195 22.562 20.9007 22.1083 18.4806 22.0258C17.9306 21.9983 17.5456 21.8608 17.3256 21.6132C17.1056 21.3657 16.9956 20.967 16.9956 20.417C16.9956 19.6194 17.1606 18.9732 17.4906 18.4781C17.8206 17.9831 18.4256 17.7219 19.3056 17.6944C21.2582 17.6394 23.0183 17.3506 24.5858 16.8281C26.1809 16.3056 27.4321 15.5768 28.3397 14.6418C29.2472 13.6792 29.701 12.5655 29.701 11.3004C29.701 9.70536 28.9172 8.45407 27.3496 7.54654C25.7821 6.61151 23.3758 6.14399 20.1307 6.14399C17.1881 6.14399 14.3417 6.52901 11.5916 7.29903C8.84154 8.04156 6.50396 8.99034 4.5789 10.1454C3.69887 10.6679 2.95635 10.9292 2.35133 10.9292C1.85631 10.9292 1.4713 10.7641 1.19629 10.4341C0.948781 10.0766 0.825027 9.63661 0.825027 9.11409C0.825027 8.42657 0.962531 7.8353 1.23754 7.34028C1.54005 6.84527 2.24132 6.2815 3.34136 5.64898C5.65143 4.32894 8.36027 3.29765 11.4679 2.55513C14.5755 1.8126 17.7518 1.44134 20.9969 1.44134C25.9746 1.44134 29.6872 2.28012 32.1348 3.95767C34.5824 5.63523 35.8062 7.84905 35.8062 10.5991ZM53.0489 27.801C53.4064 27.801 53.6814 27.966 53.8739 28.296C54.0939 28.626 54.2039 29.0797 54.2039 29.6573C54.2039 30.7573 53.9427 31.6098 53.4202 32.2148C52.4026 33.4524 50.9588 34.5937 49.0888 35.6387C47.2462 36.6837 45.2662 37.2063 43.1486 37.2063C40.261 37.2063 38.0197 36.4225 36.4246 34.8549C34.8296 33.2874 34.032 31.1423 34.032 28.4197C34.032 26.5222 34.4308 24.7621 35.2283 23.1395C36.0259 21.4895 37.1259 20.1832 38.5284 19.2207C39.9585 18.2581 41.5673 17.7769 43.3548 17.7769C44.9499 17.7769 46.2287 18.2581 47.1912 19.2207C48.1537 20.1557 48.635 21.4345 48.635 23.057C48.635 24.9546 47.9475 26.5909 46.5724 27.966C45.2249 29.3135 42.9286 30.386 39.6835 31.1836C40.371 32.4486 41.6773 33.0811 43.6023 33.0811C44.8399 33.0811 46.2424 32.6549 47.81 31.8023C49.405 30.9223 50.7801 29.781 51.9351 28.3785C52.2651 27.9935 52.6364 27.801 53.0489 27.801ZM42.6536 21.8195C41.636 21.8195 40.7698 22.4108 40.0547 23.5933C39.3672 24.7759 39.0234 26.2059 39.0234 27.8835V27.966C40.646 27.5809 41.9248 27.0034 42.8598 26.2334C43.7949 25.4634 44.2624 24.5696 44.2624 23.5521C44.2624 23.0295 44.1111 22.617 43.8086 22.3145C43.5336 21.9845 43.1486 21.8195 42.6536 21.8195ZM82.155 27.801C82.5125 27.801 82.7875 27.966 82.98 28.296C83.2 28.626 83.31 29.0797 83.31 29.6573C83.31 30.7573 83.0487 31.6098 82.5262 32.2148C81.3437 33.6724 80.0511 34.8687 78.6486 35.8037C77.246 36.7387 75.6372 37.2063 73.8222 37.2063C70.4671 37.2063 68.1295 35.8037 66.8095 32.9986C66.0944 34.1537 65.1456 35.1437 63.9631 35.9687C62.7806 36.7937 61.5155 37.2063 60.168 37.2063C57.5554 37.2063 55.6303 36.1475 54.3928 34.0299C53.1828 31.8848 52.5777 28.9972 52.5777 25.3671C52.5777 24.0196 52.6465 22.5208 52.784 20.8707H51.0927C50.2677 20.8707 49.7039 20.7195 49.4014 20.417C49.1264 20.1144 48.9889 19.6332 48.9889 18.9732C48.9889 17.4331 49.6076 16.6631 50.8452 16.6631H53.3615C53.884 13.748 54.6128 11.1079 55.5478 8.74283C56.4829 6.37775 57.6104 4.49394 58.9304 3.0914C60.2505 1.68885 61.6805 0.987577 63.2206 0.987577C64.3756 0.987577 65.2832 1.49634 65.9432 2.51388C66.6032 3.53141 66.9332 4.8102 66.9332 6.35025C66.9332 10.2279 65.4344 13.6655 62.4368 16.6631H66.1907C66.7132 13.748 67.442 11.1079 68.377 8.74283C69.312 6.37775 70.4396 4.49394 71.7596 3.0914C73.0797 1.68885 74.5097 0.987577 76.0498 0.987577C77.2048 0.987577 78.1123 1.49634 78.7723 2.51388C79.4324 3.53141 79.7624 4.8102 79.7624 6.35025C79.7624 10.2279 78.2636 13.6655 75.266 16.6631H79.0198C79.4599 16.6631 79.7761 16.7593 79.9686 16.9518C80.1611 17.1444 80.2574 17.5019 80.2574 18.0244C80.2574 19.9219 78.7036 20.8707 75.596 20.8707H70.6046C70.5221 22.1908 70.4808 23.5383 70.4808 24.9134C70.4808 27.7734 70.8108 29.781 71.4709 30.9361C72.1584 32.0911 73.2309 32.6686 74.6885 32.6686C75.871 32.6686 76.916 32.3111 77.8236 31.5961C78.7311 30.8811 79.8036 29.8085 81.0412 28.3785C81.3712 27.9935 81.7424 27.801 82.155 27.801ZM62.1068 4.94771C61.6943 4.94771 61.2268 5.47022 60.7043 6.51526C60.2092 7.53279 59.728 8.96284 59.2605 10.8054C58.8204 12.6205 58.4492 14.6418 58.1467 16.8693C59.7692 15.4668 60.9793 13.8992 61.7768 12.1667C62.6018 10.4066 63.0143 8.81158 63.0143 7.38153C63.0143 5.75898 62.7118 4.94771 62.1068 4.94771ZM74.936 4.94771C74.5235 4.94771 74.0559 5.47022 73.5334 6.51526C73.0384 7.53279 72.5571 8.96284 72.0896 10.8054C71.6496 12.6205 71.2783 14.6418 70.9758 16.8693C72.5984 15.4668 73.8084 13.8992 74.606 12.1667C75.431 10.4066 75.8435 8.81158 75.8435 7.38153C75.8435 5.75898 75.541 4.94771 74.936 4.94771ZM61.0343 32.6686C61.8593 32.6686 62.6843 32.2836 63.5093 31.5136C64.3344 30.7435 65.0356 29.7948 65.6132 28.6672C65.4757 27.8147 65.4069 26.7147 65.4069 25.3671C65.4069 24.0196 65.4757 22.5208 65.6132 20.8707H57.7754C57.6929 22.1908 57.6517 23.5383 57.6517 24.9134C57.6517 27.6909 57.9404 29.6848 58.5179 30.8948C59.123 32.0773 59.9617 32.6686 61.0343 32.6686ZM101.092 27.8835C101.449 27.8835 101.724 28.0622 101.917 28.4197C102.137 28.7497 102.247 29.176 102.247 29.6985C102.247 30.331 102.15 30.826 101.958 31.1836C101.765 31.5411 101.463 31.8573 101.05 32.1323L93.1301 37.4538C92.085 43.1465 90.71 47.6153 89.0049 50.8605C87.3274 54.1331 85.1823 55.7694 82.5697 55.7694C81.1672 55.7694 80.0259 55.3293 79.1459 54.4493C78.2658 53.5968 77.8258 52.4693 77.8258 51.0667C77.8258 49.7742 78.1146 48.4541 78.6921 47.1066C79.2971 45.759 80.3972 44.2052 81.9922 42.4452C83.6148 40.7126 85.8973 38.7188 88.8399 36.4637L88.9637 35.515C89.1562 34.4974 89.3762 33.0399 89.6237 31.1423C89.0737 33.1224 88.3037 34.6349 87.3136 35.68C86.3236 36.6975 85.2786 37.2063 84.1785 37.2063C82.941 37.2063 81.9235 36.6425 81.1259 35.515C80.3559 34.3599 79.9709 32.9299 79.9709 31.2248C79.9709 29.1622 80.1084 27.2784 80.3834 25.5734C80.6584 23.8408 81.1122 22.012 81.7447 20.0869C82.0197 19.2619 82.4047 18.6707 82.8997 18.3131C83.3947 17.9556 84.1785 17.7769 85.2511 17.7769C85.8561 17.7769 86.2686 17.8731 86.4886 18.0656C86.7361 18.2581 86.8599 18.5469 86.8599 18.9319C86.8599 19.1519 86.7086 19.8944 86.4061 21.1595C86.1311 22.177 85.9111 23.0983 85.7461 23.9233C85.5261 25.0509 85.3336 26.1371 85.1686 27.1822C85.0036 28.1997 84.921 29.0385 84.921 29.6985C84.921 30.7435 85.2098 31.2661 85.7873 31.2661C86.1998 31.2661 86.7086 30.8535 87.3136 30.0285C87.9461 29.2035 88.6062 27.9522 89.2937 26.2747C90.0087 24.5971 90.6962 22.5345 91.3563 20.0869C91.5763 19.2619 91.9063 18.6707 92.3463 18.3131C92.8138 17.9556 93.5013 17.7769 94.4089 17.7769C95.0414 17.7769 95.4814 17.8594 95.7289 18.0244C95.9764 18.1894 96.1002 18.4644 96.1002 18.8494C96.1002 19.5369 95.7427 21.902 95.0276 25.9446L93.9551 32.5861C96.0727 30.9911 98.1352 29.5335 100.143 28.2135C100.5 27.9935 100.817 27.8835 101.092 27.8835ZM83.0235 51.768C83.711 51.768 84.481 50.9705 85.3336 49.3754C86.1861 47.7804 87.0386 45.1265 87.8911 41.4139C85.7736 43.2015 84.2335 44.824 83.271 46.2816C82.336 47.7666 81.8684 49.0591 81.8684 50.1592C81.8684 50.6267 81.951 51.0117 82.116 51.3142C82.3085 51.6167 82.611 51.768 83.0235 51.768Z" fill="white"/>
<path d="M107.301 37.2063C106.283 37.2063 105.554 36.9862 105.114 36.5462C104.674 36.0787 104.454 35.2124 104.454 33.9474C104.454 33.0949 104.537 32.0086 104.702 30.6885C104.894 29.341 105.197 27.4984 105.609 25.1609C106.324 20.8432 106.888 17.1031 107.301 13.9405C107.548 11.9604 107.672 10.3104 107.672 8.99034C107.672 7.7528 107.218 7.13403 106.311 7.13403C105.595 7.13403 104.729 7.50529 103.712 8.24781C102.722 8.96284 101.622 10.1179 100.412 11.7129C100.027 12.2354 99.6003 12.4967 99.1328 12.4967C98.7478 12.4967 98.404 12.3179 98.1015 11.9604C97.8265 11.5754 97.689 11.1492 97.689 10.6816C97.689 10.2416 97.7715 9.80161 97.9365 9.3616C98.129 8.89408 98.4315 8.37157 98.844 7.79405C100.164 5.95149 101.635 4.53519 103.258 3.54516C104.88 2.52763 106.503 2.01886 108.126 2.01886C109.638 2.01886 110.793 2.50013 111.591 3.46266C112.416 4.42519 112.828 5.82773 112.828 7.67029C112.828 8.41282 112.759 9.29285 112.622 10.3104C112.484 11.3004 112.361 12.1117 112.251 12.7442C112.141 13.3767 112.058 13.8167 112.003 14.0643C113.571 9.58161 115.331 6.46025 117.283 4.7002C119.236 2.91264 121.381 2.01886 123.719 2.01886C125.506 2.01886 126.909 2.65138 127.926 3.91642C128.971 5.18146 129.494 6.96902 129.494 9.2791C129.494 10.1866 129.37 11.3142 129.123 12.6617C130.498 8.86658 132.106 6.14399 133.949 4.49394C135.791 2.84389 137.909 2.01886 140.302 2.01886C142.227 2.01886 143.698 2.63763 144.716 3.87517C145.761 5.11271 146.283 6.84527 146.283 9.07284C146.283 10.2829 146.104 11.7542 145.747 13.4867L143.23 25.2846C142.955 26.6597 142.818 27.8422 142.818 28.8322C142.818 29.9873 143.079 30.8535 143.602 31.4311C144.152 32.0086 144.908 32.2973 145.871 32.2973C146.778 32.2973 147.658 31.9948 148.511 31.3898C149.391 30.7848 150.422 29.781 151.604 28.3785C151.935 27.9935 152.306 27.801 152.718 27.801C153.076 27.801 153.351 27.966 153.543 28.296C153.763 28.626 153.873 29.0797 153.873 29.6573C153.873 30.7298 153.612 31.5823 153.09 32.2148C151.659 33.9474 150.243 35.2124 148.841 36.01C147.438 36.8075 145.967 37.2063 144.427 37.2063C142.089 37.2063 140.26 36.5187 138.94 35.1437C137.62 33.7411 136.96 31.8711 136.96 29.5335C136.96 27.911 137.29 25.5596 137.95 22.4795L139.6 14.9305C139.655 14.683 139.752 14.243 139.889 13.6105C140.027 12.978 140.137 12.3867 140.219 11.8367C140.302 11.2592 140.343 10.6954 140.343 10.1454C140.343 9.18284 140.15 8.46782 139.765 8.00031C139.408 7.50529 138.885 7.25778 138.198 7.25778C136.905 7.25778 135.544 8.09656 134.114 9.77411C132.711 11.4242 131.364 14.1743 130.071 18.0244C128.806 21.8745 127.775 26.8797 126.977 33.0399C126.785 34.6899 126.441 35.8037 125.946 36.3812C125.479 36.9312 124.709 37.2063 123.636 37.2063C122.701 37.2063 122.014 36.9862 121.574 36.5462C121.161 36.1062 120.955 35.2812 120.955 34.0712C120.955 32.9436 121.106 31.4723 121.409 29.6573C121.711 27.8147 122.096 25.6559 122.564 23.1808C123.829 16.5256 124.461 12.2354 124.461 10.3104C124.461 9.26535 124.255 8.49532 123.842 8.00031C123.457 7.50529 122.866 7.25778 122.069 7.25778C120.721 7.25778 119.332 8.02781 117.902 9.56786C116.472 11.0804 115.07 13.7892 113.695 17.6944C112.347 21.572 111.219 26.8247 110.312 33.4524C110.119 34.8549 109.831 35.8312 109.446 36.3812C109.088 36.9312 108.373 37.2063 107.301 37.2063ZM155.623 37.2063C153.918 37.2063 152.557 36.5875 151.539 35.3499C150.522 34.1124 150.013 32.4899 150.013 30.4823C150.013 28.2822 150.522 26.2059 151.539 24.2533C152.557 22.2733 153.904 20.692 155.582 19.5094C157.287 18.2994 159.088 17.6944 160.986 17.6944C161.591 17.6944 161.99 17.8181 162.182 18.0656C162.402 18.2856 162.581 18.6982 162.719 19.3032C163.296 19.1932 163.901 19.1382 164.534 19.1382C165.881 19.1382 166.555 19.6194 166.555 20.582C166.555 21.1595 166.349 22.5345 165.936 24.7071C165.304 27.8697 164.987 30.0698 164.987 31.3073C164.987 31.7198 165.084 32.0498 165.276 32.2973C165.496 32.5449 165.771 32.6686 166.101 32.6686C166.624 32.6686 167.256 32.3386 167.999 31.6786C168.741 30.9911 169.745 29.891 171.01 28.3785C171.34 27.9935 171.711 27.801 172.124 27.801C172.481 27.801 172.756 27.966 172.949 28.296C173.169 28.626 173.279 29.0797 173.279 29.6573C173.279 30.7573 173.018 31.6098 172.495 32.2148C171.368 33.6174 170.171 34.7999 168.906 35.7625C167.641 36.725 166.417 37.2063 165.235 37.2063C164.327 37.2063 163.489 36.9037 162.719 36.2987C161.976 35.6662 161.412 34.8137 161.027 33.7411C159.597 36.0512 157.796 37.2063 155.623 37.2063ZM157.108 33.0399C157.713 33.0399 158.291 32.6824 158.841 31.9673C159.391 31.2523 159.79 30.3035 160.037 29.121L161.563 21.5307C160.408 21.5582 159.336 21.9983 158.346 22.8508C157.383 23.6758 156.613 24.7759 156.036 26.1509C155.458 27.5259 155.17 28.9835 155.17 30.5235C155.17 31.3761 155.335 32.0086 155.665 32.4211C156.022 32.8336 156.503 33.0399 157.108 33.0399ZM172.855 37.2063C171.81 37.2063 171.067 36.6562 170.627 35.5562C170.215 34.4562 170.009 32.6961 170.009 30.276C170.009 26.7009 170.517 23.3046 171.535 20.0869C171.783 19.2894 172.181 18.7119 172.731 18.3544C173.309 17.9694 174.106 17.7769 175.124 17.7769C175.674 17.7769 176.059 17.8456 176.279 17.9831C176.499 18.1206 176.609 18.3819 176.609 18.7669C176.609 19.2069 176.403 20.197 175.99 21.737C175.715 22.837 175.495 23.7996 175.33 24.6246C175.165 25.4496 175.028 26.4672 174.918 27.6772C175.825 25.3121 176.843 23.3871 177.97 21.902C179.098 20.417 180.198 19.3582 181.27 18.7257C182.37 18.0931 183.374 17.7769 184.282 17.7769C185.162 17.7769 185.822 18.0106 186.262 18.4781C186.729 18.9182 186.963 19.5782 186.963 20.4582C186.963 21.1732 186.812 22.5208 186.509 24.5008C186.234 26.1784 186.014 27.7734 185.849 29.286C185.684 30.771 185.602 32.4349 185.602 34.2774C185.602 35.3224 185.382 36.0787 184.942 36.5462C184.529 36.9862 183.842 37.2063 182.879 37.2063C181.972 37.2063 181.312 36.9725 180.899 36.505C180.487 36.0375 180.28 35.3362 180.28 34.4012C180.28 33.3011 180.473 31.4861 180.858 28.956C181.188 26.7559 181.353 25.3534 181.353 24.7484C181.353 24.3083 181.202 24.0883 180.899 24.0883C180.542 24.0883 180.033 24.5558 179.373 25.4909C178.74 26.3984 178.08 27.6084 177.393 29.121C176.733 30.6335 176.196 32.2286 175.784 33.9061C175.481 35.1987 175.124 36.0787 174.711 36.5462C174.326 36.9862 173.708 37.2063 172.855 37.2063Z" fill="#FFBC11"/>
<path d="M33.3311 16.6631L36.3092 19.5924L36.3211 19.5803L36.3329 19.5681L33.3311 16.6631ZM26.1121 20.2932L25.1573 16.2265L25.0075 24.3218L26.1121 20.2932ZM29.9897 22.6033L26.7604 25.253L26.7773 25.2736L26.7945 25.294L29.9897 22.6033ZM29.2472 31.8848L26.0833 29.1573L26.0697 29.1731L26.0562 29.189L29.2472 31.8848ZM23.307 35.5975L24.6029 39.5687L24.6217 39.5625L24.6405 39.5562L23.307 35.5975ZM10.5603 36.7525L10.976 32.5959L6.54465 32.1528L6.3857 36.6034L10.5603 36.7525ZM9.57031 38.4851L7.39834 34.9168H7.39834L9.57031 38.4851ZM5.07392 38.4025L1.83185 41.0367L1.87995 41.0959L1.93018 41.1533L5.07392 38.4025ZM4.62015 36.4637L8.78879 36.7327L8.78885 36.7317L4.62015 36.4637ZM6.06395 24.3771L10.1822 25.0769L10.183 25.0725L6.06395 24.3771ZM8.78654 12.1254L4.76394 10.9991L4.76365 11.0002L8.78654 12.1254ZM9.94157 10.6816L8.14561 6.91012H8.14561L9.94157 10.6816ZM14.4792 12.9917L10.5163 11.6707L10.5163 11.6707L14.4792 12.9917ZM12.3342 21.737L16.4339 22.5384L16.435 22.5327L12.3342 21.737ZM10.8079 32.2148L6.64771 31.8367L6.26666 36.0282L10.4609 36.3777L10.8079 32.2148ZM22.482 30.7298L24.6713 34.2874L24.6788 34.2828L24.6863 34.2782L22.482 30.7298ZM23.637 23.3871L21.0061 26.6318L21.0273 26.6489L21.0486 26.6657L23.637 23.3871ZM18.4806 22.0258L18.272 26.1979L18.3051 26.1995L18.3383 26.2006L18.4806 22.0258ZM17.3256 21.6132L14.2034 24.3885L14.2034 24.3885L17.3256 21.6132ZM17.4906 18.4781L14.0148 16.161H14.0148L17.4906 18.4781ZM19.3056 17.6944L19.188 13.5187L19.1751 13.5191L19.3056 17.6944ZM24.5858 16.8281L23.2854 12.8584L23.2751 12.8617L23.2648 12.8652L24.5858 16.8281ZM28.3397 14.6418L31.3372 17.5512L31.3583 17.5295L31.379 17.5075L28.3397 14.6418ZM27.3496 7.54654L25.2097 11.1341L25.2331 11.148L25.2567 11.1617L27.3496 7.54654ZM11.5916 7.29903L12.6805 11.3319L12.6993 11.3269L12.718 11.3216L11.5916 7.29903ZM4.5789 10.1454L6.71157 13.7372L6.71985 13.7323L6.7281 13.7274L4.5789 10.1454ZM1.19629 10.4341L-2.23825 12.8119L-2.13214 12.9652L-2.01281 13.1084L1.19629 10.4341ZM1.23754 7.34028L-2.32688 5.16203L-2.37203 5.23591L-2.41408 5.31161L1.23754 7.34028ZM3.34136 5.64898L1.26883 2.02205L1.25909 2.02765L3.34136 5.64898ZM11.4679 2.55513L12.4387 6.61806H12.4387L11.4679 2.55513ZM32.1348 3.95767L34.4964 0.512014L32.1348 3.95767ZM31.6289 10.5991C31.6289 11.8345 31.238 12.819 30.3293 13.7581L36.3329 19.5681C38.7243 17.097 39.9835 14.039 39.9835 10.5991H31.6289ZM30.353 13.7338C29.4292 14.673 27.8331 15.5983 25.1573 16.2265L27.0669 24.3599C30.7163 23.5031 33.9329 22.0083 36.3092 19.5924L30.353 13.7338ZM25.0075 24.3218C26.1079 24.6235 26.5624 25.0118 26.7604 25.253L33.2191 19.9535C31.657 18.0497 29.5265 16.8979 27.2167 16.2646L25.0075 24.3218ZM26.7945 25.294C27.0358 25.5806 27.1325 25.836 27.1325 26.2334H35.4871C35.4871 23.8807 34.7037 21.716 33.185 19.9125L26.7945 25.294ZM27.1325 26.2334C27.1325 27.4394 26.7823 28.3464 26.0833 29.1573L32.4111 34.6124C34.4622 32.2331 35.4871 29.3726 35.4871 26.2334H27.1325ZM26.0562 29.189C25.3347 30.0431 24.0888 30.9262 21.9735 31.6387L24.6405 39.5562C27.7504 38.5087 30.4646 36.9167 32.4382 34.5807L26.0562 29.189ZM22.0111 31.6262C19.9321 32.3047 17.2456 32.6989 13.8605 32.6989V41.0535C17.8456 41.0535 21.4568 40.5953 24.6029 39.5687L22.0111 31.6262ZM13.8605 32.6989C12.5468 32.6989 11.6029 32.6586 10.976 32.5959L10.1447 40.9091C11.1679 41.0114 12.424 41.0535 13.8605 41.0535V32.6989ZM6.3857 36.6034C6.39226 36.4199 6.44508 36.076 6.6653 35.6906C6.88932 35.2986 7.18063 35.0493 7.39834 34.9168L11.7423 42.0533C13.6321 40.903 14.6598 39.0072 14.735 36.9016L6.3857 36.6034ZM7.39834 34.9168C7.49992 34.855 7.55561 34.846 7.52302 34.8537C7.48573 34.8626 7.36534 34.8853 7.13648 34.8853V43.2399C8.64209 43.2399 10.2701 42.9494 11.7423 42.0533L7.39834 34.9168ZM7.13648 34.8853C6.92497 34.8853 6.9627 34.8586 7.15146 34.919C7.36221 34.9864 7.80464 35.1798 8.21766 35.6518L1.93018 41.1533C3.51575 42.9654 5.7425 43.2399 7.13648 43.2399V34.8853ZM8.31598 35.7684C8.59883 36.1165 8.71568 36.4477 8.75973 36.6359C8.80004 36.8081 8.78055 36.8603 8.78879 36.7327L0.451514 36.1948C0.362258 37.5783 0.543153 39.4506 1.83185 41.0367L8.31598 35.7684ZM8.78885 36.7317C9.02614 33.0406 9.48897 29.1564 10.1822 25.0769L1.94568 23.6773C1.20888 28.0131 0.709182 32.1866 0.451453 36.1957L8.78885 36.7317ZM10.183 25.0725C10.8748 20.9748 11.7509 17.0348 12.8094 13.2507L4.76365 11.0002C3.62206 15.0814 2.68317 19.3091 1.94494 23.6817L10.183 25.0725ZM12.8091 13.2518C12.7778 13.3637 12.6908 13.5968 12.4816 13.8584C12.2645 14.1298 11.9968 14.3297 11.7375 14.4532L8.14561 6.91012C6.34465 7.76772 5.2395 9.30068 4.76394 10.9991L12.8091 13.2518ZM11.7375 14.4532C11.6342 14.5024 11.6035 14.4977 11.6892 14.4822C11.7747 14.4666 11.9418 14.4464 12.2104 14.4464V6.09183C10.9184 6.09183 9.48199 6.27375 8.14561 6.91012L11.7375 14.4532ZM12.2104 14.4464C12.4478 14.4464 12.5489 14.4639 12.5482 14.4638C12.544 14.463 12.4975 14.4543 12.4189 14.428C12.3405 14.4018 12.216 14.3534 12.0639 14.2686C11.7464 14.0916 11.3169 13.7582 10.9844 13.2021C10.6484 12.6403 10.5494 12.082 10.5494 11.6717H18.904C18.904 10.7939 18.7002 9.82644 18.1546 8.91403C17.6123 8.0073 16.8683 7.38169 16.1314 6.97097C14.784 6.21996 13.3003 6.09183 12.2104 6.09183V14.4464ZM10.5494 11.6717C10.5494 11.619 10.5522 11.5797 10.5547 11.5551C10.5571 11.5305 10.5595 11.5187 10.5591 11.5206C10.5587 11.5225 10.5561 11.536 10.5493 11.5618C10.5425 11.5876 10.5319 11.6237 10.5163 11.6707L18.4422 14.3127C18.7022 13.5326 18.904 12.6333 18.904 11.6717H10.5494ZM10.5163 11.6707C9.71896 14.0627 8.96355 17.1779 8.23333 20.9413L16.435 22.5327C17.1348 18.9259 17.8094 16.2109 18.4422 14.3127L10.5163 11.6707ZM8.23445 20.9356C7.49514 24.7174 6.9645 28.3519 6.64771 31.8367L14.968 32.593C15.2562 29.4226 15.7431 26.0718 16.4339 22.5384L8.23445 20.9356ZM10.4609 36.3777C11.8364 36.4923 13.037 36.5572 14.0255 36.5572V28.2025C13.3638 28.2025 12.4194 28.1574 11.1548 28.052L10.4609 36.3777ZM14.0255 36.5572C18.0974 36.5572 21.8762 36.0075 24.6713 34.2874L20.2927 27.1722C19.5127 27.6522 17.6538 28.2025 14.0255 28.2025V36.5572ZM24.6863 34.2782C27.3979 32.5937 29.3819 29.9668 29.3819 26.4397H21.0273C21.0273 26.5038 21.0195 26.5289 21.0192 26.5301C21.019 26.5307 21.0164 26.5426 20.9969 26.5733C20.9561 26.6376 20.7871 26.865 20.2777 27.1814L24.6863 34.2782ZM29.3819 26.4397C29.3819 23.8113 28.1588 21.6347 26.2255 20.1084L21.0486 26.6657C21.1151 26.7183 21.1404 26.7479 21.1411 26.7487C21.1415 26.7491 21.1364 26.7432 21.1279 26.7306C21.1193 26.7178 21.1084 26.7 21.0967 26.6772C21.0719 26.6289 21.052 26.5749 21.0397 26.5222C21.0338 26.4973 21.0306 26.4767 21.0289 26.4616C21.0272 26.4466 21.0273 26.4389 21.0273 26.4397H29.3819ZM26.2679 20.1423C24.1579 18.4315 21.2812 17.9415 18.6229 17.8509L18.3383 26.2006C19.3402 26.2348 20.0473 26.3425 20.5185 26.4669C20.9987 26.5937 21.0898 26.6996 21.0061 26.6318L26.2679 20.1423ZM18.6892 17.8537C18.6908 17.8537 18.8847 17.8611 19.1843 17.9681C19.4994 18.0806 19.9945 18.3281 20.4477 18.838L14.2034 24.3885C15.5329 25.8841 17.3069 26.1496 18.272 26.1979L18.6892 17.8537ZM20.4477 18.838C20.8553 19.2965 21.0312 19.7503 21.1049 20.0177C21.1423 20.1531 21.1585 20.2576 21.1657 20.32C21.1694 20.3522 21.1712 20.3765 21.172 20.3922C21.1728 20.4078 21.1729 20.4163 21.1729 20.417H12.8183C12.8183 21.3604 12.9776 23.0095 14.2034 24.3885L20.4477 18.838ZM21.1729 20.417C21.1729 20.1694 21.2255 20.4065 20.9663 20.7953L14.0148 16.161C13.0956 17.5398 12.8183 19.0695 12.8183 20.417H21.1729ZM20.9663 20.7953C20.6365 21.29 20.2031 21.5926 19.8479 21.746C19.5355 21.8808 19.3551 21.8722 19.4361 21.8696L19.1751 13.5191C17.6266 13.5675 15.4056 14.0749 14.0148 16.161L20.9663 20.7953ZM19.4233 21.87C21.7128 21.8055 23.8875 21.4641 25.9068 20.791L23.2648 12.8652C22.149 13.2371 20.8036 13.4732 19.188 13.5187L19.4233 21.87ZM25.8862 20.7978C27.9446 20.1235 29.842 19.0917 31.3372 17.5512L25.3421 11.7324C25.0223 12.0619 24.4171 12.4876 23.2854 12.8584L25.8862 20.7978ZM31.379 17.5075C32.9805 15.8089 33.8783 13.6835 33.8783 11.3004H25.5237C25.5237 11.4475 25.5139 11.5496 25.3003 11.7761L31.379 17.5075ZM33.8783 11.3004C33.8783 7.98704 32.0902 5.46421 29.4426 3.93139L25.2567 11.1617C25.5832 11.3507 25.6154 11.4509 25.573 11.3831C25.5536 11.3522 25.5364 11.3131 25.5266 11.2776C25.5174 11.2443 25.5237 11.2464 25.5237 11.3004H33.8783ZM29.4896 3.95899C26.9465 2.44209 23.6225 1.96669 20.1307 1.96669V10.3213C23.129 10.3213 24.6176 10.7809 25.2097 11.1341L29.4896 3.95899ZM20.1307 1.96669C16.819 1.96669 13.5931 2.40067 10.4653 3.27644L12.718 11.3216C15.0904 10.6573 17.5572 10.3213 20.1307 10.3213V1.96669ZM10.5027 3.26614C7.47496 4.08364 4.76052 5.16488 2.42969 6.56337L6.7281 13.7274C8.24741 12.8158 10.2081 11.9995 12.6805 11.3319L10.5027 3.26614ZM2.44623 6.5535C2.31546 6.63114 2.20962 6.68726 2.12769 6.72683C2.04536 6.7666 1.99526 6.78576 1.97551 6.79271C1.9554 6.79978 1.9768 6.79066 2.03579 6.77922C2.09507 6.76773 2.20296 6.75185 2.35133 6.75185V15.1065C4.06116 15.1065 5.58043 14.4089 6.71157 13.7372L2.44623 6.5535ZM2.35133 6.75185C2.56828 6.75185 2.92373 6.78881 3.33683 6.96585C3.76598 7.14977 4.1321 7.43195 4.40538 7.75989L-2.01281 13.1084C-0.818301 14.5418 0.827547 15.1065 2.35133 15.1065V6.75185ZM4.63083 8.05636C4.95762 8.52839 5.00233 8.96146 5.00233 9.11409H-3.35228C-3.35228 10.3118 -3.06006 11.6249 -2.23825 12.8119L4.63083 8.05636ZM5.00233 9.11409C5.00233 9.04761 5.00905 9.04887 4.99688 9.10121C4.98393 9.15689 4.95343 9.25327 4.88916 9.36896L-2.41408 5.31161C-3.10046 6.54709 -3.35228 7.86776 -3.35228 9.11409H5.00233ZM4.80196 9.51854C4.6917 9.69895 4.59776 9.80157 4.57068 9.83014C4.54113 9.86131 4.54653 9.85105 4.6077 9.80188C4.73697 9.69796 4.99157 9.51874 5.42362 9.27031L1.25909 2.02765C0.111904 2.68728 -1.42782 3.69084 -2.32688 5.16203L4.80196 9.51854ZM5.41388 9.27589C7.31833 8.18763 9.64234 7.28621 12.4387 6.61806L10.4971 -1.50781C7.07821 -0.690907 3.98453 0.470236 1.26884 2.02206L5.41388 9.27589ZM12.4387 6.61806C15.2233 5.95271 18.0736 5.61864 20.9969 5.61864V-2.73596C17.43 -2.73596 13.9277 -2.3275 10.4971 -1.50781L12.4387 6.61806ZM20.9969 5.61864C25.6449 5.61864 28.3493 6.42745 29.7732 7.40333L34.4964 0.512014C31.0251 -1.86721 26.3043 -2.73596 20.9969 -2.73596V5.61864ZM29.7732 7.40333C31.1903 8.3746 31.6289 9.35035 31.6289 10.5991H39.9835C39.9835 6.34775 37.9745 2.89585 34.4964 0.512014L29.7732 7.40333ZM53.8739 28.296L50.2657 30.4008L50.3288 30.5089L50.3982 30.6131L53.8739 28.296ZM53.4202 32.2148L50.2587 29.4845L50.2256 29.5228L50.1935 29.5618L53.4202 32.2148ZM49.0888 35.6387L47.051 31.9922L47.0395 31.9986L47.0279 32.0051L49.0888 35.6387ZM36.4246 34.8549L39.3526 31.8756L36.4246 34.8549ZM35.2283 23.1395L38.9772 24.9822L38.9833 24.9698L38.9894 24.9574L35.2283 23.1395ZM38.5284 19.2207L36.1959 15.7552L36.1803 15.7658L36.1647 15.7764L38.5284 19.2207ZM47.1912 19.2207L44.2374 22.1745L44.2588 22.1959L44.2805 22.217L47.1912 19.2207ZM46.5724 27.966L43.6186 25.0122L46.5724 27.966ZM39.6835 31.1836L38.6865 27.127L33.4269 28.4196L36.0132 33.1783L39.6835 31.1836ZM47.81 31.8023L49.8058 35.472L49.8169 35.466L49.8279 35.4599L47.81 31.8023ZM51.9351 28.3785L48.7635 25.6599L48.7367 25.6912L48.7105 25.7229L51.9351 28.3785ZM40.0547 23.5933L36.4801 21.4319L36.4615 21.4626L36.4434 21.4937L40.0547 23.5933ZM39.0234 27.966H34.8461V33.2505L39.9879 32.0304L39.0234 27.966ZM42.8598 26.2334L40.2043 23.0088H40.2043L42.8598 26.2334ZM43.8086 22.3145L40.5995 24.9888L40.7208 25.1343L40.8548 25.2683L43.8086 22.3145ZM53.0489 31.9783C52.5598 31.9783 51.9583 31.8572 51.3741 31.5067C50.8031 31.1641 50.456 30.7271 50.2657 30.4008L57.4822 26.1912C56.6038 24.6853 55.0125 23.6236 53.0489 23.6236V31.9783ZM50.3982 30.6131C50.1937 30.3064 50.1019 30.0338 50.0617 29.868C50.0228 29.7073 50.0266 29.6253 50.0266 29.6573H58.3812C58.3812 28.612 58.1915 27.2416 57.3497 25.9788L50.3982 30.6131ZM50.0266 29.6573C50.0266 29.8853 49.9986 29.948 50.014 29.8977C50.0226 29.8697 50.043 29.8124 50.084 29.7363C50.1255 29.6591 50.1829 29.5722 50.2587 29.4845L56.5816 34.9452C57.9697 33.338 58.3812 31.3829 58.3812 29.6573H50.0266ZM50.1935 29.5618C49.5977 30.2864 48.6106 31.1206 47.051 31.9922L51.1266 39.2853C53.307 38.0667 55.2075 36.6184 56.6468 34.8679L50.1935 29.5618ZM47.0279 32.0051C45.8135 32.6939 44.5435 33.029 43.1486 33.029V41.3836C45.9888 41.3836 48.6789 40.6736 51.1496 39.2723L47.0279 32.0051ZM43.1486 33.029C41.024 33.029 39.9577 32.4702 39.3526 31.8756L33.4966 37.8343C36.0816 40.3747 39.498 41.3836 43.1486 41.3836V33.029ZM39.3526 31.8756C38.725 31.2588 38.2093 30.2821 38.2093 28.4197H29.8547C29.8547 32.0025 30.9341 35.316 33.4966 37.8343L39.3526 31.8756ZM38.2093 28.4197C38.2093 27.1285 38.4756 26.0029 38.9772 24.9822L31.4794 21.2969C30.386 23.5213 29.8547 25.9158 29.8547 28.4197H38.2093ZM38.9894 24.9574C39.4958 23.9095 40.1351 23.1845 40.8921 22.6649L36.1647 15.7764C34.1167 17.1819 32.5559 19.0695 31.4673 21.3217L38.9894 24.9574ZM40.8609 22.6861C41.5751 22.2054 42.3657 21.9542 43.3548 21.9542V13.5996C40.7688 13.5996 38.3419 14.3108 36.1959 15.7552L40.8609 22.6861ZM43.3548 21.9542C44.0472 21.9542 44.1923 22.1294 44.2374 22.1745L50.145 16.2669C48.265 14.3869 45.8526 13.5996 43.3548 13.5996V21.9542ZM44.2805 22.217C44.3124 22.2479 44.3364 22.2778 44.3645 22.3524C44.3983 22.4424 44.4577 22.6563 44.4577 23.057H52.8123C52.8123 20.5588 52.0394 18.1065 50.1019 16.2244L44.2805 22.217ZM44.4577 23.057C44.4577 23.8163 44.232 24.3988 43.6186 25.0122L49.5262 30.9198C51.6629 28.7831 52.8123 26.0929 52.8123 23.057H44.4577ZM43.6186 25.0122C43.0793 25.5515 41.677 26.392 38.6865 27.127L40.6804 35.2402C44.1801 34.3801 47.3705 33.0755 49.5262 30.9198L43.6186 25.0122ZM36.0132 33.1783C37.6771 36.2399 40.7399 37.2584 43.6023 37.2584V28.9038C43.3465 28.9038 43.1767 28.8825 43.077 28.863C42.9793 28.8439 42.9627 28.8292 42.9993 28.847C43.0404 28.8669 43.1145 28.9112 43.195 28.9878C43.2758 29.0647 43.3272 29.14 43.3538 29.1888L36.0132 33.1783ZM43.6023 37.2584C45.7774 37.2584 47.8789 36.52 49.8058 35.472L45.8142 28.1326C44.606 28.7897 43.9024 28.9038 43.6023 28.9038V37.2584ZM49.8279 35.4599C51.8836 34.3257 53.6684 32.8448 55.1597 31.034L48.7105 25.7229C47.8917 26.7172 46.9265 27.5189 45.792 28.1448L49.8279 35.4599ZM55.1068 31.097C54.9951 31.2273 54.7637 31.4568 54.384 31.6538C53.984 31.8611 53.5215 31.9783 53.0489 31.9783V23.6236C51.1422 23.6236 49.6889 24.5803 48.7635 25.6599L55.1068 31.097ZM42.6536 17.6422C39.6695 17.6422 37.648 19.5003 36.4801 21.4319L43.6294 25.7547C43.7711 25.5203 43.7872 25.5824 43.5956 25.7132C43.4938 25.7827 43.3504 25.8593 43.1697 25.916C42.988 25.973 42.8103 25.9968 42.6536 25.9968V17.6422ZM36.4434 21.4937C35.3098 23.4436 34.8461 25.6344 34.8461 27.8835H43.2008C43.2008 26.7774 43.4246 26.1081 43.666 25.6929L36.4434 21.4937ZM34.8461 27.8835V27.966H43.2008V27.8835H34.8461ZM39.9879 32.0304C42.0102 31.5505 43.9388 30.7564 45.5154 29.458L40.2043 23.0088C39.9108 23.2505 39.2818 23.6114 38.059 23.9015L39.9879 32.0304ZM45.5154 29.458C47.2106 28.0619 48.4397 26.0593 48.4397 23.5521H40.0851C40.0851 23.4835 40.0933 23.3964 40.117 23.2995C40.1408 23.2024 40.1747 23.1174 40.2102 23.0494C40.2819 22.9123 40.3253 22.9091 40.2043 23.0088L45.5154 29.458ZM48.4397 23.5521C48.4397 22.1827 48.0154 20.6137 46.7624 19.3607L40.8548 25.2683C40.5653 24.9789 40.3544 24.6363 40.227 24.2888C40.1051 23.9565 40.0851 23.6909 40.0851 23.5521H48.4397ZM47.0177 19.6403C45.8232 18.2069 44.1773 17.6422 42.6536 17.6422V25.9968C42.4366 25.9968 42.0812 25.9599 41.6681 25.7828C41.2389 25.5989 40.8728 25.3167 40.5995 24.9888L47.0177 19.6403ZM82.98 28.296L79.3717 30.4008L79.4348 30.5089L79.5043 30.6131L82.98 28.296ZM82.5262 32.2148L79.3647 29.4845L79.3227 29.5331L79.2823 29.583L82.5262 32.2148ZM78.6486 35.8037L80.9657 39.2794L78.6486 35.8037ZM66.8094 32.9986L70.5892 31.2199L67.3105 24.2529L63.2576 30.7999L66.8094 32.9986ZM63.9631 35.9687L66.3533 39.3946L63.9631 35.9687ZM54.3928 34.0299L50.7545 36.0823L50.7701 36.1101L50.7862 36.1376L54.3928 34.0299ZM52.784 20.8707L56.9469 21.2176L57.3239 16.6934H52.784V20.8707ZM49.4014 20.417L46.3104 23.2269L46.3773 23.3005L46.4476 23.3708L49.4014 20.417ZM53.3615 16.6631V20.8404H56.8566L57.4733 17.4001L53.3615 16.6631ZM55.5478 8.74283L51.6631 7.207V7.20701L55.5478 8.74283ZM65.9432 2.51388L69.4478 0.240625V0.240623L65.9432 2.51388ZM62.4368 16.6631L59.483 13.7093L52.3519 20.8404H62.4368V16.6631ZM66.1907 16.6631V20.8404H69.6858L70.3025 17.4001L66.1907 16.6631ZM68.377 8.74283L64.4923 7.207L68.377 8.74283ZM71.7596 3.09139L68.7177 0.228418V0.22842L71.7596 3.09139ZM75.266 16.6631L72.3122 13.7093L65.1811 20.8404H75.266V16.6631ZM79.9686 16.9518L77.0148 19.9056L77.0148 19.9057L79.9686 16.9518ZM70.6046 20.8707V16.6934H66.6802L66.4354 20.6102L70.6046 20.8707ZM71.4709 30.9361L67.8439 33.0086L67.8624 33.0408L67.8813 33.0727L71.4709 30.9361ZM77.8236 31.5961L75.2383 28.3148L77.8236 31.5961ZM81.0412 28.3785L84.1999 31.112L84.2064 31.1045L84.2128 31.097L81.0412 28.3785ZM60.7043 6.51526L56.968 4.64711L56.9578 4.66742L56.9479 4.68783L60.7043 6.51526ZM59.2605 10.8054L55.2115 9.77804L55.206 9.7996L55.2007 9.82122L59.2605 10.8054ZM58.1467 16.8693L54.0074 16.3072L52.5208 27.2541L60.8784 20.0296L58.1467 16.8693ZM61.7768 12.1667L57.9944 10.3937L57.9883 10.4068L57.9822 10.42L61.7768 12.1667ZM73.5334 6.51526L69.7971 4.64711L69.787 4.66742L69.777 4.68783L73.5334 6.51526ZM72.0896 10.8054L68.0406 9.77804L68.0351 9.7996L68.0299 9.82122L72.0896 10.8054ZM70.9758 16.8693L66.8365 16.3072L65.3499 27.2541L73.7076 20.0296L70.9758 16.8693ZM74.606 12.1667L70.8236 10.3937L70.8174 10.4068L70.8114 10.42L74.606 12.1667ZM63.5093 31.5136L66.3596 34.5674L63.5093 31.5136ZM65.6132 28.6672L69.3311 30.5716L69.9551 29.3533L69.7372 28.0021L65.6132 28.6672ZM65.6132 20.8707L69.776 21.2176L70.1531 16.6934H65.6132V20.8707ZM57.7754 20.8707V16.6934H53.851L53.6062 20.6102L57.7754 20.8707ZM58.5179 30.8948L54.748 32.6941L54.7728 32.7461L54.7991 32.7975L58.5179 30.8948ZM82.155 31.9783C81.6658 31.9783 81.0643 31.8572 80.4801 31.5067C79.9091 31.1641 79.562 30.7271 79.3717 30.4008L86.5882 26.1912C85.7098 24.6853 84.1186 23.6236 82.155 23.6236V31.9783ZM79.5043 30.6131C79.2998 30.3064 79.208 30.0338 79.1678 29.868C79.1288 29.7073 79.1327 29.6253 79.1327 29.6573H87.4873C87.4873 28.612 87.2976 27.2416 86.4557 25.9788L79.5043 30.6131ZM79.1327 29.6573C79.1327 29.8853 79.1047 29.948 79.1201 29.8977C79.1287 29.8697 79.1491 29.8124 79.19 29.7363C79.2315 29.6591 79.289 29.5722 79.3647 29.4845L85.6877 34.9452C87.0758 33.338 87.4873 31.3829 87.4873 29.6573H79.1327ZM79.2823 29.583C78.3348 30.7508 77.3472 31.6508 76.3314 32.328L80.9657 39.2794C82.7551 38.0866 84.3526 36.594 85.7701 34.8467L79.2823 29.583ZM76.3314 32.328C75.6683 32.7701 74.8789 33.029 73.8222 33.029V41.3836C76.3956 41.3836 78.8238 40.7074 80.9657 39.2794L76.3314 32.328ZM73.8222 33.029C72.7277 33.029 72.0868 32.8033 71.7019 32.5723C71.3377 32.3538 70.9464 31.9792 70.5892 31.2199L63.0298 34.7773C63.9925 36.8232 65.4301 38.5523 67.4035 39.7364C69.3561 40.9079 71.5616 41.3836 73.8222 41.3836V33.029ZM63.2576 30.7999C62.8603 31.4417 62.3178 32.0231 61.5729 32.5428L66.3533 39.3946C67.9735 38.2643 69.3285 36.8656 70.3613 35.1974L63.2576 30.7999ZM61.5729 32.5428C61.0397 32.9148 60.5997 33.029 60.168 33.029V41.3836C62.4314 41.3836 64.5214 40.6727 66.3533 39.3946L61.5729 32.5428ZM60.168 33.029C58.9218 33.029 58.4301 32.6592 57.9994 31.9222L50.7862 36.1376C52.8306 39.6357 56.189 41.3836 60.168 41.3836V33.029ZM58.0311 31.9775C57.303 30.6867 56.755 28.5952 56.755 25.3671H48.4004C48.4004 29.3993 49.0625 33.083 50.7545 36.0823L58.0311 31.9775ZM56.755 25.3671C56.755 24.1579 56.8169 22.7772 56.9469 21.2176L48.6211 20.5238C48.4761 22.2643 48.4004 23.8812 48.4004 25.3671H56.755ZM52.784 16.6934H51.0927V25.048H52.784V16.6934ZM51.0927 16.6934C50.908 16.6934 50.9504 16.6735 51.1335 16.7227C51.3121 16.7706 51.8331 16.9411 52.3552 17.4632L46.4476 23.3708C48.0009 24.9241 50.0687 25.048 51.0927 25.048V16.6934ZM52.4923 17.607C52.8733 18.026 53.0397 18.4404 53.1086 18.6815C53.1741 18.911 53.1662 19.0307 53.1662 18.9732H44.8116C44.8116 20.0687 45.0156 21.8026 46.3104 23.2269L52.4923 17.607ZM53.1662 18.9732C53.1662 18.6527 53.2486 19.186 52.7092 19.8572C52.4171 20.2208 52.0373 20.4985 51.6336 20.666C51.2555 20.8228 50.9616 20.8404 50.8452 20.8404V12.4858C49.3109 12.4858 47.4951 13.0082 46.1967 14.624C45.0386 16.0652 44.8116 17.7536 44.8116 18.9732H53.1662ZM50.8452 20.8404H53.3615V12.4858H50.8452V20.8404ZM57.4733 17.4001C57.9546 14.7147 58.6146 12.3476 59.4326 10.2787L51.6631 7.20701C50.611 9.86817 49.8134 12.7812 49.2497 15.9261L57.4733 17.4001ZM59.4326 10.2787C60.2321 8.2562 61.1104 6.87018 61.9724 5.95437L55.8885 0.228418C54.1104 2.1177 52.7336 4.4993 51.6631 7.207L59.4326 10.2787ZM61.9724 5.95437C62.714 5.16641 63.1077 5.16488 63.2206 5.16488V-3.18973C60.2533 -3.18973 57.787 -1.78871 55.8885 0.228418L61.9724 5.95437ZM63.2206 5.16488C63.1633 5.16488 62.9617 5.14574 62.7248 5.01293C62.4963 4.88484 62.4162 4.75257 62.4386 4.78713L69.4478 0.240623C68.0639 -1.89292 65.874 -3.18973 63.2206 -3.18973V5.16488ZM62.4386 4.78713C62.555 4.96666 62.7559 5.40071 62.7559 6.35025H71.1105C71.1105 4.21969 70.6514 2.09616 69.4478 0.240625L62.4386 4.78713ZM62.7559 6.35025C62.7559 9.01123 61.7776 11.4147 59.483 13.7093L65.3906 19.6169C69.0912 15.9163 71.1105 11.4445 71.1105 6.35025H62.7559ZM62.4368 20.8404H66.1907V12.4858H62.4368V20.8404ZM70.3025 17.4001C70.7838 14.7147 71.4438 12.3476 72.2617 10.2787L64.4923 7.207C63.4402 9.86817 62.6426 12.7812 62.0789 15.9261L70.3025 17.4001ZM72.2617 10.2787C73.0613 8.2562 73.9396 6.87018 74.8015 5.95437L68.7177 0.22842C66.9396 2.1177 65.5628 4.49931 64.4923 7.207L72.2617 10.2787ZM74.8015 5.95437C75.5431 5.16641 75.9369 5.16488 76.0498 5.16488V-3.18973C73.0825 -3.18973 70.6162 -1.78871 68.7177 0.228418L74.8015 5.95437ZM76.0498 5.16488C75.9925 5.16488 75.7909 5.14574 75.554 5.01293C75.3255 4.88484 75.2453 4.75257 75.2677 4.78713L82.2769 0.240625C80.893 -1.89292 78.7032 -3.18973 76.0498 -3.18973V5.16488ZM75.2677 4.78713C75.3842 4.96666 75.5851 5.40071 75.5851 6.35025H83.9397C83.9397 4.21969 83.4805 2.09616 82.2769 0.240625L75.2677 4.78713ZM75.5851 6.35025C75.5851 9.01123 74.6068 11.4147 72.3122 13.7093L78.2198 19.6169C81.9204 15.9163 83.9397 11.4445 83.9397 6.35025H75.5851ZM75.266 20.8404H79.0199V12.4858H75.266V20.8404ZM79.0199 20.8404C78.9551 20.8404 78.7127 20.8356 78.3708 20.7316C78.0122 20.6225 77.4968 20.3877 77.0148 19.9056L82.9224 13.9981C81.5812 12.6568 79.9136 12.4858 79.0199 12.4858V20.8404ZM77.0148 19.9057C76.4404 19.3312 76.2279 18.7339 76.1515 18.4504C76.0742 18.1631 76.0801 17.9923 76.0801 18.0244H84.4347C84.4347 17.296 84.3633 15.4389 82.9224 13.998L77.0148 19.9057ZM76.0801 18.0244C76.0801 17.9189 76.1056 17.6233 76.2995 17.2681C76.4977 16.905 76.7569 16.6905 76.9151 16.5939C77.0455 16.5143 77.0474 16.5495 76.8022 16.5995C76.5623 16.6483 76.173 16.6934 75.596 16.6934V25.048C77.439 25.048 79.5221 24.7911 81.269 23.7243C83.351 22.453 84.4347 20.354 84.4347 18.0244H76.0801ZM75.596 16.6934H70.6046V25.048H75.596V16.6934ZM66.4354 20.6102C66.3473 22.0203 66.3035 23.4548 66.3035 24.9134H74.6581C74.6581 23.6218 74.6969 22.3612 74.7737 21.1313L66.4354 20.6102ZM66.3035 24.9134C66.3035 27.8431 66.5976 30.8275 67.8439 33.0086L75.0978 28.8635C75.1092 28.8834 74.9728 28.6318 74.8503 27.8865C74.7336 27.1762 74.6581 26.1999 74.6581 24.9134H66.3035ZM67.8813 33.0727C69.3959 35.6171 71.9087 36.8459 74.6885 36.8459V28.4913C74.5156 28.4913 74.59 28.4598 74.7714 28.5575C74.8563 28.6032 74.9312 28.66 74.9891 28.7171C75.0453 28.7723 75.0655 28.8079 75.0604 28.7994L67.8813 33.0727ZM74.6885 36.8459C76.785 36.8459 78.746 36.1874 80.4088 34.8773L75.2383 28.3148C75.0861 28.4348 74.957 28.4913 74.6885 28.4913V36.8459ZM80.4088 34.8773C81.6134 33.9282 82.8835 32.6332 84.1999 31.112L77.8824 25.6449C76.7238 26.9838 75.8488 27.8339 75.2383 28.3148L80.4088 34.8773ZM84.2128 31.097C84.1012 31.2273 83.8698 31.4568 83.49 31.6538C83.09 31.8611 82.6275 31.9783 82.155 31.9783V23.6236C80.2482 23.6236 78.7949 24.5803 77.8695 25.6599L84.2128 31.097ZM62.1068 0.770403C60.1005 0.770403 58.8311 1.99821 58.3337 2.55419C57.7427 3.21473 57.3007 3.98164 56.968 4.64711L64.4405 8.38341C64.6303 8.00384 64.6834 7.98697 64.5599 8.125C64.4902 8.20291 64.283 8.4219 63.9198 8.63755C63.5385 8.86392 62.9152 9.12501 62.1068 9.12501V0.770403ZM56.9479 4.68783C56.2727 6.07567 55.7087 7.81849 55.2115 9.77804L63.3095 11.8328C63.7473 10.1072 64.1458 8.98991 64.4606 8.34268L56.9479 4.68783ZM55.2007 9.82122C54.721 11.8001 54.3254 13.9652 54.0074 16.3072L62.286 17.4315C62.5729 15.3183 62.9199 13.4408 63.3202 11.7896L55.2007 9.82122ZM60.8784 20.0296C62.8958 18.2858 64.4952 16.2514 65.5714 13.9134L57.9822 10.42C57.4634 11.5471 56.6427 12.6478 55.4149 13.7091L60.8784 20.0296ZM65.5592 13.9397C66.5559 11.8132 67.1916 9.60311 67.1916 7.38153H58.837C58.837 8.02005 58.6477 9.00003 57.9944 10.3937L65.5592 13.9397ZM67.1916 7.38153C67.1916 6.42902 67.1187 5.21553 66.7015 4.09669C66.4829 3.51037 66.0748 2.68894 65.2879 1.98549C64.4137 1.20407 63.292 0.770403 62.1068 0.770403V9.12501C61.2241 9.12501 60.3671 8.79276 59.7198 8.21416C59.1598 7.71352 58.9408 7.19632 58.8734 7.01564C58.7587 6.70807 58.837 6.71149 58.837 7.38153H67.1916ZM74.936 0.770403C72.9297 0.770403 71.6603 1.99821 71.1628 2.55419C70.5718 3.21474 70.1299 3.98164 69.7971 4.64711L77.2697 8.3834C77.4595 8.00384 77.5125 7.98697 77.389 8.125C77.3193 8.20291 77.1121 8.4219 76.7489 8.63755C76.3677 8.86392 75.7444 9.12501 74.936 9.12501V0.770403ZM69.777 4.68783C69.1019 6.07567 68.5378 7.81849 68.0406 9.77804L76.1386 11.8328C76.5765 10.1072 76.9749 8.98991 77.2898 8.34268L69.777 4.68783ZM68.0299 9.82122C67.5502 11.8001 67.1546 13.9652 66.8365 16.3072L75.1151 17.4315C75.4021 15.3183 75.749 13.4408 76.1493 11.7896L68.0299 9.82122ZM73.7076 20.0296C75.7249 18.2858 77.3243 16.2514 78.4005 13.9134L70.8114 10.42C70.2925 11.5471 69.4718 12.6478 68.2441 13.7091L73.7076 20.0296ZM78.3883 13.9397C79.3851 11.8132 80.0208 9.60311 80.0208 7.38153H71.6662C71.6662 8.02005 71.4769 9.00003 70.8236 10.3937L78.3883 13.9397ZM80.0208 7.38153C80.0208 6.42902 79.9479 5.21553 79.5307 4.09669C79.312 3.51037 78.9039 2.68894 78.117 1.98549C77.2429 1.20407 76.1211 0.770403 74.936 0.770403V9.12501C74.0533 9.12501 73.1962 8.79276 72.549 8.21416C71.989 7.71352 71.7699 7.19632 71.7026 7.01564C71.5879 6.70807 71.6662 6.71149 71.6662 7.38153H80.0208ZM61.0343 36.8459C63.2549 36.8459 65.0493 35.7903 66.3596 34.5674L60.6591 28.4597C60.4936 28.6142 60.4384 28.6256 60.5053 28.5944C60.5416 28.5775 60.6085 28.5506 60.7038 28.5284C60.8004 28.5059 60.9125 28.4913 61.0343 28.4913V36.8459ZM66.3596 34.5674C67.5788 33.4295 68.5599 32.0773 69.3311 30.5716L61.8952 26.7629C61.5114 27.5122 61.0899 28.0576 60.6591 28.4597L66.3596 34.5674ZM69.7372 28.0021C69.649 27.4556 69.5842 26.6006 69.5842 25.3671H61.2296C61.2296 26.8287 61.3023 28.1738 61.4892 29.3324L69.7372 28.0021ZM69.5842 25.3671C69.5842 24.1579 69.6461 22.7772 69.776 21.2176L61.4503 20.5238C61.3052 22.2643 61.2296 23.8812 61.2296 25.3671H69.5842ZM65.6132 16.6934H57.7754V25.048H65.6132V16.6934ZM53.6062 20.6102C53.5181 22.0203 53.4743 23.4548 53.4743 24.9134H61.829C61.829 23.6218 61.8677 22.3612 61.9446 21.1313L53.6062 20.6102ZM53.4743 24.9134C53.4743 27.7856 53.7423 30.587 54.748 32.6941L62.2879 29.0955C62.1385 28.7825 61.829 27.5963 61.829 24.9134H53.4743ZM54.7991 32.7975C55.9148 34.9781 57.9914 36.8459 61.0343 36.8459V28.4913C61.1545 28.4913 61.3195 28.5086 61.5082 28.567C61.6987 28.626 61.8685 28.7129 62.0076 28.8109C62.2804 29.0032 62.3189 29.1526 62.2368 28.9921L54.7991 32.7975ZM101.917 28.4197L98.2386 30.4002L98.3318 30.5733L98.4409 30.7369L101.917 28.4197ZM101.958 31.1836L105.636 33.164L105.636 33.164L101.958 31.1836ZM101.05 32.1323L98.7332 28.6566L98.7269 28.6608L98.7207 28.665L101.05 32.1323ZM93.1301 37.4538L90.8004 33.9864L89.3393 34.9681L89.0214 36.6995L93.1301 37.4538ZM89.0049 50.8605L85.307 48.9175L85.2972 48.9361L85.2876 48.9549L89.0049 50.8605ZM79.1459 54.4493L82.0997 51.4955L82.0762 51.4721L82.0524 51.449L79.1459 54.4493ZM78.6921 47.1066L74.8813 45.3956L74.8666 45.4282L74.8525 45.4611L78.6921 47.1066ZM81.9922 42.4452L78.9432 39.5898L78.9198 39.6147L78.8969 39.64L81.9922 42.4452ZM88.8399 36.4637L91.3809 39.7794L92.7578 38.7242L92.9821 37.004L88.8399 36.4637ZM88.9637 35.5149L84.8592 34.7384L84.8369 34.856L84.8215 34.9747L88.9637 35.5149ZM89.6237 31.1423L93.7659 31.6826L85.5988 30.0243L89.6237 31.1423ZM87.3136 35.68L90.3076 38.593L90.327 38.5731L90.3461 38.5529L87.3136 35.68ZM81.1259 35.5149L77.6502 37.8321L77.6822 37.8801L77.7155 37.9272L81.1259 35.5149ZM80.3834 25.5734L84.5074 26.2385L84.5091 26.2282L80.3834 25.5734ZM81.7447 20.0869L77.7818 18.766L77.7789 18.7745L77.7761 18.783L81.7447 20.0869ZM82.8997 18.3131L85.3455 21.6996L85.3455 21.6996L82.8997 18.3131ZM86.4886 18.0656L83.7378 21.2094L83.8287 21.2889L83.924 21.363L86.4886 18.0656ZM86.4061 21.1595L90.4387 22.2494L90.4547 22.1904L90.4688 22.131L86.4061 21.1595ZM85.7461 23.9233L81.6499 23.1041L81.648 23.1137L81.6461 23.1233L85.7461 23.9233ZM85.1686 27.1822L89.292 27.8508L89.2934 27.8423L89.2947 27.8337L85.1686 27.1822ZM87.3136 30.0285L83.9985 27.4869L83.9714 27.5223L83.945 27.5582L87.3136 30.0285ZM89.2937 26.2747L85.4509 24.6367L85.4395 24.6635L85.4284 24.6905L89.2937 26.2747ZM91.3563 20.0869L95.3895 21.1746L95.3925 21.1633L91.3563 20.0869ZM92.3463 18.3131L89.8088 14.9949L89.7599 15.0323L89.7121 15.0711L92.3463 18.3131ZM95.7289 18.0244L93.4117 21.5001L93.4118 21.5001L95.7289 18.0244ZM95.0276 25.9446L90.9142 25.2171L90.9087 25.2478L90.9038 25.2787L95.0276 25.9446ZM93.9551 32.5861L89.8312 31.9201L88.1761 42.1689L96.4684 35.9227L93.9551 32.5861ZM100.143 28.2135L97.9535 24.6558L97.9001 24.6887L97.8478 24.7231L100.143 28.2135ZM87.8911 41.4139L91.9625 42.3488L94.7649 30.1447L85.1966 38.2219L87.8911 41.4139ZM83.271 46.2816L79.7852 43.9796L79.7602 44.0174L79.736 44.0558L83.271 46.2816ZM82.116 51.3142L78.4487 53.3145L78.5161 53.4381L78.5917 53.5569L82.116 51.3142ZM101.092 32.0608C100.538 32.0608 99.8903 31.9105 99.2894 31.52C98.7155 31.147 98.3965 30.6934 98.2386 30.4002L105.595 26.4393C104.794 24.9523 103.224 23.7062 101.092 23.7062V32.0608ZM98.4409 30.7369C98.0788 30.1938 98.0693 29.7431 98.0693 29.6985H106.424C106.424 28.6089 106.194 27.3057 105.392 26.1026L98.4409 30.7369ZM98.0693 29.6985C98.0693 29.8114 98.06 29.8183 98.0739 29.7468C98.0876 29.6766 98.135 29.4722 98.2799 29.2031L105.636 33.164C106.289 31.9505 106.424 30.6727 106.424 29.6985H98.0693ZM98.2799 29.2031C98.4758 28.8391 98.7009 28.6782 98.7332 28.6566L103.367 35.6081C104.225 35.0365 105.055 34.243 105.636 33.164L98.2799 29.2031ZM98.7207 28.665L90.8004 33.9864L95.4597 40.9211L103.38 35.5997L98.7207 28.665ZM89.0214 36.6995C88.0139 42.188 86.7365 46.1969 85.307 48.9175L92.7029 52.8034C94.6835 49.0338 96.1562 44.1049 97.2387 38.208L89.0214 36.6995ZM85.2876 48.9549C83.9926 51.4812 83.0001 51.5921 82.5697 51.5921V59.9467C87.3645 59.9467 90.6622 56.7849 92.7223 52.766L85.2876 48.9549ZM82.5697 51.5921C82.3078 51.5921 82.1909 51.5518 82.1646 51.5417C82.1494 51.5358 82.1427 51.5317 82.139 51.5293C82.1351 51.5268 82.1221 51.518 82.0997 51.4955L76.1921 57.4031C77.9577 59.1688 80.2127 59.9467 82.5697 59.9467V51.5921ZM82.0524 51.449C82.0395 51.4365 82.0394 51.4341 82.0441 51.4412C82.0489 51.4484 82.0498 51.452 82.0473 51.4456C82.0437 51.4363 82.0031 51.3297 82.0031 51.0667H73.6485C73.6485 53.4215 74.4271 55.6941 76.2393 57.4496L82.0524 51.449ZM82.0031 51.0667C82.0031 50.411 82.1471 49.6493 82.5316 48.7521L74.8525 45.4611C74.082 47.259 73.6485 49.1373 73.6485 51.0667H82.0031ZM82.5029 48.8176C82.853 48.0378 83.6309 46.8577 85.0875 45.2503L78.8969 39.64C77.1634 41.5528 75.7412 43.4803 74.8813 45.3956L82.5029 48.8176ZM85.0412 45.3006C86.4459 43.8007 88.5311 41.9633 91.3809 39.7794L86.299 33.1481C83.2636 35.4743 80.7836 37.6246 78.9432 39.5898L85.0412 45.3006ZM92.9821 37.004L93.1059 36.0552L84.8215 34.9747L84.6977 35.9234L92.9821 37.004ZM93.0682 36.2915C93.283 35.1558 93.5152 33.6051 93.7659 31.6826L85.4815 30.602C85.2372 32.4746 85.0294 33.839 84.8592 34.7384L93.0682 36.2915ZM85.5988 30.0243C85.1582 31.6104 84.6445 32.4234 84.2811 32.807L90.3461 38.5529C91.9628 36.8464 92.9892 34.6344 93.6486 32.2603L85.5988 30.0243ZM84.3196 32.7669C84.0894 33.0036 83.9629 33.0668 83.9588 33.0688C83.9585 33.069 83.983 33.0573 84.0292 33.0463C84.0763 33.0352 84.1282 33.029 84.1785 33.029V41.3836C86.7092 41.3836 88.771 40.1723 90.3076 38.593L84.3196 32.7669ZM84.1785 33.029C84.1887 33.029 84.2346 33.0304 84.3048 33.048C84.3762 33.0658 84.4481 33.0942 84.5117 33.1295C84.6459 33.2039 84.6396 33.2487 84.5363 33.1027L77.7155 37.9272C79.1905 40.0125 81.4121 41.3836 84.1785 41.3836V33.029ZM84.6016 33.1978C84.384 32.8714 84.1482 32.2948 84.1482 31.2248H75.7936C75.7936 33.5649 76.3278 35.8484 77.6502 37.8321L84.6016 33.1978ZM84.1482 31.2248C84.1482 29.3436 84.2739 27.6863 84.5074 26.2385L76.2594 24.9082C75.9429 26.8706 75.7936 28.9808 75.7936 31.2248H84.1482ZM84.5091 26.2282C84.7442 24.7466 85.1399 23.1359 85.7133 21.3909L77.7761 18.783C77.0844 20.8881 76.5726 22.935 76.2577 24.9185L84.5091 26.2282ZM85.7076 21.4079C85.7575 21.2583 85.781 21.2417 85.7403 21.3042C85.6953 21.3732 85.5742 21.5345 85.3455 21.6996L80.454 14.9267C79.0055 15.9728 78.2203 17.4504 77.7818 18.766L85.7076 21.4079ZM85.3455 21.6996C85.1791 21.8198 85.0356 21.891 84.9406 21.9308C84.8466 21.9702 84.7904 21.983 84.7877 21.9837C84.7846 21.9844 84.8196 21.9763 84.9012 21.9685C84.9822 21.9607 85.0973 21.9542 85.2511 21.9542V13.5996C83.8887 13.5996 82.0229 13.7936 80.454 14.9267L85.3455 21.6996ZM85.2511 21.9542C85.3579 21.9542 85.271 21.9652 85.065 21.9171C84.8832 21.8747 84.323 21.7214 83.7378 21.2094L89.2394 14.9219C87.7774 13.6427 85.9615 13.5996 85.2511 13.5996V21.9542ZM83.924 21.363C83.4887 21.0245 83.1435 20.576 82.9275 20.0721C82.7223 19.5933 82.6826 19.1809 82.6826 18.9319H91.0372C91.0372 17.5834 90.5503 15.9327 89.0532 14.7683L83.924 21.363ZM82.6826 18.9319C82.6826 18.7484 82.6965 18.6189 82.6995 18.591C82.7042 18.548 82.7074 18.5298 82.7048 18.5464C82.6995 18.5807 82.6845 18.6662 82.6532 18.82C82.5912 19.1241 82.4902 19.5739 82.3433 20.188L90.4688 22.131C90.6245 21.4801 90.7504 20.9261 90.8397 20.4876C90.8923 20.2291 91.0372 19.5467 91.0372 18.9319H82.6826ZM82.3735 20.0696C82.08 21.1554 81.8369 22.1689 81.6499 23.1041L89.8423 24.7426C89.9852 24.0277 90.1822 23.1987 90.4387 22.2494L82.3735 20.0696ZM81.6461 23.1233C81.4173 24.2961 81.2159 25.432 81.0424 26.5307L89.2947 27.8337C89.4513 26.8423 89.6349 25.8057 89.8461 24.7233L81.6461 23.1233ZM81.0451 26.5135C80.8618 27.644 80.7437 28.7266 80.7437 29.6985H89.0984C89.0984 29.3503 89.1453 28.7554 89.292 27.8508L81.0451 26.5135ZM80.7437 29.6985C80.7437 30.4689 80.8265 31.7096 81.4815 32.8947C81.8438 33.5503 82.4104 34.2382 83.2508 34.7451C84.0983 35.2563 84.9925 35.4434 85.7873 35.4434V27.0888C86.2934 27.0888 86.9349 27.2105 87.5659 27.5911C88.1897 27.9674 88.5758 28.4593 88.7938 28.8537C89.1599 29.5163 89.0984 29.9731 89.0984 29.6985H80.7437ZM85.7873 35.4434C87.372 35.4434 88.5208 34.6784 89.1092 34.2014C89.7515 33.6806 90.2723 33.0578 90.6822 32.4988L83.945 27.5582C83.7499 27.8243 83.7138 27.8203 83.8474 27.7119C83.9234 27.6503 84.1102 27.5093 84.4076 27.3762C84.7123 27.2398 85.1859 27.0888 85.7873 27.0888V35.4434ZM90.6288 32.5701C91.593 31.3124 92.4187 29.6651 93.159 27.8588L85.4284 24.6905C84.7937 26.2393 84.2993 27.0946 83.9985 27.4869L90.6288 32.5701ZM93.1365 27.9126C93.9506 26.0024 94.6968 23.7433 95.3895 21.1746L87.323 18.9993C86.6957 21.3258 86.0668 23.1918 85.4509 24.6367L93.1365 27.9126ZM95.3925 21.1633C95.4353 21.0028 95.4574 20.9872 95.4164 21.0606C95.3722 21.1397 95.2432 21.3417 94.9805 21.5552L89.7121 15.0711C88.3206 16.2017 87.6585 17.7413 87.32 19.0106L95.3925 21.1633ZM94.8838 21.6314C94.5939 21.8531 94.3497 21.9315 94.2637 21.9538C94.1847 21.9744 94.2169 21.9542 94.4089 21.9542V13.5996C93.0525 13.5996 91.3054 13.8504 89.8088 14.9949L94.8838 21.6314ZM94.4089 21.9542C94.5634 21.9542 94.5572 21.9658 94.4434 21.9445C94.381 21.9328 94.2569 21.9057 94.0922 21.8465C93.9294 21.7878 93.6864 21.6832 93.4117 21.5001L98.0461 14.5487C96.6816 13.639 95.1217 13.5996 94.4089 13.5996V21.9542ZM93.4118 21.5001C92.873 21.141 92.4535 20.6364 92.198 20.0686C91.9601 19.5399 91.9229 19.0903 91.9229 18.8494H100.277C100.277 17.5281 99.7926 15.713 98.046 14.5487L93.4118 21.5001ZM91.9229 18.8494C91.9229 18.8162 91.8935 19.2456 91.7016 20.5145C91.5305 21.6468 91.2692 23.2096 90.9142 25.2171L99.1411 26.6722C99.501 24.637 99.7761 22.996 99.9624 21.7632C100.128 20.667 100.277 19.5701 100.277 18.8494H91.9229ZM90.9038 25.2787L89.8312 31.9201L98.079 33.2521L99.1515 26.6106L90.9038 25.2787ZM96.4684 35.9227C98.522 34.3758 100.512 32.9703 102.438 31.7038L97.8478 24.7231C95.7587 26.0967 93.6233 27.6063 91.4418 29.2495L96.4684 35.9227ZM102.332 31.7711C102.315 31.7815 102.209 31.8458 102.02 31.9114C101.83 31.9776 101.51 32.0608 101.092 32.0608V23.7062C99.7382 23.7062 98.6489 24.2279 97.9535 24.6558L102.332 31.7711ZM83.0235 55.9453C85.0297 55.9453 86.4145 54.8039 87.1218 54.0714C87.8901 53.2757 88.5085 52.297 89.0177 51.3445L81.6495 47.4063C81.489 47.7065 81.3557 47.9252 81.2524 48.0776C81.146 48.2344 81.0964 48.284 81.1115 48.2683C81.1204 48.2591 81.2616 48.1114 81.5494 47.9539C81.8547 47.7868 82.3625 47.5907 83.0235 47.5907V55.9453ZM89.0177 51.3445C90.1478 49.2301 91.0975 46.1157 91.9625 42.3488L83.8198 40.479C82.9798 44.1373 82.2244 46.3306 81.6495 47.4063L89.0177 51.3445ZM85.1966 38.2219C82.9304 40.1349 81.0573 42.0532 79.7852 43.9796L86.7568 48.5835C87.4097 47.5948 88.6168 46.268 90.5857 44.6059L85.1966 38.2219ZM79.736 44.0558C78.6087 45.8462 77.6911 47.9325 77.6911 50.1592H86.0458C86.0458 50.1975 86.0389 50.0854 86.1473 49.7856C86.2558 49.4858 86.4565 49.0623 86.806 48.5073L79.736 44.0558ZM77.6911 50.1592C77.6911 51.0872 77.8509 52.2185 78.4487 53.3145L85.7832 49.3139C85.9184 49.5618 85.9837 49.7776 86.0149 49.9233C86.0455 50.066 86.0458 50.1517 86.0458 50.1592H77.6911ZM78.5917 53.5569C79.6773 55.2629 81.4351 55.9453 83.0235 55.9453V47.5907C83.3255 47.5907 83.8129 47.647 84.3554 47.9182C84.9225 48.2018 85.3554 48.6241 85.6402 49.0715L78.5917 53.5569ZM105.114 36.5462L102.072 39.4092L102.116 39.4553L102.16 39.5L105.114 36.5462ZM104.702 30.6885L100.566 30.0978L100.561 30.1341L100.557 30.1704L104.702 30.6885ZM105.609 25.1609L109.723 25.8868L109.727 25.8651L109.73 25.8434L105.609 25.1609ZM107.301 13.9405L111.443 14.4808L111.444 14.4697L111.446 14.4586L107.301 13.9405ZM103.712 8.24781L106.157 11.6343L106.166 11.6283L106.174 11.6222L103.712 8.24781ZM100.412 11.7129L97.0835 9.18822L97.0659 9.21146L97.0486 9.23495L100.412 11.7129ZM98.1015 11.9604L94.7023 14.3884L94.8019 14.5279L94.9126 14.6587L98.1015 11.9604ZM97.9365 9.3616L94.0738 7.77109L94.0485 7.83258L94.0252 7.89485L97.9365 9.3616ZM98.844 7.79405L95.4482 5.36125L95.4448 5.36604L98.844 7.79405ZM103.258 3.54516L105.434 7.11107L105.456 7.09773L105.477 7.08413L103.258 3.54516ZM111.591 3.46266L108.374 6.12785L108.396 6.15472L108.419 6.18121L111.591 3.46266ZM112.622 10.3104L116.76 10.885L116.761 10.8774L116.762 10.8698L112.622 10.3104ZM112.251 12.7442L116.366 13.46V13.46L112.251 12.7442ZM112.003 14.0643L107.925 13.1581L115.946 15.4431L112.003 14.0643ZM117.283 4.7002L120.08 7.80299L120.092 7.7922L120.104 7.78131L117.283 4.7002ZM127.926 3.91642L124.671 6.53458L124.688 6.55584L124.706 6.57687L127.926 3.91642ZM129.123 12.6617L125.014 11.9071L133.05 14.0847L129.123 12.6617ZM133.949 4.49394L131.162 1.38206V1.38206L133.949 4.49394ZM144.716 3.87517L141.489 6.5282L141.506 6.54936L141.524 6.57029L144.716 3.87517ZM145.747 13.4867L149.832 14.3581L149.835 14.3445L149.838 14.3309L145.747 13.4867ZM143.23 25.2846L139.145 24.4133L139.139 24.4393L139.134 24.4654L143.23 25.2846ZM143.602 31.4311L140.504 34.2337L140.54 34.2733L140.577 34.312L143.602 31.4311ZM148.511 31.3898L146.144 27.9475L146.118 27.9652L146.093 27.9832L148.511 31.3898ZM151.604 28.3785L148.433 25.6599L148.422 25.6728L148.411 25.6858L151.604 28.3785ZM153.543 28.296L149.935 30.4008L149.998 30.5089L150.068 30.6131L153.543 28.296ZM153.09 32.2148L149.869 29.5544L149.868 29.5557L153.09 32.2148ZM148.841 36.01L150.906 39.6413L148.841 36.01ZM138.94 35.1437L135.898 38.0067L135.913 38.0217L135.927 38.0366L138.94 35.1437ZM137.95 22.4795L133.869 21.5875L133.868 21.5959L133.866 21.6043L137.95 22.4795ZM139.6 14.9305L135.523 14.0244L135.521 14.0314L135.519 14.0385L139.6 14.9305ZM140.219 11.8367L144.35 12.4563L144.352 12.4419L144.354 12.4274L140.219 11.8367ZM139.765 8.00031L136.379 10.4461L136.456 10.5535L136.541 10.6558L139.765 8.00031ZM134.114 9.77411L130.935 7.06415L130.931 7.06869L134.114 9.77411ZM130.071 18.0244L126.111 16.6949L126.107 16.7077L126.103 16.7204L130.071 18.0244ZM126.977 33.0399L122.835 32.5035L122.831 32.5296L122.828 32.5558L126.977 33.0399ZM125.946 36.3812L122.775 33.6627L122.769 33.6692L122.763 33.6758L125.946 36.3812ZM121.574 36.5462L118.526 39.4033L118.572 39.4524L118.62 39.5L121.574 36.5462ZM121.409 29.6573L125.529 30.344L125.531 30.334L121.409 29.6573ZM122.564 23.1808L118.46 22.4007L118.459 22.4055L122.564 23.1808ZM123.842 8.00031L120.545 10.5649L120.588 10.6205L120.633 10.6746L123.842 8.00031ZM117.902 9.56786L120.938 12.4377L120.95 12.4241L120.963 12.4103L117.902 9.56786ZM113.695 17.6944L109.754 16.307L109.751 16.315L109.749 16.3231L113.695 17.6944ZM110.312 33.4524L114.45 34.0204L114.451 34.0191L110.312 33.4524ZM109.446 36.3812L106.023 33.9857L105.982 34.0445L105.943 34.1047L109.446 36.3812ZM107.301 33.029C107.072 33.029 107.065 33.0019 107.198 33.0422C107.347 33.0873 107.704 33.2281 108.068 33.5924L102.16 39.5C103.756 41.096 105.846 41.3836 107.301 41.3836V33.029ZM108.156 33.6833C108.369 33.9099 108.497 34.1227 108.569 34.2681C108.64 34.4111 108.665 34.5043 108.668 34.5176C108.672 34.5321 108.661 34.4951 108.651 34.3925C108.64 34.2913 108.632 34.1452 108.632 33.9474H100.277C100.277 35.3815 100.461 37.6974 102.072 39.4092L108.156 33.6833ZM108.632 33.9474C108.632 33.3358 108.693 32.4386 108.847 31.2067L100.557 30.1704C100.381 31.5786 100.277 32.8539 100.277 33.9474H108.632ZM108.837 31.2793C109.02 29.9981 109.314 28.2071 109.723 25.8868L101.495 24.4349C101.08 26.7898 100.768 28.6839 100.566 30.0978L108.837 31.2793ZM109.73 25.8434C110.451 21.4944 111.022 17.7047 111.443 14.4808L103.158 13.4002C102.754 16.5016 102.198 20.192 101.488 24.4784L109.73 25.8434ZM111.446 14.4586C111.705 12.3841 111.849 10.5472 111.849 8.99034H103.495C103.495 10.0736 103.391 11.5368 103.156 13.4224L111.446 14.4586ZM111.849 8.99034C111.849 7.98429 111.687 6.4731 110.7 5.1278C109.536 3.54089 107.819 2.95672 106.311 2.95672V11.3113C106.066 11.3113 105.653 11.2693 105.177 11.0529C104.678 10.8259 104.261 10.4753 103.963 10.0684C103.43 9.34188 103.495 8.75885 103.495 8.99034H111.849ZM106.311 2.95672C104.258 2.95672 102.5 3.96103 101.249 4.87343L106.174 11.6222C106.336 11.5042 106.468 11.4179 106.572 11.3564C106.677 11.2944 106.743 11.2638 106.77 11.252C106.798 11.24 106.773 11.2533 106.701 11.2704C106.627 11.2877 106.493 11.3113 106.311 11.3113V2.95672ZM101.266 4.86136C99.7958 5.92311 98.4055 7.44559 97.0835 9.18822L103.74 14.2376C104.838 12.7902 105.647 12.0026 106.157 11.6343L101.266 4.86136ZM97.0486 9.23495C97.085 9.18556 97.2591 8.96052 97.6202 8.73918C98.0166 8.49626 98.5422 8.3194 99.1328 8.3194V16.674C101.397 16.674 102.93 15.3372 103.775 14.1909L97.0486 9.23495ZM99.1328 8.3194C99.6156 8.3194 100.094 8.43836 100.513 8.65646C100.913 8.86422 101.162 9.11053 101.29 9.26214L94.9126 14.6587C95.8207 15.7319 97.2548 16.674 99.1328 16.674V8.3194ZM101.501 9.53242C101.599 9.67003 101.697 9.85089 101.768 10.0695C101.838 10.2887 101.866 10.4992 101.866 10.6816H93.5117C93.5117 12.031 93.9278 13.3041 94.7023 14.3884L101.501 9.53242ZM101.866 10.6816C101.866 10.7244 101.862 10.762 101.857 10.7915C101.851 10.8204 101.846 10.8333 101.848 10.8284L94.0252 7.89485C93.6963 8.77176 93.5117 9.70752 93.5117 10.6816H101.866ZM101.799 10.9521C101.832 10.8726 101.948 10.6349 102.243 10.2221L95.4448 5.36604C94.9146 6.10827 94.4261 6.9156 94.0738 7.77109L101.799 10.9521ZM102.24 10.2268C103.295 8.75393 104.373 7.75856 105.434 7.11107L101.082 -0.02075C98.8982 1.31182 97.0331 3.14905 95.4482 5.36125L102.24 10.2268ZM105.477 7.08413C106.556 6.40743 107.42 6.19616 108.126 6.19616V-2.15844C105.586 -2.15844 103.205 -1.35217 101.039 0.00618744L105.477 7.08413ZM108.126 6.19616C108.443 6.19616 108.546 6.24661 108.52 6.23578C108.507 6.23036 108.477 6.21589 108.442 6.18979C108.407 6.16368 108.384 6.13949 108.374 6.12785L114.807 0.797464C113.049 -1.32433 110.594 -2.15844 108.126 -2.15844V6.19616ZM108.419 6.18121C108.356 6.10747 108.651 6.38245 108.651 7.67029H117.006C117.006 5.27302 116.476 2.7429 114.762 0.744102L108.419 6.18121ZM108.651 7.67029C108.651 8.17024 108.603 8.85427 108.482 9.75097L116.762 10.8698C116.915 9.73142 117.006 8.6554 117.006 7.67029H108.651ZM108.484 9.73571C108.35 10.7014 108.234 11.4611 108.135 12.0285L116.366 13.46C116.488 12.7623 116.619 11.8994 116.76 10.885L108.484 9.73571ZM108.135 12.0285C108.025 12.6646 107.957 13.0167 107.925 13.1581L116.081 14.9704C116.16 14.6168 116.257 14.0889 116.366 13.46L108.135 12.0285ZM115.946 15.4431C117.442 11.1673 118.916 8.85203 120.08 7.80299L114.486 1.59741C111.745 4.06848 109.7 7.99588 108.06 12.6854L115.946 15.4431ZM120.104 7.78131C121.396 6.59845 122.565 6.19616 123.719 6.19616V-2.15844C120.197 -2.15844 117.076 -0.773178 114.463 1.61908L120.104 7.78131ZM123.719 6.19616C124.387 6.19616 124.534 6.36352 124.671 6.53458L131.181 1.29826C129.284 -1.06076 126.626 -2.15844 123.719 -2.15844V6.19616ZM124.706 6.57687C124.922 6.83928 125.316 7.54976 125.316 9.27909H133.671C133.671 6.38828 133.02 3.52365 131.147 1.25598L124.706 6.57687ZM125.316 9.27909C125.316 9.84059 125.236 10.6964 125.014 11.9071L133.231 13.4163C133.504 11.9319 133.671 10.5327 133.671 9.27909H125.316ZM133.05 14.0847C134.322 10.5735 135.634 8.59244 136.736 7.60582L131.162 1.38206C128.579 3.69555 126.673 7.15968 125.195 11.2387L133.05 14.0847ZM136.736 7.60582C137.841 6.61637 138.975 6.19616 140.302 6.19616V-2.15844C136.843 -2.15844 133.742 -0.928593 131.162 1.38206L136.736 7.60582ZM140.302 6.19616C141.256 6.19616 141.426 6.45189 141.489 6.5282L147.942 1.22214C145.97 -1.17663 143.198 -2.15844 140.302 -2.15844V6.19616ZM141.524 6.57029C141.729 6.81329 142.106 7.46275 142.106 9.07284H150.46C150.46 6.22779 149.792 3.41213 147.907 1.18006L141.524 6.57029ZM142.106 9.07284C142.106 9.9021 141.98 11.0728 141.656 12.6425L149.838 14.3309C150.229 12.4355 150.46 10.6637 150.46 9.07284H142.106ZM141.661 12.6154L139.145 24.4133L147.316 26.156L149.832 14.3581L141.661 12.6154ZM139.134 24.4654C138.826 26.0085 138.641 27.4799 138.641 28.8322H146.995C146.995 28.2045 147.085 27.3109 147.327 26.1039L139.134 24.4654ZM138.641 28.8322C138.641 30.5336 139.016 32.5895 140.504 34.2337L146.699 28.6285C146.915 28.8671 146.994 29.0783 147.013 29.1421C147.028 29.1908 146.995 29.1082 146.995 28.8322H138.641ZM140.577 34.312C142.075 35.8853 144.019 36.4747 145.871 36.4747V28.12C145.805 28.12 145.893 28.1102 146.072 28.1783C146.266 28.2524 146.466 28.3814 146.627 28.5502L140.577 34.312ZM145.871 36.4747C147.771 36.4747 149.48 35.824 150.928 34.7964L146.093 27.9832C145.953 28.0828 145.873 28.1134 145.853 28.12C145.839 28.125 145.85 28.12 145.871 28.12V36.4747ZM150.877 34.8321C152.208 33.917 153.521 32.5864 154.798 31.0712L148.411 25.6858C147.323 26.9757 146.573 27.6526 146.144 27.9475L150.877 34.8321ZM154.776 31.097C154.664 31.2273 154.433 31.4568 154.053 31.6537C153.653 31.8611 153.191 31.9783 152.718 31.9783V23.6236C150.812 23.6236 149.358 24.5803 148.433 25.6599L154.776 31.097ZM152.718 31.9783C152.229 31.9783 151.628 31.8572 151.043 31.5067C150.472 31.1641 150.125 30.7271 149.935 30.4008L157.152 26.1912C156.273 24.6853 154.682 23.6236 152.718 23.6236V31.9783ZM150.068 30.6131C149.863 30.3064 149.771 30.0338 149.731 29.868C149.692 29.7073 149.696 29.6253 149.696 29.6573H158.051C158.051 28.612 157.861 27.2416 157.019 25.9788L150.068 30.6131ZM149.696 29.6573C149.696 29.86 149.671 29.9183 149.683 29.8771C149.69 29.8548 149.706 29.8096 149.738 29.7494C149.77 29.6885 149.814 29.6214 149.869 29.5544L156.31 34.8753C157.619 33.2903 158.051 31.3989 158.051 29.6573H149.696ZM149.868 29.5557C148.644 31.0391 147.601 31.9097 146.776 32.3787L150.906 39.6413C152.886 38.5152 154.675 36.8557 156.311 34.874L149.868 29.5557ZM146.776 32.3787C145.971 32.8361 145.208 33.029 144.427 33.029V41.3836C146.726 41.3836 148.905 40.7789 150.906 39.6413L146.776 32.3787ZM144.427 33.029C142.951 33.029 142.314 32.6258 141.954 32.2508L135.927 38.0366C138.207 40.4117 141.227 41.3836 144.427 41.3836V33.029ZM141.982 32.2807C141.541 31.8119 141.138 31.0472 141.138 29.5335H132.783C132.783 32.6949 133.7 35.6704 135.898 38.0067L141.982 32.2807ZM141.138 29.5335C141.138 28.3646 141.39 26.3625 142.035 23.3548L133.866 21.6043C133.19 24.7568 132.783 27.4573 132.783 29.5335H141.138ZM142.031 23.3715L143.681 15.8225L135.519 14.0385L133.869 21.5875L142.031 23.3715ZM143.678 15.8367C143.736 15.5787 143.834 15.13 143.971 14.4979L135.807 12.7231C135.67 13.356 135.575 13.7874 135.523 14.0244L143.678 15.8367ZM143.971 14.4979C144.125 13.7906 144.252 13.1092 144.35 12.4563L136.088 11.217C136.021 11.6642 135.928 12.1653 135.807 12.7231L143.971 14.4979ZM144.354 12.4274C144.463 11.666 144.52 10.9046 144.52 10.1454H136.166C136.166 10.4862 136.14 10.8524 136.084 11.2459L144.354 12.4274ZM144.52 10.1454C144.52 8.75021 144.262 6.88968 142.99 5.34477L136.541 10.6558C136.28 10.3396 136.19 10.0654 136.165 9.97319C136.142 9.88914 136.166 9.92765 136.166 10.1454H144.52ZM143.152 5.55453C141.901 3.82312 140.032 3.08048 138.198 3.08048V11.4351C138.039 11.4351 137.711 11.405 137.317 11.2186C136.906 11.0239 136.588 10.7362 136.379 10.4461L143.152 5.55453ZM138.198 3.08048C135.044 3.08048 132.621 5.08588 130.935 7.06415L137.293 12.4841C137.824 11.8611 138.2 11.5655 138.399 11.4433C138.576 11.3338 138.49 11.4351 138.198 11.4351V3.08048ZM130.931 7.06869C129.002 9.3383 127.451 12.7035 126.111 16.6949L134.031 19.3538C135.277 15.645 136.421 13.51 137.297 12.4795L130.931 7.06869ZM126.103 16.7204C124.724 20.915 123.65 26.2046 122.835 32.5035L131.12 33.5762C131.9 27.5548 132.888 22.834 134.04 19.3283L126.103 16.7204ZM122.828 32.5558C122.75 33.2246 122.656 33.6464 122.584 33.8808C122.549 33.9925 122.532 34.0214 122.547 33.9916C122.56 33.964 122.627 33.8352 122.775 33.6627L129.118 39.0998C130.502 37.485 130.928 35.2263 131.127 33.5239L122.828 32.5558ZM122.763 33.6758C123.064 33.3215 123.401 33.1417 123.613 33.0661C123.795 33.0011 123.834 33.029 123.636 33.029V41.3836C125.328 41.3836 127.545 40.9502 129.129 39.0867L122.763 33.6758ZM123.636 33.029C123.48 33.029 123.524 33.0087 123.692 33.0627C123.881 33.123 124.207 33.2718 124.527 33.5924L118.62 39.5C120.161 41.0414 122.143 41.3836 123.636 41.3836V33.029ZM124.621 33.6892C124.845 33.9286 124.98 34.154 125.055 34.3086C125.13 34.4608 125.157 34.5631 125.162 34.5843C125.168 34.6069 125.159 34.5787 125.149 34.4853C125.14 34.3934 125.132 34.2576 125.132 34.0712H116.777C116.777 35.4256 116.94 37.7112 118.526 39.4033L124.621 33.6892ZM125.132 34.0712C125.132 33.2714 125.244 32.0548 125.529 30.344L117.288 28.9705C116.968 30.8899 116.777 32.6158 116.777 34.0712H125.132ZM125.531 30.334C125.826 28.5335 126.205 26.4089 126.668 23.9561L118.459 22.4055C117.987 24.9029 117.596 27.096 117.286 28.9805L125.531 30.334ZM126.667 23.9609C127.911 17.417 128.638 12.7088 128.638 10.3104H120.284C120.284 11.762 119.746 15.6342 118.46 22.4007L126.667 23.9609ZM128.638 10.3104C128.638 8.85487 128.376 6.91503 127.051 5.32606L120.633 10.6746C120.371 10.3603 120.289 10.0944 120.271 10.0299C120.256 9.97279 120.284 10.0466 120.284 10.3104H128.638ZM127.14 5.43569C125.754 3.65439 123.771 3.08048 122.069 3.08048V11.4351C122.044 11.4351 121.821 11.4322 121.497 11.2967C121.145 11.1494 120.804 10.8977 120.545 10.5649L127.14 5.43569ZM122.069 3.08048C119.046 3.08048 116.626 4.80283 114.841 6.72541L120.963 12.4103C121.469 11.8655 121.835 11.6033 122.042 11.4886C122.227 11.3858 122.22 11.4351 122.069 11.4351V3.08048ZM114.867 6.698C112.805 8.87814 111.169 12.2888 109.754 16.307L117.635 19.0818C118.97 15.2897 120.139 13.2827 120.938 12.4377L114.867 6.698ZM109.749 16.3231C108.272 20.5728 107.098 26.132 106.173 32.8857L114.451 34.0191C115.341 27.5174 116.422 22.5712 117.64 19.0656L109.749 16.3231ZM106.173 32.8844C106.096 33.451 106.012 33.8264 105.945 34.0517C105.913 34.1604 105.893 34.2052 105.895 34.2018C105.895 34.2011 105.932 34.1167 106.023 33.9857L112.868 38.7768C113.865 37.3517 114.246 35.5061 114.45 34.0204L106.173 32.8844ZM105.943 34.1047C106.321 33.5228 106.82 33.225 107.142 33.1011C107.413 32.9969 107.514 33.029 107.301 33.029V41.3836C108.867 41.3836 111.426 40.9996 112.948 38.6578L105.943 34.1047ZM151.539 35.3499L154.766 32.6969L151.539 35.3499ZM151.539 24.2533L155.244 26.1838L155.249 26.1733L155.255 26.1627L151.539 24.2533ZM155.582 19.5094L157.989 22.9237L158 22.916L155.582 19.5094ZM162.182 18.0656L158.885 20.6302L159.045 20.8355L159.228 21.0194L162.182 18.0656ZM162.719 19.3032L158.645 20.229L159.539 24.1612L163.5 23.4067L162.719 19.3032ZM165.936 24.7071L170.032 25.5263L170.036 25.5064L170.04 25.4863L165.936 24.7071ZM165.276 32.2973L161.979 34.862L162.063 34.9702L162.154 35.0726L165.276 32.2973ZM167.999 31.6786L170.774 34.8007L170.806 34.7725L170.837 34.7437L167.999 31.6786ZM171.01 28.3785L167.838 25.6599L167.822 25.6791L167.806 25.6985L171.01 28.3785ZM172.949 28.296L169.341 30.4008L169.404 30.5089L169.473 30.6131L172.949 28.296ZM172.495 32.2148L169.334 29.4845L169.285 29.5402L169.239 29.5975L172.495 32.2148ZM168.906 35.7625L171.436 39.0869L168.906 35.7625ZM162.719 36.2987L160.01 39.4787L160.073 39.5323L160.138 39.5834L162.719 36.2987ZM161.027 33.7411L164.959 32.3298L162.033 24.1798L157.475 31.5424L161.027 33.7411ZM158.841 31.9673L155.53 29.4204V29.4204L158.841 31.9673ZM160.037 29.121L164.126 29.9768L164.129 29.9607L164.132 29.9445L160.037 29.121ZM161.563 21.5307L165.659 22.3543L166.689 17.2302L161.464 17.3546L161.563 21.5307ZM158.346 22.8508L161.064 26.0224L161.072 26.0162L158.346 22.8508ZM156.036 26.1509L159.887 27.7685L156.036 26.1509ZM155.665 32.4211L152.403 35.0306L152.454 35.0948L152.508 35.1569L155.665 32.4211ZM155.623 33.029C155.076 33.029 154.933 32.9006 154.766 32.6969L148.313 38.003C150.18 40.2744 152.761 41.3836 155.623 41.3836V33.029ZM154.766 32.6969C154.506 32.3804 154.19 31.7734 154.19 30.4823H145.836C145.836 33.2063 146.538 35.8445 148.313 38.003L154.766 32.6969ZM154.19 30.4823C154.19 28.9549 154.537 27.5408 155.244 26.1838L147.835 22.3228C146.507 24.871 145.836 27.6095 145.836 30.4823H154.19ZM155.255 26.1627C155.991 24.7306 156.908 23.6853 157.989 22.9237L153.175 16.0952C150.901 17.6987 149.123 19.816 147.824 22.344L155.255 26.1627ZM158 22.916C159.074 22.1539 160.043 21.8717 160.986 21.8717V13.5171C158.134 13.5171 155.501 14.4449 153.164 16.1028L158 22.916ZM160.986 21.8717C161.04 21.8717 160.838 21.8815 160.501 21.7768C160.151 21.6681 159.462 21.372 158.885 20.6302L165.48 15.501C164.004 13.6038 161.779 13.5171 160.986 13.5171V21.8717ZM159.228 21.0194C159.025 20.816 158.89 20.6274 158.806 20.4945C158.721 20.3607 158.672 20.2562 158.648 20.201C158.605 20.1 158.614 20.091 158.645 20.229L166.792 18.3774C166.623 17.6328 166.239 16.215 165.136 15.1118L159.228 21.0194ZM163.5 23.4067C163.801 23.3493 164.144 23.3155 164.534 23.3155V14.9609C163.658 14.9609 162.791 15.037 161.937 15.1996L163.5 23.4067ZM164.534 23.3155C164.836 23.3155 164.313 23.3922 163.622 22.8983C163.228 22.6175 162.875 22.2146 162.643 21.7168C162.421 21.2411 162.378 20.8268 162.378 20.582H170.732C170.732 19.0027 170.102 17.2601 168.478 16.0999C167.112 15.1247 165.578 14.9609 164.534 14.9609V23.3155ZM162.378 20.582C162.378 20.5268 162.372 20.7391 162.269 21.4267C162.177 22.0393 162.033 22.8677 161.832 23.9279L170.04 25.4863C170.427 23.448 170.732 21.6387 170.732 20.582H162.378ZM161.84 23.8879C161.213 27.0246 160.81 29.603 160.81 31.3073H169.165C169.165 30.5366 169.395 28.7148 170.032 25.5263L161.84 23.8879ZM160.81 31.3073C160.81 32.355 161.059 33.6789 161.979 34.862L168.573 29.7327C169.109 30.4208 169.165 31.0847 169.165 31.3073H160.81ZM162.154 35.0726C163.163 36.2084 164.573 36.8459 166.101 36.8459V28.4913C166.471 28.4913 166.911 28.5637 167.362 28.7664C167.812 28.969 168.156 29.2493 168.398 29.5221L162.154 35.0726ZM166.101 36.8459C168.237 36.8459 169.87 35.6042 170.774 34.8007L165.223 28.5564C165.016 28.7405 164.955 28.7593 165.035 28.7176C165.108 28.6795 165.489 28.4913 166.101 28.4913V36.8459ZM170.837 34.7437C171.78 33.8705 172.921 32.6051 174.214 31.0584L167.806 25.6985C166.569 27.1769 165.703 28.1116 165.161 28.6134L170.837 34.7437ZM174.182 31.097C174.07 31.2273 173.839 31.4568 173.459 31.6538C173.059 31.8611 172.596 31.9783 172.124 31.9783V23.6236C170.217 23.6236 168.764 24.5803 167.838 25.6599L174.182 31.097ZM172.124 31.9783C171.635 31.9783 171.033 31.8572 170.449 31.5067C169.878 31.1641 169.531 30.7271 169.341 30.4008L176.557 26.1912C175.679 24.6853 174.087 23.6236 172.124 23.6236V31.9783ZM169.473 30.6131C169.269 30.3064 169.177 30.0338 169.137 29.868C169.098 29.7073 169.102 29.6253 169.102 29.6573H177.456C177.456 28.612 177.266 27.2416 176.425 25.9788L169.473 30.6131ZM169.102 29.6573C169.102 29.8853 169.074 29.948 169.089 29.8977C169.098 29.8697 169.118 29.8124 169.159 29.7363C169.2 29.6591 169.258 29.5722 169.334 29.4845L175.657 34.9452C177.045 33.338 177.456 31.3829 177.456 29.6573H169.102ZM169.239 29.5975C168.297 30.7699 167.339 31.7058 166.377 32.438L171.436 39.0869C173.003 37.8941 174.438 36.4649 175.751 34.8322L169.239 29.5975ZM166.377 32.438C165.989 32.7332 165.699 32.8836 165.511 32.9578C165.331 33.0284 165.247 33.029 165.235 33.029V41.3836C167.6 41.3836 169.692 40.4138 171.436 39.0869L166.377 32.438ZM165.235 33.029C165.241 33.029 165.257 33.0296 165.28 33.0335C165.303 33.0375 165.325 33.0434 165.342 33.0498C165.36 33.0561 165.366 33.0603 165.361 33.0574C165.356 33.0543 165.335 33.042 165.299 33.014L160.138 39.5834C161.582 40.7179 163.315 41.3836 165.235 41.3836V33.029ZM165.427 33.1188C165.327 33.0332 165.139 32.8326 164.959 32.3298L157.096 35.1525C157.685 36.7947 158.625 38.2992 160.01 39.4787L165.427 33.1188ZM157.475 31.5424C156.588 32.9766 155.977 33.029 155.623 33.029V41.3836C159.615 41.3836 162.607 39.1258 164.579 35.9399L157.475 31.5424ZM157.108 37.2172C159.551 37.2172 161.213 35.7351 162.152 34.5143L155.53 29.4204C155.467 29.5021 155.542 29.3775 155.796 29.2199C156.085 29.0413 156.542 28.8626 157.108 28.8626V37.2172ZM162.152 34.5143C163.192 33.1621 163.791 31.5756 164.126 29.9768L155.948 28.2652C155.788 29.0314 155.59 29.3426 155.53 29.4204L162.152 34.5143ZM164.132 29.9445L165.659 22.3543L157.468 20.7072L155.942 28.2975L164.132 29.9445ZM161.464 17.3546C159.217 17.4081 157.241 18.2897 155.62 19.6854L161.072 26.0162C161.431 25.7068 161.6 25.7084 161.663 25.7069L161.464 17.3546ZM155.627 19.6791C154.091 20.9956 152.969 22.6645 152.184 24.5333L159.887 27.7685C160.257 26.8872 160.675 26.3561 161.064 26.0224L155.627 19.6791ZM152.184 24.5333C151.385 26.4373 150.992 28.4465 150.992 30.5235H159.347C159.347 29.5205 159.532 28.6146 159.887 27.7685L152.184 24.5333ZM150.992 30.5235C150.992 31.7832 151.213 33.5434 152.403 35.0306L158.926 29.8116C159.204 30.1583 159.304 30.4628 159.335 30.5829C159.365 30.6968 159.347 30.6954 159.347 30.5235H150.992ZM152.508 35.1569C153.75 36.5907 155.439 37.2172 157.108 37.2172V28.8626C157.284 28.8626 157.585 28.8939 157.939 29.0456C158.304 29.202 158.604 29.435 158.821 29.6853L152.508 35.1569ZM170.627 35.5562L166.716 37.023L166.732 37.0655L166.749 37.1076L170.627 35.5562ZM171.535 20.0869L175.518 21.3465L175.521 21.3358L175.525 21.3251L171.535 20.0869ZM172.731 18.3544L175.008 21.8568L175.028 21.8436L175.048 21.8301L172.731 18.3544ZM175.99 21.737L171.955 20.6562L171.946 20.6899L171.938 20.7239L175.99 21.737ZM174.918 27.6772L170.757 27.299L178.818 29.1737L174.918 27.6772ZM177.97 21.902L174.643 19.376L177.97 21.902ZM181.27 18.7257L179.188 15.1043L179.168 15.1158L179.148 15.1275L181.27 18.7257ZM186.262 18.4781L183.22 21.3411L183.307 21.4333L183.399 21.5201L186.262 18.4781ZM186.509 24.5008L190.632 25.1766L190.635 25.1542L190.639 25.1317L186.509 24.5008ZM185.849 29.286L190.001 29.7473L190.002 29.739L185.849 29.286ZM184.942 36.5462L181.9 33.6833L181.894 33.6892L184.942 36.5462ZM180.899 36.505L177.767 39.2688V39.2688L180.899 36.505ZM180.858 28.956L184.988 29.5844L184.989 29.5756L180.858 28.956ZM179.373 25.4909L175.96 23.0819L175.953 23.0921L175.946 23.1023L179.373 25.4909ZM177.393 29.121L173.59 27.3924L173.577 27.4213L173.564 27.4503L177.393 29.121ZM175.784 33.9062L171.727 32.9087L171.722 32.9314L171.717 32.9542L175.784 33.9062ZM174.711 36.5462L171.579 33.7824L171.573 33.7889L171.568 33.7955L174.711 36.5462ZM172.855 33.029C173.105 33.029 173.56 33.1105 174.001 33.437C174.405 33.7364 174.518 34.0356 174.506 34.0048L166.749 37.1076C167.177 38.1768 167.881 39.3011 169.028 40.1504C170.211 41.027 171.56 41.3836 172.855 41.3836V33.029ZM174.539 34.0895C174.405 33.7332 174.186 32.6115 174.186 30.276H165.831C165.831 32.7808 166.025 35.1791 166.716 37.023L174.539 34.0895ZM174.186 30.276C174.186 27.1028 174.637 24.1331 175.518 21.3465L167.552 18.8274C166.398 22.476 165.831 26.299 165.831 30.276H174.186ZM175.525 21.3251C175.546 21.2562 175.539 21.3109 175.457 21.4292C175.369 21.5572 175.221 21.7183 175.008 21.8568L170.455 14.852C168.884 15.8726 168.001 17.3796 167.545 18.8488L175.525 21.3251ZM175.048 21.8301C174.863 21.954 174.736 21.9836 174.743 21.9819C174.746 21.9811 174.777 21.9739 174.843 21.967C174.908 21.9601 175 21.9542 175.124 21.9542V13.5996C173.645 13.5996 171.928 13.8692 170.414 14.8787L175.048 21.8301ZM175.124 21.9542C175.243 21.9542 175.216 21.9631 175.091 21.9407C175.023 21.9286 174.898 21.9023 174.735 21.8468C174.574 21.7919 174.336 21.6949 174.065 21.5255L178.493 14.4408C177.196 13.6301 175.757 13.5996 175.124 13.5996V21.9542ZM174.065 21.5255C173.377 21.0953 172.923 20.4892 172.676 19.9032C172.453 19.3724 172.432 18.9437 172.432 18.7669H180.786C180.786 17.6917 180.458 15.6688 178.493 14.4408L174.065 21.5255ZM172.432 18.7669C172.432 18.5919 172.449 18.5144 172.436 18.6037C172.426 18.6706 172.405 18.7941 172.365 18.9875C172.284 19.3752 172.151 19.9242 171.955 20.6562L180.025 22.8178C180.242 22.0098 180.418 21.2937 180.544 20.6914C180.65 20.1821 180.786 19.4555 180.786 18.7669H172.432ZM171.938 20.7239C171.652 21.8677 171.416 22.8975 171.234 23.8054L179.426 25.4438C179.575 24.7016 179.779 23.8064 180.043 22.7501L171.938 20.7239ZM171.234 23.8054C171.03 24.8244 170.876 25.9997 170.757 27.299L179.078 28.0554C179.18 26.9346 179.3 26.0748 179.426 25.4438L171.234 23.8054ZM178.818 29.1737C179.631 27.0548 180.476 25.5091 181.297 24.4281L174.643 19.376C173.209 21.265 172.02 23.5694 171.018 26.1807L178.818 29.1737ZM181.297 24.4281C182.244 23.1806 182.96 22.579 183.392 22.3238L179.148 15.1275C177.436 16.1374 175.951 17.6533 174.643 19.376L181.297 24.4281ZM183.353 22.347C184.059 21.9409 184.339 21.9542 184.282 21.9542V13.5996C182.409 13.5996 180.682 14.2454 179.188 15.1043L183.353 22.347ZM184.282 21.9542C184.363 21.9542 184.258 21.9664 184.042 21.8898C183.803 21.8052 183.496 21.6345 183.22 21.3411L189.304 15.6152C187.816 14.0343 185.873 13.5996 184.282 13.5996V21.9542ZM183.399 21.5201C183.105 21.244 182.935 20.9366 182.85 20.6978C182.774 20.4817 182.786 20.3765 182.786 20.4582H191.14C191.14 18.8673 190.706 16.9241 189.125 15.4362L183.399 21.5201ZM182.786 20.4582C182.786 20.8087 182.688 21.853 182.38 23.87L190.639 25.1317C190.936 23.1885 191.14 21.5378 191.14 20.4582H182.786ZM182.387 23.8251C182.101 25.5682 181.871 27.2379 181.697 28.833L190.002 29.739C190.158 28.309 190.367 26.7886 190.632 25.1766L182.387 23.8251ZM181.697 28.8247C181.512 30.4933 181.424 32.3147 181.424 34.2774H189.779C189.779 32.555 189.856 31.0488 190.001 29.7473L181.697 28.8247ZM181.424 34.2774C181.424 34.5256 181.396 34.5631 181.426 34.4615C181.459 34.3472 181.576 34.0273 181.9 33.6833L187.984 39.4092C189.494 37.8043 189.779 35.7541 189.779 34.2774H181.424ZM181.894 33.6892C182.262 33.2972 182.643 33.1268 182.844 33.0627C183.022 33.0054 183.063 33.029 182.879 33.029V41.3836C184.327 41.3836 186.423 41.0737 187.989 39.4033L181.894 33.6892ZM182.879 33.029C182.767 33.029 182.87 33.0125 183.098 33.0933C183.354 33.1839 183.712 33.3793 184.031 33.7412L177.767 39.2688C179.278 40.9819 181.33 41.3836 182.879 41.3836V33.029ZM184.031 33.7412C184.293 34.0378 184.403 34.3146 184.443 34.4497C184.478 34.5712 184.458 34.575 184.458 34.4012H176.103C176.103 35.8604 176.414 37.7351 177.767 39.2688L184.031 33.7412ZM184.458 34.4012C184.458 33.6464 184.604 32.1062 184.988 29.5844L176.728 28.3275C176.342 30.8659 176.103 32.9559 176.103 34.4012H184.458ZM184.989 29.5756C185.304 27.4734 185.53 25.7309 185.53 24.7484H177.176C177.176 24.7355 177.175 24.8084 177.159 25.0095C177.143 25.1968 177.118 25.4462 177.08 25.7659C177.005 26.4058 176.888 27.2583 176.727 28.3363L184.989 29.5756ZM185.53 24.7484C185.53 24.1794 185.456 23.0129 184.682 21.8868C183.713 20.4785 182.213 19.911 180.899 19.911V28.2656C180.468 28.2656 179.889 28.1859 179.275 27.8884C178.642 27.5813 178.144 27.1251 177.797 26.6199C177.174 25.7138 177.176 24.8773 177.176 24.7484H185.53ZM180.899 19.911C179.055 19.911 177.821 20.9972 177.423 21.3631C176.854 21.8854 176.365 22.5076 175.96 23.0819L182.785 27.8999C183.04 27.5391 183.135 27.46 183.076 27.5148C183.042 27.5459 182.878 27.695 182.587 27.8521C182.304 28.0048 181.714 28.2656 180.899 28.2656V19.911ZM175.946 23.1023C175.115 24.2936 174.336 25.7515 173.59 27.3924L181.196 30.8496C181.825 29.4654 182.365 28.5032 182.8 27.8794L175.946 23.1023ZM173.564 27.4503C172.805 29.1903 172.194 31.0114 171.727 32.9087L179.84 34.9036C180.199 33.4458 180.661 32.0768 181.221 30.7917L173.564 27.4503ZM171.717 32.9542C171.597 33.4652 171.491 33.7861 171.419 33.9633C171.384 34.0479 171.37 34.0694 171.384 34.0457C171.396 34.0247 171.455 33.9228 171.579 33.7824L177.844 39.31C178.995 38.0057 179.531 36.2257 179.851 34.8581L171.717 32.9542ZM171.568 33.7955C171.901 33.4141 172.28 33.2047 172.559 33.1053C172.81 33.016 172.939 33.029 172.855 33.029V41.3836C174.349 41.3836 176.369 40.9954 177.855 39.297L171.568 33.7955Z" fill="#1F1F1F" mask="url(#path-1-outside-1_1330_2216)"/>
</svg>
